/* XPM */
static char *result[] = {
/* columns rows colors chars-per-pixel */
"32 32 157 2 ",
"   c #1B252D",
".  c #2E2A31",
"X  c #322B33",
"o  c #3C3737",
"O  c #373238",
"+  c #29372E",
"@  c #482B33",
"#  c #552834",
"$  c #443539",
"%  c #763E39",
"&  c #3A5226",
"*  c #44661E",
"=  c #4D5F2A",
"-  c #5D592E",
";  c #494936",
":  c #5D4B3D",
">  c #555630",
",  c #5C5730",
"<  c #644C2D",
"1  c #61473D",
"2  c #61483D",
"3  c #704539",
"4  c #7F4D3A",
"5  c #764F33",
"6  c #635937",
"7  c #77553D",
"8  c #4C6826",
"9  c #50612A",
"0  c #6C662E",
"q  c #667725",
"w  c #7E752C",
"e  c #766B2C",
"r  c #5F3C41",
"t  c #663F41",
"y  c #6C3A45",
"u  c #723749",
"i  c #763B48",
"p  c #7C3B4B",
"a  c #743F47",
"s  c #664041",
"d  c #744243",
"f  c #7C4C45",
"g  c #755449",
"h  c #805C2D",
"j  c #844F37",
"k  c #834A3C",
"l  c #8E4D3F",
"z  c #895A33",
"x  c #9A5B34",
"c  c #A94B3A",
"v  c #B94C3F",
"b  c #85722F",
"n  c #8A6136",
"m  c #8B7F31",
"M  c #AB652D",
"N  c #C54E3E",
"B  c #C7513D",
"V  c #CC5D36",
"C  c #CB742C",
"Z  c #DC7A2C",
"A  c #D1792B",
"S  c #CA6035",
"D  c #853E4D",
"F  c #8C3F50",
"G  c #87494B",
"H  c #8D4C4C",
"J  c #974243",
"K  c #924F4E",
"L  c #81594F",
"P  c #92514D",
"I  c #8F4051",
"U  c #904051",
"Y  c #9D5450",
"T  c #945F52",
"R  c #B94A47",
"E  c #BF4548",
"W  c #A15750",
"Q  c #AC5A54",
"!  c #A65953",
"~  c #B35E56",
"^  c #856346",
"/  c #856549",
"(  c #956D4A",
")  c #A3744D",
"_  c #BC6559",
"`  c #BF695B",
"'  c #BC7C5C",
"]  c #C64943",
"[  c #CE4B46",
"{  c #C26D5C",
"}  c #C2705F",
"|  c #C57562",
" . c #CA7B64",
".. c #2C8913",
"X. c #348318",
"o. c #398A14",
"O. c #678B1C",
"+. c #6E9E15",
"@. c #709B16",
"#. c #66AB0F",
"$. c #69AA0F",
"%. c #70B10E",
"&. c #62A710",
"*. c #76AA14",
"=. c #7DAE13",
"-. c #77B512",
";. c #BD9A10",
":. c #8AAF18",
">. c #85B514",
",. c #89B913",
"<. c #90B21A",
"1. c #A1BF1C",
"2. c #BA8322",
"3. c #9FAD29",
"4. c #A3B526",
"5. c #CB9A17",
"6. c #EE961F",
"7. c #E3B60B",
"8. c #F6A41B",
"9. c #DA8C22",
"0. c #A5C81A",
"q. c #FCC606",
"w. c #C7865A",
"e. c #C48854",
"r. c #E79B5E",
"t. c #EA9E5E",
"y. c #EFA15E",
"u. c #F0A25E",
"i. c #CE8166",
"p. c #CD836A",
"a. c #D18464",
"s. c #D0866B",
"d. c #D78B66",
"f. c #DE9164",
"g. c #DC926B",
"h. c #CD8772",
"j. c #D18970",
"k. c #DC9A7A",
"l. c #D79479",
"z. c #EA9E64",
"x. c #E49C6C",
"c. c #EEA262",
"v. c #ECA46B",
"b. c #EFA86B",
"n. c #F1A462",
"m. c #F0A96C",
"M. c #EAAA77",
"N. c #F1AF76",
"B. c #EFB07B",
"V. c #F2B27B",
"C. c #DFA487",
"Z. c #E9B28B",
"A. c #ECB485",
"S. c #F2BA8B",
"D. c #EFBD96",
"F. c #E8AC83",
"G. c None",
/* pixels */
"G.G.G.G.G.G.G.G.G.G.G.G.G.G.G.G.G.G.G.G.G.G.G.G.G.G.G.G.G.G.G.G.",
"G.G.G.G.G.G.G.G.G.G.G.G.G.G.G.G.G.G.G.G.G.G.G.G.G.G.G.G.G.G.G.G.",
"G.G.G.G.G.G.G.G.G.G.G.G.G.G.G.G.G.G.G.G.G.G.G.G.G.G.G.G.G.G.G.G.",
"G.G.G.G.G.G.G.G.G.G.G.G.G.G.G.G.G.G.G.G.G.G.G.G.G.G.G.G.G.G.G.G.",
"G.G.G.G.G.G.G.G.G.G.G.G.G.G.: 1 : : G.G.G.G.G.G.G.G.G.G.G.G.G.G.",
"G.G.G.G.G.G.G.G.G.G.; ^ ^ ) B.M.t.z.) ^ / ; G.G.G.G.G.G.G.G.G.G.",
"G.G.G.G.G.G.G.G.o ( e.n.n.u.M.x.y.m.n.V.S.w.( o G.G.G.G.G.G.G.G.",
"G.G.G.G.G.G.G.g w.c.V.c.c.V.y.y.y.Z.V.c.x.n.z.w.g G.G.G.G.G.G.G.",
"G.G.G.G.G.G.O ' u.b.Z.y.c.Z.c.c.c.z.c.y.n.c.n.n.' o G.G.G.G.G.G.",
"G.G.G.G.G.G.L a.z.u.z.b.y.t.y.b.D.c.y.y.S.B.u.c.a.L G.G.G.G.G.G.",
"G.G.G.G.G.  T j.x.r.B.S.t.b.B.c.x.c.B.c.x.z.c.g.a.T   G.G.G.G.G.",
"G.G.G.G.G.  s | h.a.f.f.x.k.F.c.t.c.C.g.f.f.j.p.} t   G.G.G.G.G.",
"G.G.G.G.G.* , W _ |  .a.k.s.a.d.g.d.} a.s. .| _ ! - * G.G.G.G.G.",
"G.G.G.G.& *.+.6 K ~ { | | |  .a.l.i. .p.h.` _ K 6 @.*.& G.G.G.G.",
"G.G.G.G.= 0.>.X.8 7 K ~ ~ _ } { { | _ ~ Q K 7 8 X.>.0.9 G.G.G.G.",
"G.G.G.G.+ - 0 *.%.@.q 1 1 f Q Q Q ! f 2 2 q +.%.*.0 6 G.G.G.G.G.",
"G.G.G.G.G.# % <.:.>.$...o.O.> ; ; > O.o...$.=.:.1.3 # G.G.G.G.G.",
"G.G.G.G.G.@ % 3.n b ,.#.-.,.&.....&.,.%.#.>.e z m % @ G.G.G.G.G.",
"G.G.G.G.G.. M c ] G 4.<.w w >.-.-.,.w w <.4.G ] c M . G.G.G.G.G.",
"G.G.G.G.G.X 5.6.V v k j R R b 3.3.b R R k k v V 6.5.X G.G.G.G.G.",
"G.G.G.G.G.. ;.q.8.Z V N ] [ R J J R [ ] ] S Z 8.q.;.. G.G.G.G.G.",
"G.G.G.G.G.  < 5 z j x C A Z B N N B Z A C x j z h <   G.G.G.G.G.",
"G.G.G.G.G.G.r y u D D % 4 2.9.8.8.9.2.4 3 D D u y t G.G.G.G.G.G.",
"G.G.G.G.G.G.O H G i p F I p z 7.7.z i I F p i G H O G.G.G.G.G.G.",
"G.G.G.G.G.G.G.s ! Y H y y i p 5 5 p i y y H Y Y s G.G.G.G.G.G.G.",
"G.G.G.G.G.G.G.G.. d P Q ~ Y i t y d Y Q ~ P d X G.G.G.G.G.G.G.G.",
"G.G.G.G.G.G.G.G.G.G.$ s s f Q ~ ~ Q f s s $ G.G.G.G.G.G.G.G.G.G.",
"G.G.G.G.G.G.G.G.G.G.G.G.G.G.$ $ $ $ G.G.G.G.G.G.G.G.G.G.G.G.G.G.",
"G.G.G.G.G.G.G.G.G.G.G.G.G.G.G.G.G.G.G.G.G.G.G.G.G.G.G.G.G.G.G.G.",
"G.G.G.G.G.G.G.G.G.G.G.G.G.G.G.G.G.G.G.G.G.G.G.G.G.G.G.G.G.G.G.G.",
"G.G.G.G.G.G.G.G.G.G.G.G.G.G.G.G.G.G.G.G.G.G.G.G.G.G.G.G.G.G.G.G.",
"G.G.G.G.G.G.G.G.G.G.G.G.G.G.G.G.G.G.G.G.G.G.G.G.G.G.G.G.G.G.G.G."
};
