/* XPM */
static char *result[] = {
/* columns rows colors chars-per-pixel */
"48 48 115 2 ",
"   c #673D1E",
".  c #553326",
"X  c #593627",
"o  c #5C3825",
"O  c #573529",
"+  c #5A3728",
"@  c #5D3929",
"#  c #613A22",
"$  c #653E2D",
"%  c #693F2B",
"&  c #623C30",
"*  c #6D401B",
"=  c #754416",
"-  c #7B4612",
";  c #7E4914",
":  c #74431B",
">  c #79461B",
",  c #7D491A",
"<  c #6D4125",
"1  c #6A412D",
"2  c #714222",
"3  c #794C2E",
"4  c #6B4130",
"5  c #724632",
"6  c #724830",
"7  c #7A4A36",
"8  c #7F4E38",
"9  c #7D5135",
"0  c #834701",
"q  c #864A04",
"w  c #8B4D06",
"e  c #844A0E",
"r  c #8B4E09",
"t  c #904F06",
"y  c #8E5006",
"u  c #8E500A",
"i  c #925106",
"p  c #92530C",
"a  c #844C10",
"s  c #8E5115",
"d  c #8F5118",
"f  c #915315",
"g  c #955810",
"h  c #9E5C16",
"j  c #93551C",
"k  c #9D5D19",
"l  c #A15F19",
"z  c #9F601B",
"x  c #A3621C",
"c  c #AB671E",
"v  c #8B532F",
"b  c #945726",
"n  c #975826",
"m  c #945628",
"M  c #96592C",
"N  c #814F39",
"B  c #815336",
"V  c #8F5C32",
"C  c #845339",
"Z  c #8C563D",
"A  c #875838",
"S  c #8D5B3B",
"D  c #995B32",
"F  c #90573E",
"G  c #9A5D3A",
"H  c #93603E",
"J  c #9A653F",
"K  c #AD6A27",
"L  c #AE6B29",
"P  c #B3712E",
"I  c #A66A36",
"U  c #A0673B",
"Y  c #B67432",
"T  c #BD7936",
"R  c #BF7B3C",
"E  c #905740",
"W  c #925941",
"Q  c #9C5E43",
"!  c #9D6145",
"~  c #9F6941",
"^  c #9F614A",
"/  c #A56D44",
"(  c #AB7347",
")  c #AD7449",
"_  c #B1774A",
"`  c #B77B4A",
"'  c #C5803E",
"]  c #CC833B",
"[  c #C68140",
"{  c #C98444",
"}  c #CF8A47",
"|  c #C1804E",
" . c #CD8849",
".. c #D28C4D",
"X. c #C58551",
"o. c #CC8B53",
"O. c #D38F55",
"+. c #D79152",
"@. c #DA9455",
"#. c #D39358",
"$. c #DE9759",
"%. c #DF985B",
"&. c #E0954A",
"*. c #E39B5C",
"=. c #E99E5E",
"-. c #EDA15F",
";. c #F5A95F",
":. c #E59C60",
">. c #EEA360",
",. c #F3A662",
"<. c #F6A963",
"1. c #FCAD65",
"2. c #FFB167",
"3. c #FEB269",
"4. c None",
/* pixels */
"4.4.4.4.4.4.4.4.4.4.4.4.4.4.4.4.4.4.4.4.4.4.4.4.4.4.4.4.4.4.4.4.4.4.4.4.4.4.4.4.4.4.4.4.4.4.4.4.",
"4.4.4.4.4.4.4.4.4.4.4.4.4.4.4.4.4.4.4.4.4.4.4.4.4.4.4.4.4.4.4.4.4.4.4.4.4.4.4.4.4.4.4.4.4.4.4.4.",
"4.4.4.4.4.4.4.4.4.4.4.4.4.4.4.4.4.4.4.4.4.4.4.4.4.4.4.4.4.4.4.4.4.4.4.4.4.4.4.4.4.4.4.4.4.4.4.4.",
"4.4.4.4.4.4.4.4.4.4.4.4.4.4.4.4.4.4.4.4.4.4.4.4.4.4.4.4.4.4.4.4.4.4.4.4.4.4.4.4.4.4.4.4.4.4.4.4.",
"4.4.4.4.4.4.4.4.4.4.4.4.4.4.4.4.4.4.4.4.4.4.4.4.4.4.4.4.4.4.4.4.4.4.4.4.4.4.4.4.4.4.4.4.4.4.4.4.",
"4.4.4.4.4.4.4.4.4.4.4.4.4.4.4.4.4.4.4.4.4.4.4.4.w r w w w w w u r 4.4.4.4.4.4.4.4.4.4.4.4.4.4.4.",
"4.4.4.4.4.4.4.4.4.4.4.4.4.4.4.4.4.4.4.4.4.4.4.4.w r r r r r w u r 4.4.4.4.4.4.4.4.4.4.4.4.4.4.4.",
"4.4.4.4.4.4.4.4.4.4.4.4.4.4.4.4.4.4.4.w w w w w D G G G G G G J M w w w i w 4.4.4.4.4.4.4.4.4.4.",
"4.4.4.4.4.4.4.4.4.4.4.4.4.4.4.4.4.4.4.f f f f s F E W E E E E W v a a e a a 4.4.4.4.4.4.4.4.4.4.",
"4.4.4.4.4.4.4.4.4.4.4.4.4.4.4.4.i w r G Q ! Q Q 5 % 4 4 4 % 4 4 1 1 1 % 1 2 i 4.4.4.4.4.4.4.4.4.",
"4.4.4.4.4.4.4.4.4.4.4.4.4.4.4.d n b m Q W C C C 4 $ $ $ $ $ $ $ $ $ % % $ % = - 4.4.4.4.4.4.4.4.",
"4.4.4.4.4.4.4.4.4.4.4.4.4.4.w j Q G Q ! F $ 4 4 4 $ $ $ 1 & $ $ & % & $ $ $ o = p 4.4.4.4.4.4.4.",
"4.4.4.4.4.4.4.4.4.4.4.4.4.p m G ^ Z 5 7 5 $ 1 $ $ $ @ $ $ $ $ $ $ $ $ $ $ $ . V ' h q 4.4.4.4.4.",
"4.4.4.4.4.4.4.4.4.4.4.4.r f Q Q Q 5 4 % & $ $ $ $ $ O # $ $ % $ $ $ $ $ $ @ . J &.l q 4.4.4.4.4.",
"4.4.4.4.4.4.4.4.4.4.4.i m D Q E 7 5 & $ $ $ $ $ $ $ . @ % & % % $ $ $ $ $ $ . ~ *.k q 4.4.4.4.4.",
"4.4.4.4.4.4.4.4.4.4.f f G Q W N $ $ $ $ $ $ $ $ $ $ A 7 < % % & $ $ $ $ $ $ . / *.L k 4.4.4.4.4.",
"4.4.4.4.4.4.4.4.4.q b D Q Q 7 5 $ $ $ $ $ $ # @ @ 4 X.I - < 1 1 1 $ $ & 1 $ . J *.{ T w t 4.4.4.",
"4.4.4.4.4.4.4.4.4.w m / W Z $ & $ $ $ $ $ $ 5 9 9 ! 3.] q < $ $ $ $ $ $ & # . J *.=...p w 4.4.4.",
"4.4.4.4.4.4.4.4.4.w m Q 7 4 % & $ $ $ $ $ . / =.=.-.3.] q < $ $ $ $ 4 $ + @ . / *.$...r r 4.4.4.",
"4.4.4.4.4.4.4.4.4.f M ^ 5 $ % % $ $ $ $ 4 A o.3.2.1.3.T w < $ $ $ $ $ $ + $ A ` *.*...r w 4.4.4.",
"4.4.4.4.4.4.4.w f Q Q ^ 5 $ $ $ $ % $ . C 2.3.3.4.4.4.4.i < 1 $ $ $ $ & . B 1.-.$.$...r w 4.4.4.",
"4.4.4.4.4.4.4.w f Q E 8 4 $ $ $ & $ & / X.3.1.4.4.4.y ; > < $ $ $ $ $ # . B 2.-.$.*...r w 4.4.4.",
"4.4.4.4.4.4.4.w d Q 8 $ $ $ $ $ $ + $ ,.3.3.4.4.4.4.y , & $ $ $ 1 $ @ . o A 2.-.@.%...r r 4.4.4.",
"4.4.4.4.4.w w # # 5 % $ $ $ $ $ $ + # <.1.4.4.4.4.4.w > & 1 $ $ $ $ @ @ o.=.1.-.$.*.O.w w 4.4.4.",
"4.4.4.4.4.r r # + & $ $ $ % $ $ # 5 B ,.1.4.4.4.4.4.e : $ $ $ $ $ $ O @ -.2.,.-.$...[ r w 4.4.4.",
"4.4.4.4.4.w w # @ % $ $ & % $ $ . X.<.4.4.4.y t w e % 1 $ $ $ 1 $ O . X =.,.*.$.$.x r 4.4.4.4.4.",
"4.4.4.4.4.w w o + $ $ $ % $ 4 $ + I ] g 4.4., , , : $ $ $ $ $ $ @ . A / ,.<.*.$.$.k q 4.4.4.4.4.",
"4.4.4.4.4.w w # @ $ $ $ & $ $ $ $ , w t i i : $ $ $ $ $ $ $ $ X O . | 3.1.,.$.$.$.l w 4.4.4.4.4.",
"4.4.4.4.4.w e # + @ # & $ $ $ $ $ 2 2 2 2 2 % $ $ $ $ $ $ # @ . 7  .>.1.1.,.*.R x 4.4.4.4.4.4.4.",
"4.4.4.4.4.r w # X O $ $ $ $ $ $ $ & $ $ $ $ % % $ $ $ $ $ + O 4 / 1.1.1.<.,.*.P q 4.4.4.4.4.4.4.",
"4.4.4.4.4.r r # O O + $ $ $ $ $ $ & $ $ $ $ $ & $ $ @ + . . $ o.=.1.1.1.=.*.:.P w 4.4.4.4.4.4.4.",
"4.4.4.4.4.r w :   O + $ $ $ $ $ 1 % $ $ $ $ $ $ # $ . 6 S S ~ <.1.1.<.-.*.+.' K q 4.4.4.4.4.4.4.",
"4.4.4.4.4.4.4.e , X O + @ + @ # $ 1 $ 1 @ @ X @ @ X . S #.O.+.<.1.1.>.*.*. .x h 4.4.4.4.4.4.4.4.",
"4.4.4.4.4.4.4.w e X X X X X O @ 1 @ @ @ @ O . . S J H X.3.2.1.,.,.,.*.$.[ Y w 4.4.4.4.4.4.4.4.4.",
"4.4.4.4.4.4.4.y e # X X X X O @ X X X 1 1 $ @ 1 O.-.-.>.1.1.<.*.%.*.$.+.x p 4.4.4.4.4.4.4.4.4.4.",
"4.4.4.4.4.4.4.w e     . X O . O X . X S H H H ! -.3.2.2.1.,.>.%.$.%. .T p 4.4.4.4.4.4.4.4.4.4.4.",
"4.4.4.4.4.4.4.4.4.i = o $ 1 < $ 1 # 1 -.1.1.<.<.<.<.<.1.1.*.$.+.+.@.K w 4.4.4.4.4.4.4.4.4.4.4.4.",
"4.4.4.4.4.4.4.4.4.4.- = J ) ( ( ( ( _ <.1.1.1.1.>.-.-.-.-.*.+.Y P Y x 4.4.4.4.4.4.4.4.4.4.4.4.4.",
"4.4.4.4.4.4.4.4.4.4.4.i &.<.;.;.;.1.1.<.<.1.<.<.*.@.+.+.+.+...u q w 4.4.4.4.4.4.4.4.4.4.4.4.4.4.",
"4.4.4.4.4.4.4.4.4.4.4.4.z c c x x ..:.=.=.=.=.:.%.+.z z z z z 4.4.4.4.4.4.4.4.4.4.4.4.4.4.4.4.4.",
"4.4.4.4.4.4.4.4.4.4.4.4.q w q q 0 Y .. . . . . ...[ q w q w q 4.4.4.4.4.4.4.4.4.4.4.4.4.4.4.4.4.",
"4.4.4.4.4.4.4.4.4.4.4.4.4.4.4.4.4.u p u u u r u r r 4.4.4.4.4.4.4.4.4.4.4.4.4.4.4.4.4.4.4.4.4.4.",
"4.4.4.4.4.4.4.4.4.4.4.4.4.4.4.4.4.w u w w w w w y q 4.4.4.4.4.4.4.4.4.4.4.4.4.4.4.4.4.4.4.4.4.4.",
"4.4.4.4.4.4.4.4.4.4.4.4.4.4.4.4.4.4.4.4.4.4.4.4.4.4.4.4.4.4.4.4.4.4.4.4.4.4.4.4.4.4.4.4.4.4.4.4.",
"4.4.4.4.4.4.4.4.4.4.4.4.4.4.4.4.4.4.4.4.4.4.4.4.4.4.4.4.4.4.4.4.4.4.4.4.4.4.4.4.4.4.4.4.4.4.4.4.",
"4.4.4.4.4.4.4.4.4.4.4.4.4.4.4.4.4.4.4.4.4.4.4.4.4.4.4.4.4.4.4.4.4.4.4.4.4.4.4.4.4.4.4.4.4.4.4.4.",
"4.4.4.4.4.4.4.4.4.4.4.4.4.4.4.4.4.4.4.4.4.4.4.4.4.4.4.4.4.4.4.4.4.4.4.4.4.4.4.4.4.4.4.4.4.4.4.4.",
"4.4.4.4.4.4.4.4.4.4.4.4.4.4.4.4.4.4.4.4.4.4.4.4.4.4.4.4.4.4.4.4.4.4.4.4.4.4.4.4.4.4.4.4.4.4.4.4."
};
