/* XPM */
static char *result[] = {
/* columns rows colors chars-per-pixel */
"64 64 202 2 ",
"   c #A61D0D",
".  c #AC1A0C",
"X  c #B4170A",
"o  c #9C250F",
"O  c #9A2410",
"+  c #9E2B10",
"@  c #A1220F",
"#  c #A42B0E",
"$  c #A92B0D",
"%  c #BD3C09",
"&  c #A02F10",
"*  c #A33411",
"=  c #A63911",
"-  c #A93E11",
";  c #C30E07",
":  c #CC0905",
">  c #D40F09",
",  c #D71807",
"<  c #DA130C",
"1  c #E91F13",
"2  c #C42A0A",
"3  c #E23B01",
"4  c #ED2215",
"5  c #F32618",
"6  c #F12918",
"7  c #AB4111",
"8  c #B44C11",
"9  c #B45112",
"0  c #B85712",
"q  c #BA5A13",
"w  c #B77109",
"e  c #B56010",
"r  c #BA6219",
"t  c #B54D30",
"y  c #BE7325",
"u  c #BF7A2A",
"i  c #C64706",
"p  c #CC4703",
"a  c #CD4A04",
"s  c #D94A05",
"d  c #D25409",
"f  c #DD530B",
"g  c #D55C0C",
"h  c #D15512",
"j  c #E54000",
"k  c #E14D15",
"l  c #D5600E",
"z  c #D8610E",
"x  c #D56116",
"c  c #DA6612",
"v  c #DD6916",
"b  c #D6641A",
"n  c #DB651B",
"m  c #DE6D1B",
"M  c #E06F1C",
"N  c #E17414",
"B  c #E57B12",
"V  c #E1721E",
"C  c #E57C1B",
"Z  c #DB5924",
"A  c #E84E3B",
"S  c #D4682A",
"D  c #C37B2B",
"F  c #CB7F29",
"G  c #DD722B",
"H  c #CD663B",
"J  c #D36B30",
"K  c #D87539",
"L  c #E27425",
"P  c #E17D22",
"I  c #E2762B",
"U  c #E47A37",
"Y  c #D27353",
"T  c #CA7C68",
"R  c #788C02",
"E  c #839C0A",
"W  c #8D9A11",
"Q  c #A8860D",
"!  c #88A30D",
"~  c #8CA908",
"^  c #96B604",
"/  c #9ABC01",
"(  c #9BA31A",
")  c #B0B00D",
"_  c #B59221",
"`  c #97B028",
"'  c #B7AC28",
"]  c #B6B022",
"[  c #D59E11",
"{  c #EA8513",
"}  c #E88217",
"|  c #EE8F15",
" . c #ED8B18",
".. c #F19416",
"X. c #F59E14",
"o. c #F29A19",
"O. c #F7A317",
"+. c #CE8029",
"@. c #DE8627",
"#. c #D58228",
"$. c #DA8528",
"%. c #CC9139",
"&. c #E28526",
"*. c #E38827",
"=. c #E68A25",
"-. c #E58C2A",
";. c #EB922D",
":. c #F19D2D",
">. c #E78A38",
",. c #E68C3B",
"<. c #E98D3A",
"1. c #ED9630",
"2. c #ED9831",
"3. c #EC963D",
"4. c #F19F36",
"5. c #C6A935",
"6. c #F1A136",
"7. c #F6A83B",
"8. c #FABF37",
"9. c #F9BD38",
"0. c #C6D601",
"q. c #C1C615",
"w. c #FCC92D",
"e. c #FAC137",
"r. c #FCCD35",
"t. c #FDD534",
"y. c #FDD73B",
"u. c #CA9151",
"i. c #E58843",
"p. c #EB9945",
"a. c #D6A445",
"s. c #DAA444",
"d. c #E6B246",
"f. c #F8BA44",
"g. c #D38364",
"h. c #CF8570",
"j. c #CD9271",
"k. c #E98563",
"l. c #E19660",
"z. c #EB8A77",
"x. c #D4AE73",
"c. c #D4B879",
"v. c #EFAF6E",
"b. c #F7BA65",
"n. c #FBC94B",
"m. c #FDDB42",
"M. c #FEDE4C",
"N. c #FEE255",
"B. c #FEE359",
"V. c #FAE667",
"C. c #FFE665",
"Z. c #FFE769",
"A. c #FFEA72",
"S. c #FDE47F",
"D. c #FFED7D",
"F. c #D4B788",
"G. c #D4BA8E",
"H. c #D4BC94",
"J. c #EBAA8D",
"K. c #F0B38E",
"L. c #EEB691",
"P. c #BAC680",
"I. c #DEC395",
"U. c #D6C19D",
"Y. c #F7C98A",
"T. c #FADB8C",
"R. c #ECCB95",
"E. c #F3C498",
"W. c #F9D794",
"Q. c #F7D49C",
"!. c #F8D59D",
"~. c #FFEF85",
"^. c #FFF18D",
"/. c #FFF291",
"(. c #D7C5A4",
"). c #D8C7A9",
"_. c #D8C9AD",
"`. c #D9CCB2",
"'. c #F8D7A0",
"]. c #F4D8A7",
"[. c #F9D9A4",
"{. c #F9DCAA",
"}. c #E4D1B0",
"|. c #FADFB1",
" X c #FBE2B6",
".X c #FBE4BB",
"XX c #FDEBBE",
"oX c #DFD1C7",
"OX c #E8DFCE",
"+X c #E3DDD2",
"@X c #FCE7C1",
"#X c #FDE9C5",
"$X c #F2E5CF",
"%X c #FDEAC8",
"&X c #E8E3DC",
"*X c #FDEED3",
"=X c #FEF2DD",
"-X c None",
";X c #EAE9E6",
":X c #FDF6E9",
">X c #FFFBF4",
",X c None",
/* pixels */
",X-X,X-X,X-X,X-X-X,X-X,X-X,X-X,X-X,X-X,X-X,X-X,X,X-X,X-X,X-X,X-X,X-X,X-X,X-X,X-X-X,X-X,X-X,X-X,X-X,X-X,X-X,X-X,X,X-X,X-X,X-X,X-X",
"-X,X-X,X-X,X-X,X,X-X,X-X,X-X,X-X,X-X,X-X,X-X,X-X-X,X-X,X-X,X-X,X-X,X-X,X-X,X-X,X,X-X,X-X,X-X,X-X,X-X,X-X,X-X,X-X-X,X-X,X-X,X-X,X",
",X-X,X-X,X-X,X-X-X,X-X,X-X,X-X,X-X,X-X,X-X,X-X,X,X-X,X-X,X-X,X-X,X-X,X-X,X-X,X-X-X,X-X,X-X,X-X,X-X,X-X,X-X,X-X,X,X-X,X-X,X-X,X-X",
"-X,X-X,X-X,X-X,X,X-X,X-X,X-X,X-X,X-X,X-X,X-X,X-X-X,X-X,X-X,X-X,X-X,X-X,X-X,X-X,X,X-X,X-X,X-X,X-X,X-X,X-X,X-X,X-X-X,X-X,X-X,X-X,X",
",X-X,X-X,X-X,X-X-X,X-X,X-X,X-X,X-X,X-X,X-X,X-X,X,X-X,X-X,X-X,X-X,X-X,X-X,X-X,X-X-X,X-X,X-X,X-X,X-X,X-X,X-X,X-X,X,X-X,X-X,X-X,X-X",
"-X,X-X,X-X,X-X,X,X-X,X-X,X-X,X-X,X-X,X-X,X-X,X-X-X,X-X,X-X,X-X,X-X,X-X,X-X,X-X,X,X-X,X-X,X-X,X-X,X-X,X-X,X-X,X-X-X,X-X,X-X,X-X,X",
",X-X,X-X,X-X,X-X-X,X-X,X-X,X-X,X-X,X-X,X-X,X-X,X,X-X,X-X,X-X,X-X,X-X,X-X,X-X,X-X-X,X-X,X-X,X-X,X-X,X-X,X-X,X-X,X,X-X,X-X,X-X,X-X",
"-X,X-X,X-X,X-X,X,X-X,X-X,X-X,X-X,X-X,X-X,X-X,X-X-X,X-X,X-X,X-X,X-X,X-X,X-X,X-X,X,X-X,X-X,X-X,X-X,X-X,X-X,X-X,X-X-X,X-X,X-X,X-X,X",
"-X,X-X,X-X,X-X,X,X-X,X-X,X-X,X-X,X-X,X-X,X-X,X-X;X,XH.(.).(.(.U.-X,X-X,X-X,X-X,X>X-X,X-X,X-X,X-X,X-X,X-X,X-X,X-X-X,X-X,X-X,X-X,X",
",X-X,X-X,X-X,X-X-X,X-X,X-X,X-X,X-X,X-X,X-X,X-X,XH._.(..X X XU.U.U.H.G.H.,X-X,X-X-X,X-X,X-X,X-X,X-X,X-X,X-X,X-X,X,X-X,X-X,X-X,X-X",
"-X,X-X,X-X,X-X,X,X-X,X-X,X-X,X-X,X-X,X-X,X-XH._._.%X X.X X X X|.|. XH.H.(.H.H.>X,X-X,X-X,X-X,X-X,X-X,X-X,X-X,X-X-X,X-X,X-X,X-X,X",
",X-X,X-X,X-X,X-X-X,X-X,X-X,X-X,X-X,X-X,X-X).H._. X X X.X X X X X X|.{.|.{.G.G.(.(.G._.,X-X,X-X,X-X,X-X,X-X,X-X,X,X-X,X-X,X-X,X-X",
"-X,X-X,X-X,X-X,X,X-X,X-X,X-X,X-X,X-X,X-X_._..X.X.X X%X X X X X X{.|.{.{.|.{.{.[.I.H.G.G.G.G.,X-X,X-X,X-X,X-X,X-X-X,X-X,X-X,X-X,X",
",X-X,X-X,X-X,X-X-X,X-X,X-X,X-X,X-X,X+X).)..X%X.X X X.X X X.X X X X X X{.|.{.[.{.].{.[.{.G.G.G.G.G.:X-X,X-X,X-X,X,X-X,X-X,X-X,X-X",
"-X,X-X,X-X,X-X,X,X-X,X-X,X-X,X-X,X_._._.%X%X.X.X@X@X X X X X X X{. X{.{.{.{.{.{.{.[.{.[.!.!.!.G.G.G.x.G.G.-X,X-X-X,X-X,X-X,X-X,X",
",X-X,X-X,X-X,X-X-X,X-X,X-X,X-X,X_.`.}.@X@X.X@X%X X X.X X X{. X X X{.{. X{.{.{.[.{.[.[.!.[.!.!.!.Q.Q.R.F.G.G.G.G.G.-X,X-X,X-X,X-X",
"-X,X-X,X-X,X-X,X,X-X,X-X,X-X,X_._.%X@X@X@X.XXX.X X.X.X X X X X X|.|.|.{.|.{.{.{.{.[.[.'.'.'.'.!.Q.!.!.W.T.W.F.G.j.x.G.,X-X,X-X,X",
",X-X,X-X,X-X,X-X-X,X-X,X-X$X_._.%X%X@X%X%X%X.X@X.X.X X@X X.X{. X|.|.|.|.{.{.[.[.{.{.[.[.[.[.!.!.!.Q.!.!.!.!.Q.Q.E.H.G.-X,X-X,X-X",
"-X,X-X,X-X,X-X,X,X-X,X-X_._._.%X%X%X%X@X.X%X@X X%X@X X.X X X X X|.{.|.{.{.{.{.{.[.'.[.!.!.!.!.!.Q.Q.E.Q.Q.Q.!.!.!.G.b ,X-X,X-X,X",
",X-X,X-X,X-X,X-X-X,X-X_.oXOX%X%X%X%X.X%X%X%X%X.X.X X X X X X X{.|.|.{.{.{.{.[.{.{.{.[.!.!.[.'.!.!.Q.!.T.!.!.L.!.!.R.* -X,X-X,X-X",
"-X,X-X,X-X,X-X,X,X-X_._.*X%X%X%X%X%X%X%X.X@X.X.X.X.X X X X X X|.|.|.{.{.{.{.{.{.[.'.[.'.!.'.!.!.!.!.!.!.!.Q.!.Q.L.p % ,X-X,X-X,X",
",X-X,X-X,X-X,X-X-X`._.%X%X#X:X%X%X%X%X.X%X@X.X X.X X%X@X X|. X X|.|.{.{.{.{.{.[.{.!.[.'.!.[.!.!.!.!.Q.!.!.!.!.h p i * -X,X-X,X-X",
"-X,X-X,X-X,X-X_.&X_.>X%X%X%X%X%X%X%X%X.X%X.X%X%X%X.X X X X X X X|.|.{.{.{.|.{.[.[.{.[.'.!.[.!.!.!.!.!.W.!.!.p p i p + ,X-X,X-X,X",
",X-X,X-X,X-X`._._.%X%X%X%X%X%X%X%X%X%X%X@X%X X X X X X%X X X X{. X{.{.{.{.[.{.{.{.{.[.'.!.!.'.!.!.!.!.!.!.g p p p 9 0 -X,X-X,X-X",
",X-X,X-X,X_._.%X%X%X*X%X%X%X%X%X%X%X.X%X%X.X@X%X X X X X X X.X X|.|.|. X{.{.{.[.[.[.{.'.!.'.'.!.!.!.!.!.g p p p p i O p E -X,X-X",
"-X,X-X,X-X_._.%X%X>X%X%X%X%X%X%X%X%X%X%X%X.X.X X%X X X.X X X X X X|.|.{.{.{.{.{.{.{.[.'.[.[.'.!.!.!.T.d g g p p p t.O O p ,X-X,X",
",X-X,X-X,Xa.%X%X%X*X*X:X:X%X%X%X%X%X%X%X%X@X X X X@X X X X X X X|.|. X{.{.{.[.{.{.[.[.'.!.[.'.!.!.!.z g g p p p t.O O o i -X,X-X",
"-X,X-X,X-Xa.7.7.*X%X:X%X*X%X%X%X%X%X%X@X%X%X%X%X%X.X.X X X{. X{.|.{.{.{.|.{.[.{.{.[.{.[.'.'.'.!.C z z g d p p t.O O O 3 2 ! c.,X",
",X-X,X-X,Xa.7.f.f.7.%X%X*X%X%X=X%X%X%X.X%X%X%X%X X X X X X X X X X|.|.|.{.{.{.[.!.{.'.'.!.!.!.M c c z z g a m.B.O j j 3 4 ! ,X-X",
"-X,X-X,X-Xa.s.n.n.n.7.7.7.7.Y.%X%X%X@X%X.X%X%X@X X@X.X.X X X|. X|.|.|.|.{.{.{.{.{.[.[.[.[.!.C m v z z g d m.t.j j : 4 6 % ,X-X,X",
",X-X,X-X,Xs.s.f.e.7.7.7.7.7.6.2.;.%X%XXX.X@X.X.X X@X X X X X X{.|.|.|.{.{.{.[.{.[.'.[.[.[.C C v v c z g B.M.M.X : < 4 ! ! ! ,X-X",
"-X,X-X! P.a.s.n.n.7.7.7.6.4.6.6.2.<.<.=.@X@X%X%X X.X X X X X X X|.|.|.{.|.{.[.{.{.{.'.b.{ C } M v z z B.B.B.: : : / ^ ! ! ! -X,X",
",X-X,X` ! ! 9.7.7.7.7.7.7.7.6.6.:.>.<.;.&.*.P {.@X X X.X X X X|.{.|.|.{.{.{.{.{.{.[.X.} }  .N N c c Z.B.B.N./ / / / ! ! ,X;X,X-X",
"-X,X! ! ! / / q.t.8.8.7.7.7.6.2.:.p.1.3.;.;.L L V K V #X.X.X|.|.|. X|.{.{.{.{.{.{.X. . .{ } N m c Z.Z.B.B.M./ / / / / ! +X,X-X,X",
",X-X! ! / / / / 3 o 9.r.7.6.6.2.i.1.1.<.,.;.U -.&.U L V m K i.|. X|.|.|.[.{.[.{.X.X.....| B N C A.C.C.B.N.W R R R R ~ ! ! -X,X-X",
"-X,X! ! ! ! / / j O o r.e.t.t.2.2.2.1.;.-.>.P V M L G G G m K J S ,.{.|.{.{.b.X.o...| | { B N A.A.A.C.C.B.! R R R R R R R ,X-X,X",
",X-X,X! ,X! ! 5 j j O O t.e.t.t.t.t.7.2.-.*.I L k.P V Y G b Z n x Z k n {.X.w.X.=.X.o...| ^.D.A.A.C.C.B.d.R R {.{.[.H.R ,X-X,X-X",
"-X,X-X( -X! ! / 5 5 j j 3 t.t.t.t.t.t.t.t.t.I k.&.I L V V v v g v H f n o.X.O.X.X.C X.C ^.D.D.A.A.A.C.B.R ! E {.!.].G.0 -X,X-X,X",
",X-X,X-X,X! ! ! 9 Y 4 > : , t.t.t.t.t.t.t.t.t.t.N.L k.V m m v v f v Z n P O.X.X.X.C o.^.~.~.~.A.D.A.R R R R R R {.[.0 0 ,X-X,X-X",
"-X,X-X,X-X,X! T ! / 4 4 : : : t.t.t.t.t.t.t.t.t.t.t.y.y.z J f A f f Z G z w.X.X.O.XXXX/.+ 3 j / / / R R E R {.{.!.z y 0 -X,X-X,X",
"-X,X-X,X-X,XT T / / 0.0.0.: : : t.t.t.t.B.O O O O O O O B.B.B.d g H d S g w.X.O.^./.^.O j j 6 / / / R R R [.!.[.z z q y -X,X-X,X",
",X-X,X-X,XT O + 8 e 0.0.0.z.0.0.0.0.0.j j o O O O O O s j 3 C.C.C.A.k d S O.7.^.^.S.j j > 6 ] z.' / _ z.!.[.{.z z z 0 0 ,X-X,X-X",
"-X,X-X,X-Xh.T + 9 # 0.0.0.z.z.0.0.0.0.5 5 j j j 3 j 3 : . : : < C.A.A.~.~.~.~./.XX: : > 4 / z.z.z.z.z.z.{.{.z z z z 0 0 -X,X-X,X",
",X-X,X-X,X-XT T # 7 # ) & z.J.g.0.g.0.[ 5 < > 1 : ; : . ; X / / ^ C.A.~.~.~.^.^.  ; ; l / / z.z.z.z.z.{.Y.z z z z 0 0 -X,X-X,X-X",
"-X,X-X,X-X,XG.].z.z.t @ 7 7 J.* + = w 0.J.A 1 : : : . / z./ / / / / V.D.~.~././ / / / / / / ) z.z.z.z.d z z z z 0 0 -X,X-X,X-X,X",
",X-X,X-X,X,XD !.[.[.z.z.z.z.g.J.+ * o + $ J.0.0.0./ / / z.z./ / / / / / / / / / / / / / / / z.z.z.z.z z l l z y r -X,X-X,X-X,X-X",
"-X,X-X,X-X,Xu &.*.{.{.{.[.z.z.z.J.J.* = O * J.0./ z.^ Q z.z.z./ / / / / / / / / / / / / / ' z.z.z.z z z l l 0 0 -X,X-X,X-X,X-X,X",
",X-X,X-X,X-Xu *.*.*.=.v.{.{.[.[.[.J.J.J.J.O X J.z.- * * * # z.z.z.z.z./ / / / / / / / / / / l.z.z.z z z h 0 0 ,X,X-X,X-X,X-X,X-X",
"-X,X-X,X-X,Xu *.*.*.*.*.#.*.@.,.[.[.!.[.J.J.J.J.J.z.+ = = o $ z.z.z.z./ / / / / / / z./ / / ' z.z z z q 0 0 ,X-X-X,X-X,X-X,X-X,X",
",X-X,X-X,X-Xu *.*.*.#.*.-.*.*.*.*.*.{.[.{.[.[.[.].E.z.z.o + +   $ z.z.z.z./ / / / / z.z./ / z.z z z 0 r 0 ,X-X,X,X-X,X-X,X-X,X-X",
"-X,X-X,X-X,Xu y u +.$.&.$.*.*.#.*.#.*.*.=.{.{.{.{.!.[.z.z.z.t o & # z.z.z.z.u./ / / z.z.z.z.z z g 0 0 0 ,X-X,X-X-X,X-X,X-X,X-X,X",
",X-X,X-X,X-X,XoXu u u u *.*.*.*.*.*.*.*.@.*.$.*.p.[.[.{.[.z.z.z.z.z.* z.z.z.z.z./ 5.z.z.z z z z 0 9 u.,X-X,X-X,X,X-X,X-X,X-X,X-X",
"-X,X-X,X-X,X-X,X,X-Xy u u u u D #.&.@.*.@.@.*.*.*.*.*.*. X{.[.[.K.z.z.z.z.z.z.z.z.z.z z z z z 0 q $X,X-X,X-X,X-X-X,X-X,X-X,X-X,X",
",X-X,X-X,X-X,X-X-X,X-X,X-X%.u D u u D $.*.*.*.*.*.*.*.*.=.@.*.&.[.!.!.{.!.].!.{.z z z z z l 0 0 -X,X-X,X-X,X-X,X,X-X,X-X,X-X,X-X",
"-X,X-X,X-X,X-X,X,X-X,X-X,X-X,X-X}.u u u u u *.*.*.@.*.*.F *.*.*.#.*.&.{.!.{.].z z z z z l r 0 -X,X-X,X-X,X-X,X-X-X,X-X,X-X,X-X,X",
",X-X,X-X,X-X,X-X-X,X-X,X-X,X-X,X-X,X-X,Xu u u u u *.*.*.*.*.*.*.*.*.*.*.&.{.z z z z z 0 0 0 -X,X-X,X-X,X-X,X-X,X,X-X,X-X,X-X,X-X",
",X-X,X-X,X-X,X-X-X,X-X,X-X,X-X,X-X,X-X,X-X,X-Xu u u u u &.*.*.*.+.*.*.*.*.z z z z z q 0 u.,X-X,X-X,X-X,X-X,X-X,X,X-X,X-X,X-X,X-X",
"-X,X-X,X-X,X-X,X,X-X,X-X,X-X,X-X,X-X,X-X,X-X,X-X-X,Xu u u u u +.*.*.*.*.*.z z z g 0 q -X,X-X,X-X,X-X,X-X,X-X,X-X-X,X-X,X-X,X-X,X",
",X-X,X-X,X-X,X-X-X,X-X,X-X,X-X,X-X,X-X,X-X,X-X,X,X-X,X-X,Xh.u u u u $.*.*.l z 0 q 0 -X,X-X,X-X,X-X,X-X,X-X,X-X,X,X-X,X-X,X-X,X-X",
"-X,X-X,X-X,X-X,X,X-X,X-X,X-X,X-X,X-X,X-X,X-X,X-X-X,X-X,X-X>X-X,Xx.u u u u g 0 y _.-X,X-X,X-X,X-X,X-X,X-X,X-X,X-X-X,X-X,X-X,X-X,X",
",X-X,X-X,X-X,X-X-X,X-X,X-X,X-X,X-X,X-X,X-X,X-X,X,X-X,X-X,X-X,X-X,X-X,Xu u 0 0 -X-X,X-X,X-X,X-X,X-X,X-X,X-X,X-X,X,X-X,X-X,X-X,X-X",
"-X,X-X,X-X,X-X,X,X-X,X-X,X-X,X-X,X-X,X-X,X-X,X-X-X,X-X,X-X,X-X,X-X,X-X,X-X,X-X,X,X-X,X-X,X-X,X-X,X-X,X-X,X-X,X-X-X,X-X,X-X,X-X,X",
",X-X,X-X,X-X,X-X-X,X-X,X-X,X-X,X-X,X-X,X-X,X-X,X,X-X,X-X,X-X,X-X,X-X,X-X,X-X,X-X-X,X-X,X-X,X-X,X-X,X-X,X-X,X-X,X,X-X,X-X,X-X,X-X",
"-X,X-X,X-X,X-X,X,X-X,X-X,X-X,X-X,X-X,X-X,X-X,X-X-X,X-X,X-X,X-X,X-X,X-X,X-X,X-X,X,X-X,X-X,X-X,X-X,X-X,X-X,X-X,X-X-X,X-X,X-X,X-X,X"
};
