/* XPM */
static char *result[] = {
/* columns rows colors chars-per-pixel */
"32 32 89 1 ",
"  c #663C1E",
". c #563526",
"X c #593627",
"o c #5A3728",
"O c #5D3929",
"+ c #653C23",
"@ c #653E2D",
"# c #693F2B",
"$ c #7D470F",
"% c #7F480E",
"& c #6F4019",
"* c #754315",
"= c #7B4611",
"- c #7E4813",
"; c #75441B",
": c #79471C",
"> c #6C4027",
", c #67412D",
"< c #6B412D",
"1 c #724422",
"2 c #7E4D29",
"3 c #6E4331",
"4 c #714532",
"5 c #764A33",
"6 c #784C34",
"7 c #864B03",
"8 c #8A4D06",
"9 c #854B0D",
"0 c #8B4E0C",
"q c #8F510C",
"w c #91530E",
"e c #814912",
"r c #8E5114",
"t c #8F5219",
"y c #955713",
"u c #975814",
"i c #9C5B16",
"p c #905319",
"a c #9D5E1A",
"s c #A2621F",
"d c #925524",
"f c #94572A",
"g c #95582B",
"h c #835537",
"j c #8E5530",
"k c #865739",
"l c #8B553E",
"z c #8C5B3B",
"x c #935B3D",
"c c #9A5D3D",
"v c #A56522",
"b c #AB6925",
"n c #AE6D2A",
"m c #B06C25",
"M c #B06E2B",
"N c #B3712F",
"B c #A16837",
"V c #A76D3D",
"C c #B97635",
"Z c #BF7B3B",
"A c #C37E3D",
"S c #905740",
"D c #935941",
"F c #9A5E40",
"G c #9B6640",
"H c #9E6841",
"J c #A06A42",
"K c #AA7046",
"L c #B17548",
"P c #B4794A",
"I c #B97C4B",
"U c #BE804E",
"Y c #CA8646",
"T c #C3834F",
"R c #CF894A",
"E c #D48A41",
"W c #C88651",
"Q c #D79152",
"! c #DA9354",
"~ c #DC9559",
"^ c #DF985A",
"/ c #E39A5B",
"( c #E99E5D",
") c #ECA15F",
"_ c #EFA260",
"` c #F2A561",
"' c #F7A863",
"] c #FBAC65",
"[ c None",
/* pixels */
"[[[[[[[[[[[[[[[[[[[[[[[[[[[[[[[[",
"[[[[[[[[[[[[[[[[[[[[[[[[[[[[[[[[",
"[[[[[[[[[[[[[[[[[[[[[[[[[[[[[[[[",
"[[[[[[[[[[[[[[[[[[[[[[[[[[[[[[[[",
"[[[[[[[[[[[[[[[[pppppt[[[[[[[[[[",
"[[[[[[[[[[[[0rrtxxxDDj99e[[[[[[[",
"[[[[[[[[[[00dFDx4@33@##@>e[[[[[[",
"[[[[[[[[[0fcFS43@@@@@@##@+-[[[[[",
"[[[[[[[[0gFl54@@@O@@@,@@@OBb[[[[",
"[[[[[[[0dFl3@@@@@.@#@@@@@OPn7[[[",
"[[[[[[[dFl4@@@@@@kh+@#@@@OPAs[[[",
"[[[[[[rFS3@@@@@6h~m1@@@@@oP/C8[[",
"[[[[[[pD3@@@@@k(`'b;@@,@o@I/C7[[",
"[[[[[tFD3@@@@z(][[w;@@@@@W/^C7[[",
"[[[[[tD5,@@Oz/][[7:#@@@oO~(^C8[[",
"[[[[=16@@@@OJ][[[0;@@@@,L_(/C8[[",
"[[[8*O@@@@@hU[[[[->@,@O3)`/Yn[[[",
"[[[8*O@@@@oKE[[-e>@@,OOx_/^n7[[[",
"[[[8*O@@@@@:99->@@@@OOz_]/Qb[[[[",
"[[[8*oO@@@@@>>>@@@@@oz_]]^b[[[[[",
"[[[8*Xo@@@@@@@@@@OOoz(]])~v[[[[[",
"[[[[%&XO@O@@@@OOoXJW^]'(!Ni[[[[[",
"[[[[[=ooXXO+@X.@HK/]'_)!Cy[[[[[[",
"[[[[[$ .....<zzH`]]'_^QZw[[[[[[[",
"[[[[[[9+2552L'']'``)!RAw[[[[[[[[",
"[[[[[[[y!(/)'']`/!!!Cqq[[[[[[[[[",
"[[[[[[[[aaiA//~/!vuiy[[[[[[[[[[[",
"[[[[[[[[[[[avsssv[[[[[[[[[[[[[[[",
"[[[[[[[[[[[[[[[[[[[[[[[[[[[[[[[[",
"[[[[[[[[[[[[[[[[[[[[[[[[[[[[[[[[",
"[[[[[[[[[[[[[[[[[[[[[[[[[[[[[[[[",
"[[[[[[[[[[[[[[[[[[[[[[[[[[[[[[[["
};
