/* XPM */
static char *result[] = {
/* columns rows colors chars-per-pixel */
"32 32 90 1 ",
"  c #663C1E",
". c #563526",
"X c #593627",
"o c #5A3728",
"O c #5D3929",
"+ c #653C23",
"@ c #653E2D",
"# c #693F2B",
"$ c #7D470F",
"% c #6F4019",
"& c #754315",
"* c #7A4611",
"= c #7E4813",
"- c #75441B",
"; c #79471C",
": c #6C4027",
"> c #67412D",
", c #6B412D",
"< c #724422",
"1 c #7E4D29",
"2 c #6E4331",
"3 c #714532",
"4 c #764A33",
"5 c #784C34",
"6 c #874A04",
"7 c #8A4D06",
"8 c #80470D",
"9 c #844B0D",
"0 c #8B4E0B",
"q c #8F510C",
"w c #90530E",
"e c #814912",
"r c #8E5114",
"t c #8F5219",
"y c #955714",
"u c #975814",
"i c #9C5B16",
"p c #905319",
"a c #9C5E1A",
"s c #9F601C",
"d c #A2621F",
"f c #925524",
"g c #94572A",
"h c #95582B",
"j c #835537",
"k c #8E5530",
"l c #865739",
"z c #8B553E",
"x c #8C5B3B",
"c c #935B3D",
"v c #9A5D3D",
"b c #A56522",
"n c #AA6925",
"m c #AE6D2A",
"M c #B06C25",
"N c #B06E2B",
"B c #B3712F",
"V c #A16837",
"C c #A76D3D",
"Z c #B97635",
"A c #BF7B3B",
"S c #C37E3D",
"D c #905740",
"F c #935941",
"G c #9A5E40",
"H c #9B6640",
"J c #9E6841",
"K c #A06A42",
"L c #AA7046",
"P c #B17548",
"I c #B4794A",
"U c #B97C4B",
"Y c #BE804E",
"T c #CA8646",
"R c #C3834F",
"E c #CF894A",
"W c #D48A41",
"Q c #C88651",
"! c #D79152",
"~ c #DA9354",
"^ c #DC9559",
"/ c #DF985A",
"( c #E39A5B",
") c #E99E5D",
"_ c #ECA15F",
"` c #EFA260",
"' c #F2A561",
"] c #F7A863",
"[ c #FBAC65",
"{ c None",
/* pixels */
"{{{{{{{{{{{{{{{{{{{{{{{{{{{{{{{{",
"{{{{{{{{{{{{{{{{{{{{{{{{{{{{{{{{",
"{{{{{{{{{{{{{{{{{{{{{{{{{{{{{{{{",
"{{{{{{{{{{{{{{{{{{{{{{{{{{{{{{{{",
"{{{{{{{{{{pppppt{{{{{{{{{{{{{{{{",
"{{{{{{{99egFFDcctrr0{{{{{{{{{{{{",
"{{{{{{=:###2#2,3ccGf00{{{{{{{{{{",
"{{{{{*+@@@@@@@@@23zGvh0{{{{{{{{{",
"{{{{nVO@@@@@@@O@@@34zGh9{{{{{{{{",
"{{{6mIO@@@@@@@X@@@@@3zvg0{{{{{{{",
"{{{sAIO@@@>@:1l@@@@@@3DGf{{{{{{{",
"{{7Z(Io@@@@@-n(j4@@@@@3DGr{{{{{{",
"{{7Z(I>O@@@@<n]')l@@@@@3Fp{{{{{{",
"{{7Z/(QO@@@@;w{{[)l@@@@#Fvt{{{{{",
"{{7Z/)^@O@@@#;6{{[/x@@@@4Fp{{{{{",
"{{7Z/)`P>@@@@<7{{{[KO@@@@5<*{{{{",
"{{{nT('_,O@@@:={{{{Rj@@@@@o&7{{{",
"{{{6m^)_xO@@@@,ee{{WCO@@@@O&7{{{",
"{{{{n!)]'xOO@@@@#e99;@@@@@O&7{{{",
"{{{{{n(][_xX@@@@@#,,##@@@Oo&7{{{",
"{{{{{b^)[[(cooO@@@@@@@@#>oX&7{{{",
"{{{{{iB^)][/QKoo@O@@@@OOOo%8{{{{",
"{{{{{{uZ~__[[(LJO.XO@oXXXX={{{{{",
"{{{{{{{wA~/_[[[`Hxx3....X ${{{{{",
"{{{{{{{{qSE!)]]][][P4541+8{{{{{{",
"{{{{{{{{{wqZ~~~(][]])()~y{{{{{{{",
"{{{{{{{{{{{uuub~((((Siaa{{{{{{{{",
"{{{{{{{{{{{{{{{bdddda{{{{{{{{{{{",
"{{{{{{{{{{{{{{{{{{{{{{{{{{{{{{{{",
"{{{{{{{{{{{{{{{{{{{{{{{{{{{{{{{{",
"{{{{{{{{{{{{{{{{{{{{{{{{{{{{{{{{",
"{{{{{{{{{{{{{{{{{{{{{{{{{{{{{{{{"
};
