/* XPM */
static char *result[] = {
/* columns rows colors chars-per-pixel */
"48 48 115 2 ",
"   c #673D1E",
".  c #553326",
"X  c #593627",
"o  c #5C3825",
"O  c #573529",
"+  c #5A3728",
"@  c #5D3929",
"#  c #613A22",
"$  c #653E2D",
"%  c #693F2B",
"&  c #623C30",
"*  c #6D401B",
"=  c #754416",
"-  c #7B4612",
";  c #7E4914",
":  c #74431B",
">  c #79461B",
",  c #7D491A",
"<  c #6D4125",
"1  c #6A412D",
"2  c #714222",
"3  c #794C2E",
"4  c #6B4130",
"5  c #724632",
"6  c #724830",
"7  c #7A4A36",
"8  c #7F4E38",
"9  c #7D5135",
"0  c #834701",
"q  c #864A04",
"w  c #8B4D06",
"e  c #844A0E",
"r  c #8B4E09",
"t  c #904F06",
"y  c #8E5006",
"u  c #8E500A",
"i  c #925106",
"p  c #92530C",
"a  c #844C10",
"s  c #8E5115",
"d  c #8F5118",
"f  c #915315",
"g  c #955810",
"h  c #9E5C16",
"j  c #93551C",
"k  c #9D5D19",
"l  c #A15F19",
"z  c #9F601B",
"x  c #A3621C",
"c  c #AB671E",
"v  c #8B532F",
"b  c #945726",
"n  c #975826",
"m  c #945628",
"M  c #96592C",
"N  c #814F39",
"B  c #815336",
"V  c #8F5C32",
"C  c #845339",
"Z  c #8C563D",
"A  c #875838",
"S  c #8D5B3B",
"D  c #995B32",
"F  c #90573E",
"G  c #9A5D3A",
"H  c #93603E",
"J  c #9A653F",
"K  c #AD6A27",
"L  c #AE6B29",
"P  c #B3712E",
"I  c #A66A36",
"U  c #A0673B",
"Y  c #B67432",
"T  c #BD7936",
"R  c #BF7B3C",
"E  c #905740",
"W  c #925941",
"Q  c #9C5E43",
"!  c #9D6145",
"~  c #9F6941",
"^  c #9F614A",
"/  c #A56D44",
"(  c #AB7347",
")  c #AD7449",
"_  c #B1774A",
"`  c #B77B4A",
"'  c #C5803E",
"]  c #CC833B",
"[  c #C68140",
"{  c #C98444",
"}  c #CF8A47",
"|  c #C1804E",
" . c #CD8849",
".. c #D28C4D",
"X. c #C58551",
"o. c #CC8B53",
"O. c #D38F55",
"+. c #D79152",
"@. c #DA9455",
"#. c #D39358",
"$. c #DE9759",
"%. c #DF985B",
"&. c #E0954A",
"*. c #E39B5C",
"=. c #E99E5E",
"-. c #EDA15F",
";. c #F5A95F",
":. c #E59C60",
">. c #EEA360",
",. c #F3A662",
"<. c #F6A963",
"1. c #FCAD65",
"2. c #FFB167",
"3. c #FEB269",
"4. c None",
/* pixels */
"4.4.4.4.4.4.4.4.4.4.4.4.4.4.4.4.4.4.4.4.4.4.4.4.4.4.4.4.4.4.4.4.4.4.4.4.4.4.4.4.4.4.4.4.4.4.4.4.",
"4.4.4.4.4.4.4.4.4.4.4.4.4.4.4.4.4.4.4.4.4.4.4.4.4.4.4.4.4.4.4.4.4.4.4.4.4.4.4.4.4.4.4.4.4.4.4.4.",
"4.4.4.4.4.4.4.4.4.4.4.4.4.4.4.4.4.4.4.4.4.4.4.4.4.4.4.4.4.4.4.4.4.4.4.4.4.4.4.4.4.4.4.4.4.4.4.4.",
"4.4.4.4.4.4.4.4.4.4.4.4.4.4.4.4.4.4.4.4.4.4.4.4.4.4.4.4.4.4.4.4.4.4.4.4.4.4.4.4.4.4.4.4.4.4.4.4.",
"4.4.4.4.4.4.4.4.4.4.4.4.4.4.4.4.4.4.4.4.4.4.4.4.4.4.4.4.4.4.4.4.4.4.4.4.4.4.4.4.4.4.4.4.4.4.4.4.",
"4.4.4.4.4.4.4.4.4.4.4.4.4.4.4.r i w r r w r r r 4.4.4.4.4.4.4.4.4.4.4.4.4.4.4.4.4.4.4.4.4.4.4.4.",
"4.4.4.4.4.4.4.4.4.4.4.4.4.4.4.r i r r r r r r r 4.4.4.4.4.4.4.4.4.4.4.4.4.4.4.4.4.4.4.4.4.4.4.4.",
"4.4.4.4.4.4.4.4.4.4.w i w w w M G G G G G G G D w w w w w 4.4.4.4.4.4.4.4.4.4.4.4.4.4.4.4.4.4.4.",
"4.4.4.4.4.4.4.4.4.4.a a a a a v W E E E F E F F d d f f d 4.4.4.4.4.4.4.4.4.4.4.4.4.4.4.4.4.4.4.",
"4.4.4.4.4.4.4.4.4.i 2 1 < 1 $ 1 4 4 4 4 % 1 1 5 Q J Q Q G w w i 4.4.4.4.4.4.4.4.4.4.4.4.4.4.4.4.",
"4.4.4.4.4.4.4.4.- = < $ $ $ $ $ $ $ $ $ & $ $ 4 N N N Q Q b b n f 4.4.4.4.4.4.4.4.4.4.4.4.4.4.4.",
"4.4.4.4.4.4.4.i = X $ $ $ $ $ $ $ $ 1 $ $ $ $ $ 1 1 1 F Q Q Q G n w 4.4.4.4.4.4.4.4.4.4.4.4.4.4.",
"4.4.4.4.4.q h ' V . $ $ $ $ $ $ $ $ $ % $ @ $ $ $ $ $ 7 7 7 C Q G m r 4.4.4.4.4.4.4.4.4.4.4.4.4.",
"4.4.4.4.4.q h $.J . $ $ $ $ $ $ $ $ % % @ + $ $ $ $ $ 4 4 1 7 Q Q G j r 4.4.4.4.4.4.4.4.4.4.4.4.",
"4.4.4.4.4.q h *./ . $ $ $ $ $ $ & % & % @ . $ $ $ $ & $ % & % 7 E ! D b i 4.4.4.4.4.4.4.4.4.4.4.",
"4.4.4.4.4.k L *.J . $ $ $ $ $ $ % % $ < 3 B $ $ $ $ % & % % & & N E Q G f f 4.4.4.4.4.4.4.4.4.4.",
"4.4.4.w r T { *.J . $ $ $ $ $ $ & $ < - I o.4 X @ @ $ $ 1 $ $ $ 5 7 Q Q D j w 4.4.4.4.4.4.4.4.4.",
"4.4.4.r i ..*.*.J . $ $ 1 $ $ $ 4 & 2 q ] 3.! 9 9 6 @ 1 $ $ $ $ $ $ E E Q m w 4.4.4.4.4.4.4.4.4.",
"4.4.4.w r ..*.*.J . @ @ $ $ $ $ $ $ 2 q ] 3.>.=.>./ O 1 $ $ $ $ & $ % 7 ^ b w 4.4.4.4.4.4.4.4.4.",
"4.4.4.r r ..$.*.` A $ @ $ $ $ $ $ $ 2 q T 3.1.1.3.X.A 1 @ $ 1 $ % $ & 5 ^ D d 4.4.4.4.4.4.4.4.4.",
"4.4.4.w r ..*.$.-.2.B X $ $ $ $ $ % 2 p 4.4.4.4.2.3.2.C . $ 1 $ $ $ $ 7 ! Q Q d w 4.4.4.4.4.4.4.",
"4.4.4.r r ..$.$.-.1.9 . @ $ $ $ 1 & < 2 ; i 4.4.4.1.3.X./ $ @ $ & $ $ % N E ! d w 4.4.4.4.4.4.4.",
"4.4.4.w r ..*.$.-.1.A @ X @ $ $ $ $ $ & , t 4.4.4.4.3.3.<.@ @ 4 $ % $ $ & N Q d w 4.4.4.4.4.4.4.",
"4.4.4.r u ..*.$.-.1.=.o.@ @ $ $ $ $ % & , w 4.4.4.4.4.2.<.@ O $ $ $ $ % % $ 5 #   w w 4.4.4.4.4.",
"4.4.4.w r [ ..*.=.<.1.=.$ @ $ $ $ $ & % > e 4.4.4.4.4.2.,.B 5 $ $ $ $ $ $ $ $ + # w w 4.4.4.4.4.",
"4.4.4.4.4.r l $.$.*.<.=.X . . $ $ $ 1 $ $ % e w w y 4.4.4.<.X.. $ $ $ $ $ & $ @ o r r 4.4.4.4.4.",
"4.4.4.4.4.q k $.$.$.,.;./ C X @ $ $ $ $ $ $ > > , ; 4.4.g ] I O $ $ & % $ $ $ @ # w r 4.4.4.4.4.",
"4.4.4.4.4.q h *.$.*.,.1.3.| . X X $ $ $ $ $ $ $ $ > i i w w - $ 1 & % % $ $ 1 @ o r w 4.4.4.4.4.",
"4.4.4.4.4.4.4.x R %.,.1.1.=.o.7 . + $ $ $ $ $ $ $ < 2 2 2 2 2 $ $ $ $ $ 1 @ @ + # w w 4.4.4.4.4.",
"4.4.4.4.4.4.4.q P *.,.<.1.1.1./ 1 @ X $ $ $ $ $ $ $ 1 & $ $ % $ $ $ $ $ $ @ X X # w r 4.4.4.4.4.",
"4.4.4.4.4.4.4.w P =.*.=.1.1.1.=.o.$ . . . @ $ $ $ $ $ $ $ $ & $ $ $ $ $ $ $ X O # t w 4.4.4.4.4.",
"4.4.4.4.4.4.4.q K ' +.*.-.<.1.1.<.J S S 5 . $ $ $ $ $ $ % $ & % $ @ $ @ $ + X # : r w 4.4.4.4.4.",
"4.4.4.4.4.4.4.4.h x  .*.*.-.1.1.<.@.O.#.S . @ @ @ X @ $ 1 1 @ 1 @ + @ @ @ @ X = ; 4.4.4.4.4.4.4.",
"4.4.4.4.4.4.4.4.4.w P { $.*.,.,.,.1.2.3.X.S J F X X X @ @ @ @ 1 @ O O X X X X e y 4.4.4.4.4.4.4.",
"4.4.4.4.4.4.4.4.4.4.p l ..$.*.*.*.,.1.1.,.=.>.O.$ 1 $ $ 1 X X X X + X X X X o a y 4.4.4.4.4.4.4.",
"4.4.4.4.4.4.4.4.4.4.4.g T  .$.$.*.,.,.1.2.2.2.:.H H S H S @ . . O . X . X   * a w 4.4.4.4.4.4.4.",
"4.4.4.4.4.4.4.4.4.4.4.4.w K @.+.+.$.=.<.<.<.<.<.<.<.<.1.-.1 $ < 1 1 1 # o = i 4.4.4.4.4.4.4.4.4.",
"4.4.4.4.4.4.4.4.4.4.4.4.4.x Y Y Y +.*.=.>.>.>.>.1.1.1.2.<._ ( ( / / _ J = ; 4.4.4.4.4.4.4.4.4.4.",
"4.4.4.4.4.4.4.4.4.4.4.4.4.4.w q r O.+.+.+.+.$.*.1.1.1.1.1.2.1.;.;.;.<.&.y 4.4.4.4.4.4.4.4.4.4.4.",
"4.4.4.4.4.4.4.4.4.4.4.4.4.4.4.4.4.k x k x l ..*.*.*.*.*.*.=.} x c c c z 4.4.4.4.4.4.4.4.4.4.4.4.",
"4.4.4.4.4.4.4.4.4.4.4.4.4.4.4.4.4.q w w q q [ .. . . . . ...Y 0 q q w q 4.4.4.4.4.4.4.4.4.4.4.4.",
"4.4.4.4.4.4.4.4.4.4.4.4.4.4.4.4.4.4.4.4.4.4.r u r u r r u p u 4.4.4.4.4.4.4.4.4.4.4.4.4.4.4.4.4.",
"4.4.4.4.4.4.4.4.4.4.4.4.4.4.4.4.4.4.4.4.4.4.r w r w w r w y r 4.4.4.4.4.4.4.4.4.4.4.4.4.4.4.4.4.",
"4.4.4.4.4.4.4.4.4.4.4.4.4.4.4.4.4.4.4.4.4.4.4.4.4.4.4.4.4.4.4.4.4.4.4.4.4.4.4.4.4.4.4.4.4.4.4.4.",
"4.4.4.4.4.4.4.4.4.4.4.4.4.4.4.4.4.4.4.4.4.4.4.4.4.4.4.4.4.4.4.4.4.4.4.4.4.4.4.4.4.4.4.4.4.4.4.4.",
"4.4.4.4.4.4.4.4.4.4.4.4.4.4.4.4.4.4.4.4.4.4.4.4.4.4.4.4.4.4.4.4.4.4.4.4.4.4.4.4.4.4.4.4.4.4.4.4.",
"4.4.4.4.4.4.4.4.4.4.4.4.4.4.4.4.4.4.4.4.4.4.4.4.4.4.4.4.4.4.4.4.4.4.4.4.4.4.4.4.4.4.4.4.4.4.4.4.",
"4.4.4.4.4.4.4.4.4.4.4.4.4.4.4.4.4.4.4.4.4.4.4.4.4.4.4.4.4.4.4.4.4.4.4.4.4.4.4.4.4.4.4.4.4.4.4.4."
};
