/* XPM */
static char *result[] = {
/* columns rows colors chars-per-pixel */
"32 32 80 1 ",
"  c #161F1D",
". c #1F231F",
"X c #1D2322",
"o c #202421",
"O c #242926",
"+ c #282B27",
"@ c #292B2A",
"# c #2C322D",
"$ c #2D3332",
"% c #333533",
"& c #353936",
"* c #363C39",
"= c #3B3D3B",
"- c #3C413D",
"; c #41423E",
": c #3F4240",
"> c #424542",
", c #4A4544",
"< c #454B45",
"1 c #4A4C46",
"2 c #474C49",
"3 c #4B4F4C",
"4 c #4E514D",
"5 c #52524E",
"6 c #4F5352",
"7 c #535652",
"8 c #5B5653",
"9 c #565954",
"0 c #5B5B56",
"q c #5C5D5A",
"w c #625D5B",
"e c #5B605C",
"r c #62635E",
"t c #69635F",
"y c #646562",
"u c #6A6663",
"i c #6D6A65",
"p c #656C68",
"a c #6C6D69",
"s c #746C6A",
"d c #6E716B",
"f c #73726D",
"g c #79716D",
"h c #757772",
"j c #7B7673",
"k c #757974",
"l c #7D7A74",
"z c #7C7E78",
"x c red",
"c c #817A76",
"v c #887A76",
"b c #827D7A",
"n c #8A7C79",
"m c #2C9740",
"M c #C9FF00",
"N c #838277",
"B c #85827C",
"V c #89847E",
"C c #5800FF",
"Z c #FF00BA",
"A c #848580",
"S c #8C8681",
"D c #868883",
"F c #8D8A84",
"G c #8D8E88",
"H c #968683",
"J c #928C85",
"K c #938E89",
"L c #988E8A",
"P c #8F908A",
"I c #95928B",
"U c #9A938D",
"Y c #9C9690",
"T c #9C9993",
"R c #9F9F98",
"E c #A08F89",
"W c #A3918B",
"Q c #A09B94",
"! c #A3A29B",
"~ c white",
/* pixels */
"xxxxxxxxxxxxxxxxxxxxxxxxxxxxxxxx",
"xZZZZZZZZZZZZZZZZZZZZZZZZZZZZZZx",
"xZCCCCCCCCCCCCCCCCCCCCCCCCCCCCZx",
"xZCMMMMMMMMMMMMMMMMMMMMMMMMMMCZx",
"xZCMmmmmmmmmmmmmmmmmmmmmmmmmMCZx",
"xZCMm~~~~~~~~~~~~~~~~~~~~~~mMCZx",
"xZCMm~bBzf-9iykp9:5glAcl3<~mMCZx",
"xZCMm~&=reyry2 *>%o>>#qwyr~mMCZx",
"xZCMm~u9FSIIIDqHUVsnb1SSKY~mMCZx",
"xZCMm~t5FFYRDhqvHYULl>NFIR~mMCZx",
"xZCMm~&X%$#-*%&0y997>X#%@*~mMCZx",
"xZCMm~y,1i*rhlNkz:-sa5;u,4~mMCZx",
"xZCMm~USJH7hKIRTTdsWYJHLur~mMCZx",
"xZCMm~SFBj-qffAky28lbKBb4<~mMCZx",
"xZCMm~&:qqqqe-.%*@.-;%0qe0~mMCZx",
"xZCMm~w8FSKIIB9VUNtcl<VVGI~mMCZx",
"xZCMm~u5JFRQGzrnLYUUc<NJI!~mMCZx",
"xZCMm~-+>*->=&&quyyq1O=-*<~mMCZx",
"xZCMm~0&-w%0aakhh*&ut>%w=<~mMCZx",
"xZCMm~LVSH9lKITIYssEUVVLut~mMCZx",
"xZCMm~KISl:rzlPAd6wnFUFV43~mMCZx",
"xZCMm~&,qq779:X$$Oo;>=9q97~mMCZx",
"xZCMm~w5FNJGGz4nKl0ss>BNFK~mMCZx",
"xZCMm~u7JIT!IBynLUUUn<BIU!~mMCZx",
"xZCMm~>#4>37>*&tafsy5@<<<7~mMCZx",
"xZCMm~7@%5+3ryaad%$q9=+5%-~mMCZx",
"xZCMm~~~~~~~~~~~~~~~~~~~~~~mMCZx",
"xZCMmmmmmmmmmmmmmmmmmmmmmmmmMCZx",
"xZCMMMMMMMMMMMMMMMMMMMMMMMMMMCZx",
"xZCCCCCCCCCCCCCCCCCCCCCCCCCCCCZx",
"xZZZZZZZZZZZZZZZZZZZZZZZZZZZZZZx",
"xxxxxxxxxxxxxxxxxxxxxxxxxxxxxxxx"
};
