/* XPM */
static char *result[] = {
/* columns rows colors chars-per-pixel */
"64 64 135 2 ",
"   c #161223",
".  c #191526",
"X  c #1F1827",
"o  c #191628",
"O  c #1C1A2D",
"+  c #1E1C30",
"@  c #201827",
"#  c #251B29",
"$  c #2C1E2A",
"%  c #211F30",
"&  c #2E222D",
"*  c #33242C",
"=  c #3C252D",
"-  c #33282F",
";  c #3E292F",
":  c #242235",
">  c #24253C",
",  c #282739",
"<  c #2C2B3D",
"1  c #352930",
"2  c #3D2A31",
"3  c #442A2F",
"4  c #462C31",
"5  c #492E31",
"6  c #423135",
"7  c #4D3235",
"8  c #523535",
"9  c #5A3936",
"0  c #51353A",
"q  c #5D3C3B",
"w  c #603635",
"e  c #6D3E39",
"r  c #733D39",
"t  c #5A423D",
"y  c #67433C",
"u  c #6E413A",
"i  c #74433B",
"p  c #7B443B",
"a  c #794A3E",
"s  c #262941",
"d  c #292D45",
"f  c #2C324B",
"g  c #333446",
"h  c #37394C",
"j  c #393B4E",
"k  c #2F3551",
"l  c #323856",
"z  c #3D3F53",
"x  c #353D5A",
"c  c #383F59",
"v  c #403A49",
"b  c #3B425D",
"n  c #3C4565",
"m  c #3F4967",
"M  c #3E4768",
"N  c #3F4868",
"B  c #43465A",
"V  c #464A5F",
"C  c #745547",
"Z  c #404964",
"A  c #434D6C",
"S  c #4D5267",
"D  c #475069",
"F  c #4D5369",
"G  c #475373",
"H  c #4A5673",
"J  c #4B5778",
"K  c #4E5B7A",
"L  c #545C73",
"P  c #585F74",
"I  c #505E7E",
"U  c #56617C",
"Y  c #5C667E",
"T  c #834A3E",
"R  c #884D3F",
"E  c #845444",
"W  c #8D5544",
"Q  c #805E4C",
"!  c #935544",
"~  c #985845",
"^  c #965B48",
"/  c #9B5E49",
"(  c #9D614A",
")  c #9C6F56",
"_  c #A3634B",
"`  c #A9644B",
"'  c #AB6A4E",
"]  c #B26B4E",
"[  c #AE6F52",
"{  c #B26E50",
"}  c #B86F50",
"|  c #A87053",
" . c #A37658",
".. c #A97A5B",
"X. c #B67353",
"o. c #BB7252",
"O. c #BE7A57",
"+. c #C17956",
"@. c #C27E59",
"#. c #B5825F",
"$. c #BF815D",
"%. c #C3825C",
"&. c #C58760",
"*. c #C38D65",
"=. c #CD9367",
"-. c #CD9468",
";. c #D39769",
":. c #D49869",
">. c #566484",
",. c #5A6786",
"<. c #5C6886",
"1. c #5A6988",
"2. c #636D85",
"3. c #636F88",
"4. c #65718C",
"5. c #6A748B",
"6. c #657391",
"7. c #687794",
"8. c #6C7993",
"9. c #6E7E9A",
"0. c #727D94",
"q. c #707F9B",
"w. c #738097",
"e. c #73829C",
"r. c #79869E",
"t. c #7685A1",
"y. c #7B8BA4",
"u. c #7E8EA9",
"i. c #808DA5",
"p. c #808FA8",
"a. c #8493AD",
"s. c #8797B0",
"d. c #8B9BB4",
"f. c #8FA0B9",
"g. c None",
/* pixels */
"g.g.g.g.g.g.g.g.g.g.g.g.g.g.g.g.g.g.g.g.g.g.g.g.g.g.g.g.g.g.g.g.g.g.g.g.g.g.g.g.g.g.g.g.g.g.g.g.g.g.g.g.g.g.g.g.g.g.g.g.g.g.g.g.",
"g.g.g.g.g.g.g.g.g.g.g.g.g.g.g.g.g.g.g.g.g.g.g.g.g.g.g.g.g.g.g.g.g.g.g.g.g.g.g.g.g.g.g.g.g.g.g.g.g.g.g.g.g.g.g.g.g.g.g.g.g.g.g.g.",
"g.g.g.g.g.g.g.g.g.g.g.g.g.g.g.g.g.g.g.g.g.g.g.g.g.g.g.g.g.g.g.g.g.g.g.g.g.g.g.g.g.g.g.g.g.g.g.g.g.g.g.g.g.g.g.g.g.g.g.g.g.g.g.g.",
"g.g.g.g.g.g.g.g.g.g.g.g.g.g.g.g.g.g.g.g.g.g.g.g.g.g.g.g.g.g.g.g.g.g.g.g.g.g.g.g.g.g.g.g.g.g.g.g.g.g.g.g.g.g.g.g.g.g.g.g.g.g.g.g.",
"g.g.g.g.g.g.g.g.g.g.g.g.g.g.g.g.g.g.g.g.g.g.g.g.g.g.g.g.g.g.g.g.g.g.g.g.g.g.g.g.g.g.g.g.g.g.g.g.g.g.g.g.g.g.g.g.g.g.g.g.g.g.g.g.",
"g.g.g.g.g.g.g.g.g.g.g.g.g.g.g.g.g.g.g.g.g.g.g.g.g.g.g.g.g.g.g.g.g.g.g.g.g.g.g.g.g.g.g.g.g.g.g.g.g.g.g.g.g.g.g.g.g.g.g.g.g.g.g.g.",
"g.g.g.g.g.g.g.g.g.g.g.g.g.g.g.g.g.g.2 6 6 6 6 6 6 6 2 * g.g.g.g.g.g.g.g.g.g.& 2 6 6 6 6 6 6 6 4 * g.g.g.g.g.g.g.g.g.g.g.g.g.g.g.",
"g.g.g.g.g.g.g.g.g.g.1 1 # g.g.g.- q X.;.;.;.:.:.:.:.%.W 1 1 g.g.g.g.g.g.* - y O.;.;.;.;.;.:.:.%.E 1 1 g.g.X - - g.g.g.g.g.g.g.g.",
"g.g.g.g.g.g.g.g.g.& #.*.q & & C =.&.} } o.o.X.' ' X.] O.-...# . . . # # C :.%.' X.' X.o.o.} } } @.=. .* & 2 ..=.t g.g.g.g.g.g.g.",
"g.g.g.g.g.g.g.g.g.& ' O.q ) *.$.+.+.` T E _ 8 * - * a } O.( @ . . . C | ' O.E * * * ; ( } W p ~ o.+.@.*...7 _ +.0 g.g.g.g.g.g.g.",
"g.g.g.g.g.g.g.g.g.$ _ ] q _ %.O.} } _ r r ` 3 g.g.g.- ; ; = g.g.g.g.0 6 ; ; ; g.g.g.@ i ` R e ! } } o.@.| 8 / } 7 g.g.g.g.g.g.g.",
"g.g.g.g.g.g.g.g.g.$ _ ] q ^ o.] } } ` i r ` r $ g.g.g.g.g.g.g.g.g.g.g.g.g.g.g.g.g.$ a p ` R r ! o.} } o._ 5 / } 7 g.g.g.g.g.g.g.",
"g.g.g.g.g.g.g.g.g.& _ ^ = 5 9 9 9 9 8 = = 8 3 $ g.g.g.g.g.g.g.g.g.g.g.g.g.g.g.g.g.g.8 3 8 3 = 4 9 9 9 9 8 $ p ] 8 g.g.g.g.g.g.g.",
"g.g.g.g.g.g.g.g.g.# i w v :             .     g.g.g.g.g.g.g.g.g.g.g.g.g.g.g.g.g.g.g.  .   . .           O j 0 a ; g.g.g.g.g.g.g.",
"g.g.g.g.g.g.g.g.g.o < : 0.g.g.g.g.g.g.g.g.g.. g.g.g.g.g.g.g.g.g.g.g.g.g.g.g.g.g.g.g.. g.g.g.g.g.g.g.g.g.g.a.g < : g.g.g.g.g.g.g.",
"g.g.g.g.g.g.g.g.g.g w.g.g.g.g.g.g.g.g.g.g.g.. g.g.g.g.g.g.g.g.g.g.g.g.g.g.g.g.g.g.g.. g.g.g.g.g.g.g.g.g.g.g.g.a.V g.g.g.g.g.g.g.",
"g.g.g.g.g.g.g.g., w.g.g.g.g.g.g.g.g.g.g.g.g.. g.g.g.g.g.g.g.g.g.g.g.g.g.g.g.g.g.g.g.. g.g.g.g.g.g.g.g.g.g.g.g.g.a.B g.g.g.g.g.g.",
"g.g.g.g.g.g.g.g.: g.g.g.g.g.g.g.g.g.g.g.g.g.. g.g.g.g.g.g.g.g.g.g.g.g.g.g.g.g.g.g.g.. g.g.g.g.g.g.g.g.g.g.g.g.g.g., g.g.g.g.g.g.",
"g.g.g.g.g.g.g.< 5.g.g.g.g.d d d d d d d d d s O g.g.g.g.g.g.g.g.g.g.g.g.g.g.g.g.g.o , d d d d d d d d d d g.g.g.g.w.V g.g.g.g.g.",
"g.g.g.g.g.g.g.g a.g.g.s d <.8.8.8.8.8.8.8.8.8.g g.g.g.g.g.g.g.g.g.g.g.g.g.g.g.g.g.: 2.8.8.8.8.0.7.8.8.8.4.f s g.g.f.S   g.g.g.g.",
"g.g.g.g.g.g.g.d a.g.f Y 4.a.d.d.d.f.d.d.d.d.d.z g.g.g.g.g.g.g.g.g.g.g.g.g.g.g.g.g.: y.d.d.d.f.d.d.f.d.d.s.5.2.b g.d.S   g.g.g.g.",
"g.g.g.g.g.g.g.< y.g.D p.d.d.d.d.d.d.d.d.s.d.s.j g.g.g.g.g.g.g.g.g.g.g.g.g.g.g.g.g., i.d.d.d.d.d.d.d.d.d.d.d.d.,.c y.S   g.g.g.g.",
"g.g.g.g.g.g.g.< 4.c u.d.d.d.d.s.d.d.d.d.d.d.w.Z g.g.g.g.g.g.g.g.g.g.g.g.g.g.g.g.g., 5.a.d.d.d.d.d.d.d.d.d.d.d.d.A U V   g.g.g.g.",
"g.g.g.g.g.g.g.# c Z a.d.d.d.d.d.d.d.d.d.d.s.h U g., < B 0.g.g.g.g.g.g.g.5.L < V 0.g.: r.d.d.d.d.d.d.d.d.d.d.d.d.L b s   g.g.g.g.",
"g.g.g.g.g.g.g.O l y.s.d.d.d.d.d.d.d.d.d.d.a.B - , Y a.5.< , : : : , , : , L a.2.< : < r.d.d.d.d.d.d.d.d.d.d.d.d.a.L :   g.g.g.g.",
"g.g.g.g.g.g.g.+ A a.d.d.d.d.d.d.d.d.d.d.d.d.i.r.r.a.d.s.r.y.i.r.y.r.r.y.r.a.d.a.y.y.y.s.d.d.d.d.d.d.d.d.d.d.d.d.d.,.>   g.g.g.g.",
"g.g.g.g.g.g.g.+ A a.d.s.d.d.d.d.d.d.d.d.d.d.d.d.d.d.d.d.d.d.d.d.d.d.d.d.f.d.d.d.d.d.d.d.d.d.d.d.d.d.d.d.d.d.d.s.s.<.s   g.g.g.g.",
"g.g.g.g.g.g.g.+ A a.9.8.a.d.d.d.d.d.d.d.d.d.d.d.d.d.d.d.d.d.d.d.d.d.d.d.d.d.d.d.d.d.d.d.d.d.d.d.d.d.d.d.d.d.q.7.u.<.s   g.g.g.g.",
"g.g.g.g.g.g.g.+ N 7.y.y.s.d.d.d.d.d.d.d.d.d.d.d.d.d.d.d.d.d.d.d.d.d.d.d.d.d.d.d.d.d.d.d.d.d.d.d.d.d.d.d.d.s.u.y.e.J s   g.g.g.g.",
"g.g.g.g.g.g.g.+ N 7.s.d.d.d.d.d.d.d.d.d.d.d.d.d.d.d.d.d.d.d.d.d.d.d.d.d.d.d.d.d.d.d.d.d.d.d.d.d.d.d.d.d.d.d.d.d.t.J s . g.g.g.g.",
"g.g.g.g.g.g.g.+ A a.d.d.d.d.d.d.d.d.d.d.d.d.d.d.d.d.d.d.d.d.d.d.d.d.d.d.d.d.d.d.d.d.d.d.d.d.d.d.d.d.d.d.d.d.d.d.d.<.s   g.g.g.g.",
"g.g.g.g.g.g.g.+ A a.d.d.d.d.d.d.d.d.d.d.d.d.d.d.d.d.d.d.d.d.d.d.d.d.d.d.d.d.d.d.d.d.d.d.d.d.d.s.d.d.d.d.d.d.d.d.d.<.s   g.g.g.g.",
"g.g.g.g.g.g.g.+ G u.d.d.d.d.d.d.d.d.d.d.d.d.d.d.d.d.d.d.d.d.d.d.d.d.d.d.d.d.d.d.d.d.d.d.d.d.d.d.d.d.d.d.d.d.d.d.d.1.s   g.g.g.g.",
"g.g.g.g.g.g.g.+ N s.d.d.d.d.d.d.d.d.d.d.d.d.d.d.d.d.d.d.d.d.d.d.d.d.d.d.d.d.d.d.d.d.d.d.d.d.d.d.d.d.d.d.d.d.d.s.d.1.s   g.g.g.g.",
"g.g.g.g.g.g.g.+ G u.d.d.d.d.d.d.d.d.d.d.d.d.d.d.d.d.d.d.d.d.d.d.d.d.d.d.d.d.d.d.d.d.d.d.d.d.d.d.d.d.d.d.d.d.d.d.d.1.s   g.g.g.g.",
"g.g.g.g.g.g.g.+ A s.d.d.d.d.d.d.d.d.d.d.d.d.d.d.d.d.d.d.d.d.d.d.d.d.d.d.d.d.d.d.d.d.d.d.s.d.d.d.d.d.d.d.d.d.d.d.d.1.s   g.g.g.g.",
"g.g.g.g.g.g.g.+ A u.d.d.d.d.d.d.d.d.d.d.d.d.d.d.d.d.d.u.d.d.d.d.d.d.d.d.d.d.d.d.d.d.d.d.d.d.s.d.d.d.d.d.d.d.d.d.d.<.s   g.g.g.g.",
"g.g.g.g.g.g.g.+ A s.y.y.s.d.d.d.d.d.d.d.d.d.d.d.d.d.d.f.d.d.d.d.d.d.d.d.d.d.d.d.d.d.d.d.d.d.d.d.d.d.d.d.d.s.u.y.s.<.s   g.g.g.g.",
"g.g.g.g.g.g.g.+ N q.9.7.s.d.d.d.d.d.d.d.d.d.d.d.d.d.d.d.d.d.d.d.d.d.d.d.d.d.d.d.d.d.d.d.d.d.d.d.d.d.d.d.d.d.e.7.t.>.s   g.g.g.g.",
"g.g.g.g.g.g.g.+ M 6.s.d.d.d.d.d.d.d.d.d.d.d.d.d.d.d.d.d.d.d.d.d.d.d.d.d.d.d.d.d.d.d.d.d.d.d.d.d.d.d.d.d.d.d.s.d.q.J s   g.g.g.g.",
"g.g.g.g.g.g.g.+ N u.d.d.d.d.d.d.d.d.d.d.d.d.d.d.d.d.d.d.d.d.d.d.d.d.d.d.d.d.d.d.d.d.d.d.d.d.d.d.d.d.d.d.d.d.d.d.d.,.s   g.g.g.g.",
"g.g.g.g.g.g.g.+ G s.d.d.d.d.d.d.d.d.s.d.d.d.d.d.d.d.d.d.d.d.d.d.s.d.d.d.d.d.d.d.d.d.d.d.d.d.d.d.d.d.d.d.d.d.d.d.d.,.s   g.g.g.g.",
"g.g.g.g.g.g.g.+ N u.d.d.d.d.d.d.d.d.d.d.d.d.d.d.d.d.s.d.d.d.d.d.d.d.d.d.d.d.d.d.d.d.d.d.d.d.d.d.d.d.d.d.d.d.d.d.d.<.s   g.g.g.g.",
"g.g.g.g.g.g.g.+ M 6.s.d.d.d.d.d.d.d.d.d.d.d.d.d.d.d.f.d.d.d.d.d.d.d.d.d.d.d.d.d.d.d.d.d.d.d.d.d.d.d.d.d.d.d.d.d.q.J s   g.g.g.g.",
"g.g.g.g.g.g.g.+ M 1.u.d.d.d.d.f.d.d.d.d.d.d.d.d.f.d.d.d.d.d.d.d.d.d.d.d.d.d.d.d.d.d.d.d.d.d.d.d.d.d.d.d.d.d.d.d.8.G s   g.g.g.g.",
"g.g.g.g.g.g.g.+ M 1.t.d.d.d.d.f.d.d.d.f.d.d.d.d.f.f.d.d.d.d.d.s.d.d.d.d.d.d.d.d.d.d.d.d.d.d.d.d.d.d.d.d.d.d.d.u.6.H s   g.g.g.g.",
"g.g.g.g.g.g.g.+ M >.1.t.u.s.f.u.u.d.u.u.u.u.u.u.u.u.f.u.u.u.u.u.i.y.y.u.u.u.a.d.d.u.s.u.u.u.u.y.a.s.u.d.d.u.u.6.,.G s . g.g.g.g.",
"g.g.g.g.g.g.g.+ M 1.1.1.1.t.u.q.7.q.1.1.1.1.1.t.7.t.u.t.1.1.1.1.<.<.1.1.1.1.7.a.y.6.y.4.1.1.1.1.7.t.6.u.u.1.,.1.,.G s . g.g.g.g.",
"g.g.g.g.g.g.g.+ M >.1.1.1.1.1.1.1.1.1.1.1.1.1.1.1.1.1.1.1.1.1.1.1.1.1.1.1.1.1.1.1.1.1.1.1.1.1.1.1.1.1.1.1.1.1.1.1.G s   g.g.g.g.",
"g.g.g.g.g.g.g.+ n >.1.1.1.>.1.1.1.1.1.1.1.1.>.1.1.1.1.1.1.1.1.1.1.1.>.1.1.1.1.1.1.1.1.1.1.1.<.1.1.1.1.1.1.1.1.1.1.G s   g.g.g.g.",
"g.g.g.g.g.g.g.+ k >.1.1.1.1.1.1.1.>.1.1.1.1.1.1.1.1.1.1.>.1.1.1.1.1.1.1.1.1.1.1.1.1.1.1.1.1.1.1.1.1.1.1.1.1.1.1.>.n + g.g.g.g.g.",
"g.g.g.g.g.g.g.g.+ A >.1.1.1.1.1.1.1.1.1.1.1.1.1.1.1.1.1.1.1.1.1.1.1.1.1.1.1.1.1.1.1.1.,.1.1.1.1.1.1.1.1.,.1.1.1.J d o g.g.g.g.g.",
"g.g.g.g.g.g.g.g.O l >.1.1.1.1.1.1.1.1.1.1.1.1.1.1.1.1.1.>.1.>.1.1.1.1.1.1.1.>.1.1.1.1.1.1.1.1.1.1.1.1.1.1.>.1.1.N : g.g.g.g.g.g.",
"g.g.g.g.g.g.g.g.o > N J 1.1.1.1.>.>.1.1.1.1.1.>.1.1.>.>.1.1.>.>.1.1.1.1.1.1.1.1.1.1.1.1.1.1.1.1.1.1.1.>.1.1.I G f O g.g.g.g.g.g.",
"g.g.g.g.g.g.g.g.g.. > f A K K >.>.>.J >.>.K >.>.>.>.>.>.>.>.>.>.>.>.>.>.>.K K >.K >.K >.I I I I >.>.K >.>.G l s o g.g.g.g.g.g.g.",
"g.g.g.g.g.g.g.g.g.. $ $ > k l k l l k l l l l l k l k k l l k k k k k k l l l l k l l k l l l l k l l l k > % $ # g.g.g.g.g.g.g.",
"g.g.g.g.g.g.g.g.g.# u p = . . o o o o o o o o o o o o o o o o o     O o o o o o o o o o o o o o o o o o . $ e p = g.g.g.g.g.g.g.",
"g.g.g.g.g.g.g.g.g.$ ! / e $ . g.g.g.g.g.g.g.g.g.g.g.g.g.g.g.g.g.g.g.g.g.g.g.g.g.g.g.g.g.g.g.g.g.g.g.g.g.# 9 ! _ 4 g.g.g.g.g.g.g.",
"g.g.g.g.g.g.g.g.g.. & & $ . g.g.g.g.g.g.g.g.g.g.g.g.g.g.g.g.g.g.g.g.g.g.g.g.g.g.g.g.g.g.g.g.g.g.g.g.g.g.. # & & X g.g.g.g.g.g.g.",
"g.g.g.g.g.g.g.g.g.g.g.g.g.g.g.g.g.g.g.g.g.g.g.g.g.g.g.g.g.g.g.g.g.g.g.g.g.g.g.g.g.g.g.g.g.g.g.g.g.g.g.g.g.g.g.g.g.g.g.g.g.g.g.g.",
"g.g.g.g.g.g.g.g.g.g.g.g.g.g.g.g.g.g.g.g.g.g.g.g.g.g.g.g.g.g.g.g.g.g.g.g.g.g.g.g.g.g.g.g.g.g.g.g.g.g.g.g.g.g.g.g.g.g.g.g.g.g.g.g.",
"g.g.g.g.g.g.g.g.g.g.g.g.g.g.g.g.g.g.g.g.g.g.g.g.g.g.g.g.g.g.g.g.g.g.g.g.g.g.g.g.g.g.g.g.g.g.g.g.g.g.g.g.g.g.g.g.g.g.g.g.g.g.g.g.",
"g.g.g.g.g.g.g.g.g.g.g.g.g.g.g.g.g.g.g.g.g.g.g.g.g.g.g.g.g.g.g.g.g.g.g.g.g.g.g.g.g.g.g.g.g.g.g.g.g.g.g.g.g.g.g.g.g.g.g.g.g.g.g.g.",
"g.g.g.g.g.g.g.g.g.g.g.g.g.g.g.g.g.g.g.g.g.g.g.g.g.g.g.g.g.g.g.g.g.g.g.g.g.g.g.g.g.g.g.g.g.g.g.g.g.g.g.g.g.g.g.g.g.g.g.g.g.g.g.g."
};
