/* XPM */
static char *result[] = {
/* columns rows colors chars-per-pixel */
"48 48 227 2 ",
"   c #100B08",
".  c #18100E",
"X  c #171414",
"o  c #0E0906",
"O  c #231712",
"+  c #251A15",
"@  c #291C17",
"#  c #2A1E19",
"$  c #331F1A",
"%  c #2D211C",
"&  c #33221C",
"*  c #0A3E24",
"=  c #27282A",
"-  c #3D2821",
";  c #353639",
":  c #2F3F36",
">  c #491917",
",  c #591415",
"<  c #681618",
"1  c #771619",
"2  c #6F211F",
"3  c #442C24",
"4  c #4A2C23",
"5  c #552B24",
"6  c #4C3228",
"7  c #503327",
"8  c #5D3A2D",
"9  c #54352A",
"0  c #463A36",
"q  c #563E35",
"w  c #623B2C",
"e  c #79322A",
"r  c #653E30",
"t  c #663832",
"y  c #6D2624",
"u  c #124B2D",
"i  c #264832",
"p  c #54433D",
"a  c #5D4339",
"s  c #4F413D",
"d  c #654134",
"f  c #66453A",
"g  c #724D39",
"h  c #756E37",
"j  c #305C44",
"k  c #484647",
"l  c #574A47",
"z  c #445A4D",
"x  c #58514F",
"c  c #5B5655",
"v  c #4C5552",
"b  c #694D43",
"n  c #6B4C44",
"m  c #6B534A",
"M  c #6A5749",
"N  c #655858",
"B  c #74564E",
"V  c #50675E",
"C  c #506D59",
"Z  c #6A645E",
"A  c #76615B",
"S  c #5D5F60",
"D  c #587263",
"F  c #646868",
"G  c #786965",
"H  c #7A7978",
"J  c #6E7871",
"K  c #87191C",
"L  c #9D1018",
"P  c #A80C17",
"I  c #B90916",
"U  c #AE111A",
"Y  c #8B361C",
"T  c #8A351A",
"R  c #913A1D",
"E  c #9C2C18",
"W  c #AB251A",
"Q  c #901F21",
"!  c #893824",
"~  c #92322E",
"^  c #A3392B",
"/  c #BB2633",
"(  c #AE3837",
")  c #CB0514",
"_  c #C70A18",
"`  c #D50213",
"'  c #DA0012",
"]  c #D40916",
"[  c #D50C1B",
"{  c #DC091A",
"}  c #DB101F",
"|  c #E20013",
" . c #EA0A18",
".. c #FA1A18",
"X. c #ED0B19",
"o. c #FD271D",
"O. c #FD321E",
"+. c #EE201B",
"@. c #C91625",
"#. c #DA1323",
"$. c #DB1C2B",
"%. c #D51727",
"&. c #D80F20",
"*. c #E41522",
"=. c #D62333",
"-. c #DA2737",
";. c #D62E37",
":. c #EB2925",
">. c #EB382A",
",. c #FF3522",
"<. c #F53C2B",
"1. c #F63725",
"2. c #EE332D",
"3. c #994728",
"4. c #934D36",
"5. c #A44E29",
"6. c #A2542D",
"7. c #A75A38",
"8. c #B14538",
"9. c #B16C36",
"0. c #D65E3E",
"q. c #F74737",
"w. c #F04837",
"e. c #AD3741",
"r. c #D73B49",
"t. c #845651",
"y. c #945851",
"u. c #AB4F4C",
"i. c #896D5A",
"p. c #A76645",
"a. c #AC7759",
"s. c #B66750",
"d. c #B25C65",
"f. c #857877",
"g. c #946F71",
"h. c #BA666D",
"j. c #BA6A73",
"k. c #AA6F6D",
"l. c #C94148",
"z. c #D84749",
"x. c #C54D57",
"c. c #D74956",
"v. c #CF555E",
"b. c #E84542",
"n. c #E65749",
"m. c #F45749",
"M. c #F65343",
"N. c #DE655D",
"B. c #C7675A",
"V. c #D65C68",
"C. c #C25A64",
"Z. c #D8676A",
"A. c #D8736D",
"S. c #CB6E71",
"D. c #E66F67",
"F. c #A8873C",
"G. c #C9933A",
"H. c #C79237",
"J. c #C7833F",
"K. c #9D824F",
"L. c #B98957",
"P. c #93817E",
"I. c #AF8F73",
"U. c #C4964A",
"Y. c #C99356",
"T. c #CD8E51",
"R. c #C8A05F",
"E. c #D88478",
"W. c #C89A6C",
"Q. c #E2877F",
"!. c #C4A778",
"~. c #C2A26F",
"^. c #927E81",
"/. c #B57B82",
"(. c #D07983",
"). c #7D8283",
"_. c #878788",
"`. c #968686",
"'. c #8B9293",
"]. c #939496",
"[. c #9A979A",
"{. c #958F90",
"}. c #B1918F",
"|. c #9D9EA0",
" X c #B29CA2",
".X c #AF9EA3",
"XX c #A2A2A4",
"oX c #A5A6A9",
"OX c #AAAAAD",
"+X c #A9A5A9",
"@X c #B9A9A8",
"#X c #ABADB2",
"$X c #AFB0B5",
"%X c #AFB3B9",
"&X c #B3B5BA",
"*X c #B3B9BE",
"=X c #B6B6B7",
"-X c #B4AFB0",
";X c #B2A595",
":X c #D7868B",
">X c #D88993",
",X c #C99597",
"<X c #CC9091",
"1X c #C8A89C",
"2X c #CDB292",
"3X c #D79CA5",
"4X c #CC9BA2",
"5X c #C8A6A7",
"6X c #D4AEAD",
"7X c #C8B8B8",
"8X c #D1B2B6",
"9X c #BABCC2",
"0X c #AFBBC0",
"qX c #D4BDC3",
"wX c #C7C4C9",
"eX c #D3C4C9",
"rX c #CCCDD2",
"tX c #D2CDD2",
"yX c #D9CED4",
"uX c #CED4DB",
"iX c #D1D1D6",
"pX c #D4D5DA",
"aX c #D6D8DE",
"sX c #D8D9DE",
"dX c #D4DAE1",
"fX c #DADBE1",
"gX c None",
/* pixels */
"gXgXgXgXgXgXgXgXgXgXgXgXgXgXgXgXgXgXgXgXgXgXgXpXpXgXgXgXgXgXgXgXgXgXgXgXgXgXgXgXgXgXgXgXgXgXgXgX",
"gXgXgXgXgXgXgXgXpXsXsXsXaXsXaXaXaXsXpXqX3X:XV.=.$.V.:X6XqXsXpXtXwXwX0X9X*X&X%X&XgXgXgXgXgXgXgXgX",
"gXgXgXgXgXgXgXgXfXpXpXpXpXpXpXyX3XV.-.{ ' | ' ' | | | ' { -.V.,XqX0X%X&X%X+XXX+XOXgXgXgXgXgXgXgX",
"gXgXgXgXgXgXgXgXsXpXpXsXiXqX(.-.| | ' ' ' ' ' ' ' ' ' ' ' | | ' =.h.@X#X+X|.XXoXOXgXgXgXgXgXgXgX",
"gXgXgXgXgXgXgXgXsXpXpXpX>X$.| ' ' ' ' ' ' ' ' ' ' ' ' ' ' ' ' ' ' | %.j.|.|.XXoXOXgXgXgXgXgXgXgX",
"gXgXgXgXgXgXgXgXsXpX8Xr.| ' ' ' ' ' ' ' ' ' | | | ' ' ' ' ' ' ' ` ' ' | r.}.XXoXOXgXgXgXgXgXgXgX",
"gXgXgXgXgXgXgXgXfX3X$.' ' ' ' ' ' ' | ' #.-.r.c.c.r.-.&.' | ' ' ' ' ` ' ' &.k.OXOXgXgXgXgXgXgXgX",
"gXgXgXgXgXgXgXgX>X{ | ` ' ' ' | ' $.V.3XeXiXpXpXaXpXrXqX,Xv.$.' ' ' ' ' ' ' ] j.XXgXgXgXgXgXgXgX",
"gXgXgXgXgXgXgXc.| ' ' ' ' ' | -.>XyXfXfXsXpXaXaXpXpXpXpXiXrXeX(.$.| ' ' ' ` ' ' h.gXgXgXgXgXgXgX",
"gXgXgXgXgXgXgX' { ' ' ' ' ` ( N G N G N c x x x x x x x x x N c N ~ ' ' ' ' ' ' ' gXgXgXgXgXgXgX",
"gXgXgXgXgXgX' ' ' ' ' ' ) , $ $ @ O + O O + + + O + + + + X + + O > ) ' ` ' ' ' | ' gXgXgXgXgXgX",
"gXgXgXgXgX' | ' ' ' ' _ e 8 r r w 8 f n f 9 9 6 3 3 - 0 p q 3 & > ) ' ' ' ` ` ' ' | ' gXgXgXgXgX",
"gXgXgXgXgX| ' ' ' ' ) e r r r r f A `.I.A g d r r d r B i.A r e ) | ' ` ' ' ' ' ' ' ' gXgXgXgXgX",
"gXgXgXgX' ' ' ' ' ' e r r r r t d d f r r r r r r r r w t w e ' ' ' ' ' ' ` ' ' ' ' ' ' gXgXgXgX",
"gXgXgXgX| ' ' ' | W b r r r r f b m m n f 8 8 8 w w w 8 8 e ] ' ' ' ' ' ' < K | ' ' ' | gXgXgXgX",
"gXgXgX' ' ' ' ' _ m f r r r r r r f r t & % % & % % = & > ) | ' ' ' ' ' < % $ I ' ' ' ' ' gXgXgX",
"gXgXgX' ' ' ' | u.g w w w d w d r 8 w 4 + % + + % + # > ) | ' ' ' ' ' < # # # < | ' ' ' ' gXgXgX",
"gXgX' | ' ' ' =.wX[.P.f.A G A G G F x l p s s s 0 s t ) ' ' ' ' ' ' 2 0 0 0 0 a _ | ' ' | ' gXgX",
"gXgX' ' ' ` | V.dXdXsXsXaXaXaXuXpXdXuXiXrX@XeXpXuX6X#.' ' ' ' ' ' z.#X$X#X$X$X&Xx.| ' ` ' ' gXgX",
"gXgX` ' ' ' { 3XaXiXiXaXpXaXaXaXpXpXdXuXE.>.6XdX8X%.| ' ' ' ' ' X.A.0X&X&XoX[.0X}.' ` ' ' ' gXgX",
"gXgX' ' ' ' #.qXfXXXk v k ].:XA.iX1XA.E.w.O.N.<X#.' ' ' ` ' | b...A.%Xj.d.h.d.$X X{ ' ' ' ' gXgX",
"gXgX| ' ' | ;.pXfX'.  k . k M.q.yX:XO.n.1.1.>.{ | ' ' ' ' ' :.D.o.Z.v. .X. .l.{.f.@.' ' ' | gXgX",
"gX' | ' ' ' r.pXdX].= 0X; k m.q.eXE.O.E.m.O.} ' ' ' ' ' ' 2.1.D...b.*.r.j.$.l.'.H / ' ` ' | ' gX",
"gX' ' ' ' | c.pXfX].= 9X; l m.q.iXE.O.E.b. .' ' ' ' { | ;.w.1.N.o.2.X.h.%Xz.l.'.)./ | ' ' ' ' gX",
"gX' ' ' ' | c.aXfX_.= 9X; k m.O.A.n.O.A. .' ' ' ' ' ' :.A.w.q.N...c.*.;.x.X.r.^.J / | ' ' ' ' gX",
"gX' ' ' ' | r.sXfX'.k 9Xc N A.1.1.<.1.} ' ' ' ' ' ' ..n.,Xw.<.N...B.x. .X.X.l.^.)./ | ' ' ' ' gX",
"gXgX| ' ' ' $.*XsXoXS S J H d.k.6X,X} ' ' ' ' ' { S.6XeXrX8X5X1X,X@XwX,Xy.k.f.).H @.' ' ' | gXgX",
"gXgX' ' ' ' } .XpXrX*X*X&X%X+X=X8X#.' ' ' ' ' | :XaXdXaXiXdXpXpXpXiXaXsXD j J '.^.) ' ' ' ' gXgX",
"gXgX' ' ' ' ' 4XaXpXaXfXaXaXtX4X$.| ' ' ' ' ' :XsXsXdXpXiXpXpXpXpXpXpXiXV * V ).t.' ' ' ' ' gXgX",
"gXgX' ' ' ' | V.pXpXiXiX@XI.u.] | ' ' ' ' | ( a.a.}.@XtXpXpXpXpXpXpXsX@Xk V F ^.e.| ' ' | ' gXgX",
"gXgX' | ' ' ' $.rXpXrX@Xy.R ] ' ' ' ' ' | W 5.R R 5.7.7XdXiXpXpXpXpXsXV : v z _.@.' ' ' | ' gXgX",
"gXgXgX' ' ' ' | >XuXqXa.E { ' ` ' ' ' ' W s.9.Y T 5.5.;XdXdXpXpXpXsXyXH i v ).d.| ` ' ` ' gXgXgX",
"gXgXgX' ' ' ' ' -.wX+X8.] ' ' ' ' ' ' W Y 3.3.3.R Y T I.=X9XrXrXrXwX-Xz u j {.@.| ' ' ' ' gXgXgX",
"gXgXgXgX| ' ' ' | u.g.[ { ' ' ' ' ' W 5.Y R Y 3.R Y 9.L.U.K.D D D i.h u i Z u. .' ' ' | gXgXgXgX",
"gXgXgXgX' ' ' ' ' ] [ ' ' ' ' ' { W 6.p.p.3.! R T 6.H.H.H.F.j j i.7.4.g 4.^ { ' ' ` ' ' gXgXgXgX",
"gXgXgXgXgX' ' ' ' ' ' ' ' ' ' ' e.a.L.W.2X!.I.~.K.L.H.H.H.H.h i.p.6.3.3.^ ] | ' ' ' ' gXgXgXgXgX",
"gXgXgXgXgX#.| ' ' ` ` ' ' ' ' 0.Y.T.T.L.U.H.H.H.H.H.H.G.H.G.9.9.9.6.3.^ ] ' ' ' ' | U gXgXgXgXgX",
"gXgXgXgXgXgX$.' ' ' ' ' ' { B.Y.T.W.W.8X2X!.!.!.!.~.U.G.G.R.1Xp.6.6.8.] ' ' ' ' | #.gXgXgXgXgXgX",
"gXgXgXgXgXgX3X{ ' ' ' ' ' { C.`.{..XXX#X#X0X&X9XuXrX=XI.I.;X*XP.y.l.] ' ' ` ' ' { k.gXgXgXgXgXgX",
"gXgXgXgXgXgX+XS.' ' ' ' ' ' | =.j.+XoX].].].].|.OXoX=XoX|.'.[.d.@.| ' ' ' ' ' ' h.|.= gXgXgXgXgX",
"gXgXgXgXgXX M `.~ { | ' ' ' ` ' ' %.u./. XXXOXOX+XOXOX.X/.x.%.' ' ' ' ' ' ' ] ~ k q X gXgXgXgXgX",
"gXgXgXgXgXgXk f.F ~ ) | ' ' ' ' ' '  .| ) I P P P P I ) ' | ' ' ' ' ' ' | ) < 3 4 6 X gXgXgXgXgX",
"gXgXgXgXgXgX0 B m m g I | ' ' ' ' ' ` ' ' ' | | | ' ' ' ' ' ' ' ' ` ' ' U y 7 9 9 - gXgXgXgXgXgX",
"gXgXgXgXgXgXgXl m m B f Q _ | ' ` ' ' ' ' ' ' ' ' ' ' ' ' ' ' ' ' | _ Q 7 7 7 6 9 gXgXgXgXgXgXgX",
"gXgXgXgXgXgXgXgXl m M f q 9 Q _ ' | | ' ' ' ' ' ' ' ' ' ' ' | ' _ K 5 4 - - 3 - + gXgXgXgXgXgXgX",
"gXgXgXgXgXgXgXgXgXq a 7 7 6 3 5 2 L _ ` ' | ' ' ' ' | ' ` _ L 2 4 3 3 % % # # gXgXgXgXgXgXgXgXgX",
"gXgXgXgXgXgXgXgXgXgX. @ # - 3 3 % + & 5 < 1 L ` ) L 1 < > + + @ + % % X . gXgXgXgXgXgXgXgXgXgXgX",
"gXgXgXgXgXgXgXgXgXgXgXgXgXgXgXgXgXgX      o   o       o gXgXgXgXgXgXgXgXgXgXgXgXgXgXgXgXgXgXgXgX"
};
