/* XPM */
static char *result[] = {
/* columns rows colors chars-per-pixel */
"32 32 152 2 ",
"   c #1D1D31",
".  c #241B2A",
"X  c #281D28",
"o  c #251627",
"O  c #2E212B",
"+  c #3A262E",
"@  c #36222D",
"#  c #342C3F",
"$  c #6C0D19",
"%  c #7D0B15",
"&  c #6F1A1F",
"*  c #7A181F",
"=  c #4F1F2A",
"-  c #7A1620",
";  c #58232D",
":  c #412034",
">  c #433236",
",  c #523836",
"<  c #7B2D2B",
"1  c #7A2737",
"2  c #6B3F38",
"3  c #6C4039",
"4  c #2F3148",
"5  c #563E56",
"6  c #5F3A51",
"7  c #6D3947",
"8  c #723043",
"9  c #54454E",
"0  c #7B4E50",
"q  c #4E5468",
"w  c #704B61",
"e  c #7A4D64",
"r  c #775569",
"t  c #665F7B",
"y  c #6D5973",
"u  c #715A72",
"i  c #596074",
"p  c #5F677C",
"a  c #6B626C",
"s  c #61687E",
"d  c #62617D",
"f  c #8F0F18",
"g  c #800E13",
"h  c #941114",
"j  c #AE080B",
"k  c #AC0508",
"l  c #BA0A0D",
"z  c #BC0D11",
"x  c #BD1419",
"c  c #B0191B",
"v  c #BF1A1E",
"b  c #B9251F",
"n  c #941F2C",
"m  c #8D2927",
"M  c #982228",
"N  c #842E34",
"B  c #9E2B36",
"V  c #A52720",
"C  c #AC222C",
"Z  c #AE3A2E",
"A  c #B33E2F",
"S  c #A42A36",
"D  c #B82C35",
"F  c #C30305",
"G  c #CC0303",
"H  c #CF0907",
"J  c #C90508",
"K  c #CC0A0A",
"L  c #C00B0A",
"P  c #D40000",
"I  c #C30E13",
"U  c #C51014",
"Y  c #CA1216",
"T  c #CB1518",
"R  c #C91B1F",
"E  c #C41E21",
"W  c #C42127",
"Q  c #C9272C",
"!  c #D02C2F",
"~  c #A54A39",
"^  c #853648",
"/  c #8E3C4E",
"(  c #8C3F52",
")  c #B73943",
"_  c #95404D",
"`  c #894053",
"'  c #854658",
"]  c #874456",
"[  c #9B4754",
"{  c #A74855",
"}  c #97634D",
"|  c #A65867",
" . c #8D6676",
".. c #986B7F",
"X. c #8B7C7E",
"o. c #A26C7D",
"O. c #CD4147",
"+. c #C84C53",
"@. c #596887",
"#. c #5B6989",
"$. c #656F86",
"%. c #667088",
"&. c #697389",
"*. c #757C8F",
"=. c #6D7C99",
"-. c #7E7C96",
";. c #886F80",
":. c #9E7285",
">. c #9F7588",
",. c #877E94",
"<. c #9B7E92",
"1. c #A07284",
"2. c #7E808D",
"3. c #7A8398",
"4. c #7B8AA5",
"5. c #7F8EA9",
"6. c #7685A1",
"7. c #918588",
"8. c #8D8D98",
"9. c #988095",
"0. c #978E92",
"q. c #998F91",
"w. c #95879D",
"e. c #AA8C91",
"r. c #AE909E",
"t. c #808FAA",
"y. c #948EA4",
"u. c #8594AE",
"i. c #8B9BB4",
"p. c #9AA3B6",
"a. c #A0A7B7",
"s. c #A5AEBF",
"d. c #B4B0BF",
"f. c #BBB7BC",
"g. c #D2AEB2",
"h. c #D1B3BD",
"j. c #A6AFC1",
"k. c #B3BECF",
"l. c #B7B2C2",
"z. c #B6C1D2",
"x. c #C5C5CA",
"c. c #C7C8CF",
"v. c #E5C3C8",
"b. c #D1D9E6",
"n. c #E7E7E9",
"m. c #EBEEF5",
"M. c #E7EBF2",
"N. c #EFF2F6",
"B. c #F4F5F7",
"V. c #FEFEFE",
"C. c #F7F9FB",
"Z. c None",
/* pixels */
"Z.Z.Z.Z.Z.Z.Z.Z.Z.Z.Z.Z.Z.Z.Z.P P Z.Z.Z.Z.Z.Z.Z.Z.Z.Z.Z.Z.Z.Z.Z.",
"Z.Z.Z.Z.Z.Z.Z.Z.Z.Z.Z.P P P P P P P P P P Z.Z.Z.Z.Z.Z.Z.Z.Z.Z.Z.",
"Z.Z.Z.Z.Z.Z.Z.Z.F P P P P P P P P P P P P P G k Z.Z.Z.Z.Z.Z.Z.Z.",
"Z.Z.Z.Z.Z.> % G P P P P P P P P P P P P P P P P L Z.Z.> Z.Z.Z.Z.",
"Z.Z.Z.Z.Z.~ P P P P P K b A ~ ; = < Z b K P P P P H m } , Z.Z.Z.",
"Z.Z.Z.Z.h P P P P K V 0 f.0.7.x.c.q.X.f.e.V K P P P G Z , Z.Z.Z.",
"Z.Z.Z.Z.G P P P c 7 9 a M.V.V.V.V.V.V.V.x.9 N H P P P K * Z.Z.Z.",
"Z.Z.Z.P P P P +.l.z.j.8.V.V.V.m.M.V.V.V.n. .Q P P P P P l Z.Z.Z.",
"Z.Z.P P P P O.d.k.k.s.,.B.V.V.N.M.N.V.V.g.R P P P P P P P j Z.Z.",
"Z.Z.P P P E ;.&.%.%.$.q c.V.V.V.V.C.C.v.E P P P U _ U P P J Z.Z.",
"Z.Z.P P P [ 4.u.i.u.i.$.a.b.b.b.b.b.h.! P P P T :.i.{ P P P Z.Z.",
"Z.P P P z ,.i.i.i.i.u.i 3.*.p.j.s.r.W P P P T :.i.i.w.T P P P Z.",
"Z.P P P B i.i.i.i.i.u.s &.3.s s r x P P P U 1.i.i.i.u.) P P P Z.",
"Z.P P P ] t.i.i.i.i.i.i.i.i.i.9.W P P P T :.i.i.i.i.i.| P P P Z.",
"P P P P w t.i.i.i.i.i.i.i.i.9.W P P P T :.i.i.i.i.i.i.:.P P P Z.",
"P P P G u i.i.i.i.i.i.i.i.9.W P P P T :.i.i.i.i.i.i.i.<.K P P P ",
"P P P J u i.i.i.i.i.i.i.9.W P P P T :.i.i.i.i.i.i.i.i.<.J P P P ",
"P P P G r i.i.i.i.i.i.9.W P P P T :.i.i.i.i.i.i.i.i.i.>.J P P Z.",
"Z.P P P ' u.i.i.i.i.9.W P P P T :.i.i.i.i.i.i.i.i.i.i.| P P P Z.",
"Z.P P P B 5.i.i.i.9.W P P P T :.i.i.i.i.i.i.i.i.i.i.i.) P P P Z.",
"Z.P P P U y.i.i.9.W P P P T >.i.i.i.i.i.i.i.i.i.i.i.w.T P P P Z.",
"Z.P P P P | i.9.W P P P T :.i.i.i.i.i.i.i.i.i.i.i.i.| P P P Z.Z.",
"Z.Z.P P P E 1.W P P P T :.i.i.i.i.i.i.i.i.i.i.i.i.9.T P P F Z.Z.",
"Z.Z.P P P P H P P P U  .4.5.=.=.=.=.=.4.4.6.3.=.,.D P P P f Z.Z.",
"Z.Z.Z.F P P P P P U e @.#.#.@.@.#.#.@.#.#.@.@.d S P P P x : Z.Z.",
"Z.Z.Z.% J P P P P ` #.#.#.#.#.#.#.#.#.#.@.@.y C P P P H 7   Z.Z.",
"Z.Z.Z.Z.* G P P P x ( t #.#.#.#.#.#.#.#.d / U P P P J ^ 4 Z.Z.Z.",
"Z.Z.Z.Z.o * H P P P P z M 7 6 5 5 6 8 M z P P P P J 1 4 . Z.Z.Z.",
"Z.Z.Z.Z.O 2 & F P P P P P P P G G P P P P P P P F $ @ 3 + Z.Z.Z.",
"Z.Z.Z.Z.Z.+ X Z.P P P P P P P P P P P P P P P P Z.Z.X + Z.Z.Z.Z.",
"Z.Z.Z.Z.Z.Z.Z.Z.Z.Z.P P P P P P P P P P P Z.Z.Z.Z.Z.Z.Z.Z.Z.Z.Z.",
"Z.Z.Z.Z.Z.Z.Z.Z.Z.Z.Z.Z.Z.Z.P P P P Z.Z.Z.Z.Z.Z.Z.Z.Z.Z.Z.Z.Z.Z."
};
