/* XPM */
static char *result[] = {
/* columns rows colors chars-per-pixel */
"48 48 220 2 ",
"   c #100B08",
".  c #18100E",
"X  c #1B1C1C",
"o  c #181414",
"O  c #0E0906",
"+  c #231712",
"@  c #251A15",
"#  c #291C17",
"$  c #2A1E19",
"%  c #261D19",
"&  c #311F18",
"*  c #2D201B",
"=  c #27201B",
"-  c #34241D",
";  c #3B261E",
":  c #222222",
">  c #292A2C",
",  c #3A2721",
"<  c #3C2921",
"1  c #372520",
"2  c #353437",
"3  c #343832",
"4  c #0A3E24",
"5  c #47261D",
"6  c #442C23",
"7  c #492D24",
"8  c #4E3227",
"9  c #4A322A",
"0  c #503227",
"q  c #53362B",
"w  c #53382E",
"e  c #5D3A2D",
"r  c #413632",
"t  c #4A3D3A",
"y  c #483B37",
"u  c #563D35",
"i  c #623B2D",
"p  c #653E30",
"a  c #683F31",
"s  c #124B2D",
"d  c #264832",
"f  c #54433D",
"g  c #5D4339",
"h  c #4F413D",
"j  c #654134",
"k  c #66463A",
"l  c #724D39",
"z  c #756E37",
"x  c #35684C",
"c  c #305444",
"v  c #484647",
"b  c #574A46",
"n  c #445A4D",
"m  c #58514F",
"M  c #5B5453",
"N  c #5C585A",
"B  c #575653",
"V  c #4C5552",
"C  c #694D43",
"Z  c #654B43",
"A  c #6B534A",
"S  c #685349",
"D  c #72564D",
"F  c #685B58",
"G  c #705A51",
"H  c #4D6A5A",
"J  c #6B635E",
"K  c #76615B",
"L  c #5D5F60",
"P  c #567364",
"I  c #666968",
"U  c #766966",
"Y  c #6C7574",
"T  c #7B7D7D",
"R  c #797877",
"E  c #6C776B",
"W  c #8A2C14",
"Q  c #8B351B",
"!  c #8B371C",
"~  c #913A1D",
"^  c #8B3921",
"/  c #933E23",
"(  c #EB0A18",
")  c #FC1C18",
"_  c #ED0B19",
"`  c #FE281C",
"'  c #FD321E",
"]  c #EB3B2A",
"[  c #FE3522",
"{  c #F53C2A",
"}  c #F83926",
"|  c #E93637",
" . c #DF1F2B",
".. c #994528",
"X. c #974934",
"o. c #9C553C",
"O. c #894833",
"+. c #A44E29",
"@. c #A2542D",
"#. c #A75A38",
"$. c #B16C36",
"%. c #DA4536",
"&. c #FB402F",
"*. c #EB493A",
"=. c #F64837",
"-. c #D23A43",
";. c #945A4B",
":. c #8A5A50",
">. c #A15E45",
",. c #986659",
"<. c #896D5A",
"1. c #A66448",
"2. c #A36A55",
"3. c #AC775A",
"4. c #B66750",
"5. c #9C6C68",
"6. c #887977",
"7. c #947770",
"8. c #B16F6B",
"9. c #CA4149",
"0. c #D94849",
"q. c #CE5053",
"w. c #E5574A",
"e. c #F45748",
"r. c #F55647",
"t. c #E9594B",
"y. c #DD645C",
"u. c #DB6055",
"i. c #CD6056",
"p. c #C25961",
"a. c #D36B66",
"s. c #D9736D",
"d. c #D4716B",
"f. c #E66A62",
"g. c #E2756C",
"h. c #A8873C",
"j. c #C9933A",
"k. c #C79237",
"l. c #C7833F",
"z. c #B98957",
"x. c #93817F",
"c. c #AB816E",
"v. c #A48479",
"b. c #B69770",
"n. c #9D824F",
"m. c #C4964A",
"M. c #C99356",
"N. c #CF8E4D",
"B. c #C8A05F",
"V. c #D98479",
"C. c #C89A6C",
"Z. c #E2877F",
"A. c #C4A778",
"S. c #C2A26F",
"D. c #7E7D80",
"F. c #927E81",
"G. c #B67B80",
"H. c #7D8383",
"J. c #7D8987",
"K. c #8B8B8D",
"L. c #828686",
"P. c #958785",
"I. c #8E8E91",
"U. c #938F92",
"Y. c #8B9293",
"T. c #929295",
"R. c #9A9A9D",
"E. c #969597",
"W. c #9F908E",
"Q. c #BA9887",
"!. c #B79895",
"~. c #A79291",
"^. c #B5A49A",
"/. c #9E9FA1",
"(. c #B49DA0",
"). c #A2A2A4",
"_. c #A5A6A9",
"`. c #AAAAAD",
"'. c #A8A7AA",
"]. c #BBA8A7",
"[. c #ABADB1",
"{. c #B2AEB1",
"}. c #AFB0B5",
"|. c #AFB3B9",
" X c #B1B3B7",
".X c #B3B5BA",
"XX c #B4B8BE",
"oX c #BBBABE",
"OX c #BDB8B3",
"+X c #BEB0A6",
"@X c #D68A85",
"#X c #C79594",
"$X c #D1938D",
"%X c #C5A89D",
"&X c #CDB292",
"*X c #C7A8A8",
"=X c #D5ACAB",
"-X c #C7B6B5",
";X c #CAB5B2",
":X c #BBBDC2",
">X c #AFBBC0",
",X c #C1BFC4",
"<X c #BEC0C5",
"1X c #C2C2C6",
"2X c #C3C5CA",
"3X c #C6C8CD",
"4X c #C9C9CE",
"5X c #CCC3C4",
"6X c #D1C7C9",
"7X c #CCCDD2",
"8X c #D1CED1",
"9X c #CED3D9",
"0X c #D1D2D7",
"qX c #D4D5DA",
"wX c #D6D8DE",
"eX c #D8D9DF",
"rX c #D5DBE1",
"tX c #DADCE1",
"yX c #E0E1E6",
"uX c None",
/* pixels */
"uXuXuXuXuXuXuXuXuXuXuXuXuXuXuXuXuXuXuXuXuXuXuXqXqXuXuXuXuXuXuXuXuXuXuXuXuXuXuXuXuXuXuXuXuXuXuXuX",
"uXuXuXuXuXuXuXuXqXeXwXeXwXeXeXqXeXwXwXeXeXeXqXqXqXeXwXwXeXwXqX8X2X1XXXXXoX.X X.XuXuXuXuXuXuXuXuX",
"uXuXuXuXuXuXuXuXtXqXqXqXqXqXqXqXqXqXqXqXqXqXqXqXqXqXqXqXqXqX4X7X2X:X.X.X X'.)._.`.uXuXuXuXuXuXuX",
"uXuXuXuXuXuXuXuXeXqXqXqXqX7XqXqXqXqXqXqXqXqXqXqXqXqXqX8X3X3X1X:X:X.X}.[._./.).'.`.uXuXuXuXuXuXuX",
"uXuXuXuXuXuXuXuXtXqXqXqXqX0XqXqXqXqXqXqXqXqXqX8XqXqX8X3X3X3X<X.X:X X X).).).).'.`.uXuXuXuXuXuXuX",
"uXuXuXuXuXuXuXuXtXqXqXqXqX0X0XqXqXqXqXqXqXqXqXqXqXwX9X4X2X2X1X.X<X X.X[.).).).).'.uXuXuXuXuXuXuX",
"uXuXuXuXuXuXuXuXtXqXqXqX0XqX0XqXqXqXqXqXqXqXqXqXqXqXwXqX7X7X1X<X1X.X|.[.)./.)._.`.uXuXuXuXuXuXuX",
"uXuXuXuXuXuXuXuXtX0XqXqXqXqX0X0XqXqXqXqXqXqXqXqXqXqX7X7X3X2X1XXXXX.X}._.).).).'.).uXuXuXuXuXuXuX",
"uXuXuXuXuXuXuXuXyX7XwXwXeXtXqXrXtXtXtXtXtXqXrXqXqXqXqXqX7X0X7X2X:X:X.X X'._._.`.'.uXuXuXuXuXuXuX",
"uXuXuXuXuXuXuXuXoXU.K.'.U.I U K K J K F M m m M m m m m m m F F N N N N B m F R uXuXuXuXuXuXuXuX",
"uXuXuXuXuXuXuXuXuXh q 9 1 # & & $ + + + + + + @ + + @ + + + + + @ # @ @ @ @ 1 uXuXuXuXuXuXuXuXuX",
"uXuXuXuXuXuXuXuXuXG C p e p p p i u Z Z a w 8 8 6 6 < t f t < 1 * * $ * * $ g t uXuXuXuXuXuXuXuX",
"uXuXuXuXuXuXuXuXb D p i a p p p k K W.7.<.Z p a a a p D <.K a i w w 7 * - $ < g uXuXuXuXuXuXuXuX",
"uXuXuXuXuXuXuX3 D p a p p p p p a a a l p p i a p p p p i i a a p e 7 $ $ * : w S uXuXuXuXuXuXuX",
"uXuXuXuXuXuXuXb A Z Z p p p i j C C A C k e e e e e e e e p a p e 6 $ * $ * * - D y uXuXuXuXuXuX",
"uXuXuXuXuXuXt D C A j a p p p p a Z a i - : * * $ 1 1 * $ , 7 6 * - * * * $ $ $ 6 y uXuXuXuXuXuX",
"uXuXuXuXuXuXm <.F.Z i i e e i i a e i 7 % % # @ @ $ * # = @ - * * $ $ $ # # # # # w o uXuXuXuXuX",
"uXuXuXuXuXuX,X7X7XW.F.6.U <.U U U J m b h h f h y t 3 h y < 5 6 5 7 r r r r r b b Z X uXuXuXuXuX",
"uXuXuXuXuXuXtXqXqXtXrXrXqXqXqXqX9XrX9XrX7X].5XqX9X9X9X9X5X0.} f._ a.>X>X}.}.>X{. X:XuXuXuXuXuXuX",
"uXuXuXuXuXuXrXqXqXqXqXqXqXwXrXrXqXrXrX9XV.] =XrXwXwXwXrX8Xr.} f.) d.>X>X>X'.E.>X.X XuXuXuXuXuXuX",
"uXuXuXuXuXuXrXqXeX).v V v U.@XV.8X*Xs.@X*.' y.;X$Xg.f.=X8X*.{ f.) s.>Xp.p.p.5.}.{.'.2 uXuXuXuXuX",
"uXuXuXuXuXuXtXrXtXU.  v o v r.{ 6XZ.' w.} ' *.y.[ } } &.$X*.} f.) a.q._ ( ( -.K.R F.X uXuXuXuXuX",
"uXuXuXuXuXuXqXqXrXT.: >X2 v e.=.8XV.' @Xr.[ $Xw.[ g.a.[ *.=.{ f.` 0._ -.G. .9.Y.D.D.X uXuXuXuXuX",
"uXuXuXuXuXuXwXwXtXT.> :X2 b e.=.0Xg.' V.e.[ $Xt.[ *.%.*.w.=.{ y.) | _ 8. X9.9.Y.D.Y X uXuXuXuXuX",
"uXuXuXuXuXuXwXwXtXL.> :X2 v e.[ s.w.' V.e.' s.u.' t.t.&.s.r.} y.) q.(  .p.( 9.F.Y R X uXuXuXuXuX",
"uXuXuXuXuXuXqXtXtXY.v :XL F g.} } &.{ $Xa.' %.!.i.] ' t.#X*.{ y.) a.4.( _ ( 9.F.H.D.X uXuXuXuXuX",
"uXuXuXuXuXuX4XoXeX_.L L I R 4.5.;X;X@X~.7X;X;XqX4X*X=X5X7X;X*X*X#X*X2X#X:.5.F.D.T I uXuXuXuXuXuX",
"uXuXuXuXuXuX2X`.wX4XoX.X.X X`..XrX-X>.! 5XtXwXqXwXwXrXwXqXwXwXqX9XqXwXwXL c D.Y.Y.T.: uXuXuXuXuX",
"uXuXuXuXuXuX8X7XqXqXwXwXrXrX8X1XOX;.W ~ %X6XqX0XqXwXwXwXqXqXqXqXqXqXwXqXV 4 P H.I Y.= uXuXuXuXuX",
"uXuXuXuXuXuX7X0XqXqXqXqX].v.1.o.o.W W ^ o.X.>.3.c.Q.+XqXqXqX0XqX0XqXwX].v H I H.T Y.: uXuXuXuXuX",
"uXuXuXuXuXuXqXeXqXqX9X].>.^ X.,.5.W ~ / W ~ +.~ ~ / #.-XwXqXqXqXqXqXqXJ d N V K.D.K.: uXuXuXuXuX",
"uXuXuXuXuXuXqXeXqXrX,X3.~ ;.5.;X7.W ^ ! ~ 4.$.~ W +...!.rXwXqXqXwXwX0XR d V H.Y.E K.: uXuXuXuXuX",
"uXuXuXuXuXuXqXeXqX7X`.1...8.OX].O.Q ! ! ! ..~ ../ ~ i z.OX-X8X8X7X2X+Xx s n I.K.H.T.: uXuXuXuXuX",
"uXuXuXuXuXuXqXeXqXH.T 8.,.].(.;.Q Q ..+.Q ! ! ..^ ! $.m.m.n.P P E <.z s d I I.I.K.K.: uXuXuXuXuX",
"uXuXuXuXuXuXqXeX7XY R ~.].].:.i Q ~ #.>.1...^ ^ Q @.k.k.j.h.s x <.#.O.j X.X.6.P H J.: uXuXuXuXuX",
"uXuXuXuXuXuXeXqX<XT v.v.!.8.3.#.1.c.z.B.&XA.S.b.3.z.j.k.j.j.z <.4.@...X.X./ ,.x x Y X uXuXuXuXuX",
"uXuXuXuXuXuXeXeX`.:.>.,.7.N.N.N.M.N.i.z.m.k.k.k.k.k.k.j.j.j.h.#.$.@.X...X...,.J.L.T.2 uXuXuXuXuX",
"uXuXuXuXuXuXwXwXoX2.>.(.4X%XA.M.M.C.A.;X&XA.A.A.S.S.z.k.j.B.+X1.+.@.o.;./ o.P.R.K./.uXuXuXuXuXuX",
"uXuXuXuXuXuXtXeX%X1.Q.rXwXtX[.U.U.(.).[.[.>X|.:X9X7XOXb.b.^.>Xv.;.c.].<X~.).).R.E.T.uXuXuXuXuXuX",
"uXuXuXuXuXuX`..X7.2.7XtXtXtX3X[._.[._.E.T.T.E.).[._.|._.R.Y.R.Y.T.9XyXrXtX{._.).).).> uXuXuXuXuX",
"uXuXuXuXuXo S P.K k F I 6.P.U.R.R.R.)._._._.`.`.`.`.`.`.`.`.`.`.`.`._.R.T.U I M b h o uXuXuXuXuX",
"uXuXuXuXuXuXf x.J Z g 5 5 7 5 5 < 5 6 6 6 6 6 6 , , , , , , , , , ; ; ; ; ; 5 6 7 8 . uXuXuXuXuX",
"uXuXuXuXuXuXr G A A A g 8 8 8 8 0 0 0 0 0 0 0 0 8 0 0 0 0 0 0 0 9 0 0 0 8 8 0 8 0 , uXuXuXuXuXuX",
"uXuXuXuXuXuXuXb A A A k q w w 8 0 8 8 0 0 0 8 0 0 0 0 0 8 8 8 0 0 0 8 0 0 0 0 0 q uXuXuXuXuXuXuX",
"uXuXuXuXuXuXuXuXf D S k g q w 0 q 8 0 w 8 8 8 6 6 6 6 6 8 8 0 q 0 8 8 6 < < 6 < @ uXuXuXuXuXuXuX",
"uXuXuXuXuXuXuXuXuXh g q 8 7 6 8 6 6 6 9 6 6 6 8 8 7 8 8 8 8 6 6 6 8 6 * * * % uXuXuXuXuXuXuXuXuX",
"uXuXuXuXuXuXuXuXuXuX. # = < 6 6 * @ , 6 - - - - - - - - $ @ % @ @ * # o . uXuXuXuXuXuXuXuXuXuXuX",
"uXuXuXuXuXuXuXuXuXuXuXuXuXuXuXuXuXuX    O O       O O O uXuXuXuXuXuXuXuXuXuXuXuXuXuXuXuXuXuXuXuX"
};
