/* XPM */
static char *result[] = {
/* columns rows colors chars-per-pixel */
"32 32 141 2 ",
"   c #1D1729",
".  c #1B192D",
"X  c #1E1D32",
"o  c #241B2A",
"O  c #291D29",
"+  c #2F202B",
"@  c #34242D",
"#  c #3A272E",
"$  c #3D292F",
"%  c #2B2736",
"&  c #25263D",
"*  c #2F293B",
"=  c #352D39",
"-  c #422B2F",
";  c #413236",
":  c #4B3737",
">  c #503434",
",  c #553B39",
"<  c #583E3B",
"1  c #5E403C",
"2  c #61433F",
"3  c #6C423B",
"4  c #7F473B",
"5  c #272940",
"6  c #2F2F42",
"7  c #322D40",
"8  c #2F3045",
"9  c #2D3149",
"0  c #333245",
"q  c #3A3A4C",
"w  c #3A415C",
"e  c #3F4966",
"r  c #4F414B",
"t  c #53434C",
"y  c #414457",
"u  c #45485C",
"i  c #564751",
"p  c #574851",
"a  c #584952",
"s  c #6C4642",
"d  c #6A4941",
"f  c #734D41",
"g  c #7F5445",
"h  c #614F54",
"j  c #625055",
"k  c #6E595B",
"l  c #414B68",
"z  c #4D546B",
"x  c #475270",
"c  c #4B5775",
"v  c #4E5B7A",
"b  c #525B73",
"n  c #545F7C",
"m  c #596074",
"M  c #55607D",
"N  c #5C657C",
"B  c #6B626C",
"V  c #60677C",
"C  c #61687D",
"Z  c #874C3E",
"A  c #8B4F3F",
"S  c #845244",
"D  c #835B49",
"F  c #8A5D4C",
"G  c #975C47",
"H  c #855E50",
"J  c #8A614D",
"K  c #95644D",
"L  c #9C644D",
"P  c #906250",
"I  c #976951",
"U  c #A8664D",
"Y  c #AD684C",
"T  c #B16A4C",
"R  c #B36E50",
"E  c #B77454",
"W  c #8B7C7E",
"Q  c #566281",
"!  c #586380",
"~  c #5A6886",
"^  c #5A6989",
"/  c #636D86",
"(  c #6C6E80",
")  c #606E8A",
"_  c #6A7386",
"`  c #667189",
"'  c #6B758C",
"]  c #71778A",
"[  c #767B8D",
"{  c #667592",
"}  c #697692",
"|  c #6D7A95",
" . c #6D7C99",
".. c #747D92",
"X. c #7E808D",
"o. c #7B8294",
"O. c #75829B",
"+. c #7B859B",
"@. c #7686A1",
"#. c #7887A3",
"$. c #7C8BA6",
"%. c #7E8EA9",
"&. c #918588",
"*. c #8C8D99",
"=. c #978E92",
"-. c #998F91",
";. c #828CA2",
":. c #808FAA",
">. c #8691A6",
",. c #8B94A7",
"<. c #8493AD",
"1. c #8B9BB4",
"2. c #95A0B3",
"3. c #9AA3B6",
"4. c #9EA8BB",
"5. c #A4A2A8",
"6. c #A0A7B7",
"7. c #A5AEBF",
"8. c #BEB9BC",
"9. c #A5AFC1",
"0. c #A6B0C3",
"q. c #A8B3C6",
"w. c #B7B8C0",
"e. c #B2BDCE",
"r. c #B5C1D2",
"t. c #BCC7D8",
"y. c #BDC9DA",
"u. c #C5C5CA",
"i. c #C7C8CF",
"p. c #C1CCDD",
"a. c #D1D2D7",
"s. c #D1D9E6",
"d. c #E2E2E3",
"f. c #EBECEF",
"g. c #E7EBF2",
"h. c #EAEDF4",
"j. c #EFF2F6",
"k. c #F4F5F7",
"l. c #F7F9FB",
"z. c #FEFEFE",
"x. c None",
/* pixels */
"x.x.x.x.x.x.x.x.x.x.x.x.x.x.x.x.x.x.x.x.x.x.x.x.x.x.x.x.x.x.x.x.",
"x.x.x.x.x.x.x.x.x.x.x.x.x.x.x.x.x.x.x.x.x.x.x.x.x.x.x.x.x.x.x.x.",
"x.x.x.x.x.x.x.x.x.x.x.x.x.x.x.x.x.x.x.x.x.x.x.x.x.x.x.x.x.x.x.x.",
"x.x.x.x.x.; x.x.< g J J J f : x.x.x.x.f J J J D 2 x.x.; x.x.x.x.",
"x.x.x.x.x.K d P E Y Y F H L K = % < K P H K R U E I d K , x.x.x.",
"x.x.x.x.$ G S E T A 4 k w.=.&.u.i.-.W 8.5.s S 4 Y E f G > x.x.x.",
"x.x.x.x.# 3 t h j a t B h.z.z.z.z.z.z.z.u.t a p h h t 3 - x.x.x.",
"x.x.x.x.0 C 7.r.r.r.7.*.z.z.z.h.h.z.z.z.d.X.r.r.r.r.q.[ q x.x.x.",
"x.x.x.x._ y.y.e.e.e.7.[ k.z.z.j.g.j.z.z.a.[ e.e.e.e.t.p.o.x.x.x.",
"x.x.x.0 2.9.+./ ` ` _ z i.z.z.z.z.l.z.g.*.b ` / ` ` +.4.9.y x.x.",
"x.x.x.0 ;...$.1.1.1.1.( 6.s.s.s.s.s.s.p.[ +.1.1.<.1.:...>.u x.x.",
"x.x.x.& z :.1.1.1.1.<.m o.[ 3.7.7.7.,.[ ] ` 1.1.1.1.1.<.n 8 x.x.",
"x.x.x.. N 1.1.1.1.1.<.N _ O./ V V V / O.N | 1.1.1.1.1.1.` & x.x.",
"x.x.x.X ~ %.<.1.1.1.1.1.1.1.1.1.1.1.1.1.1.1.1.1.1.1.1.%.} & x.x.",
"x.x.x.X n :.1.1.1.1.1.1.1.1.1.1.1.1.1.1.1.1.1.1.1.1.1.<.^ & x.x.",
"x.x.x.X ) 1.1.1.1.1.1.1.1.1.1.1.1.1.1.1.1.1.1.1.1.1.1.1...& x.x.",
"x.x.x.X ) 1.1.1.1.1.1.1.1.1.1.1.1.1.1.1.1.1.1.1.1.1.1.1...& x.x.",
"x.x.x.X ) 1.1.1.1.1.1.1.1.1.1.1.1.1.1.1.1.1.1.1.1.1.1.1. .5 x.x.",
"x.x.x.X ~ >.1.1.1.1.1.1.1.1.1.1.1.1.1.1.1.1.1.1.1.1.1.<.| 5 x.x.",
"x.x.x.X n %.1.1.1.1.1.1.1.1.1.1.1.1.1.1.1.1.1.1.1.1.<.:.) & x.x.",
"x.x.x.X ~ 1.1.1.1.1.1.1.1.1.1.1.1.1.1.1.1.1.1.1.1.1.1.1.| 5 x.x.",
"x.x.x.X Q 1.1.1.1.1.1.1.1.1.1.1.1.1.1.1.1.1.1.1.1.1.1.1.` 5 x.x.",
"x.x.x.X c %.1.1.1.1.1.1.1.1.1.1.1.1.1.1.1.1.1.1.1.1.1.<.Q & x.x.",
"x.x.x.X x { @.%.@. . .@.#.%. . . . . .$.$.@. . .#.%.#.{ v & x.x.",
"x.x.x.X x ^ ^ ^ ^ ^ ~ ^ ^ ^ ~ ~ ~ ~ ~ ^ ^ ^ ~ ~ ^ ^ ^ ^ v & x.x.",
"x.x.x.x.w ^ ^ ^ ^ ^ ^ ~ ^ ^ ^ ^ ~ ^ ^ ^ ^ ^ ^ ^ ^ ^ ^ ^ l X x.x.",
"x.x.x.x.5 c ^ ^ ^ ^ ^ ^ ^ ^ ^ ^ ^ ~ ^ ^ ^ ^ ^ ^ ^ ^ ^ v 9 x.x.x.",
"x.x.x.x.. 6 q l e e e e e e e e e e e e e e e e l e w 7 o x.x.x.",
"x.x.x.x.+ 3 # . x.x.x.x.x.x.x.x.x.x.x.x.x.x.x.x.x.. @ 3 # x.x.x.",
"x.x.x.x.x.# O x.x.x.x.x.x.x.x.x.x.x.x.x.x.x.x.x.x.x.O # x.x.x.x.",
"x.x.x.x.x.x.x.x.x.x.x.x.x.x.x.x.x.x.x.x.x.x.x.x.x.x.x.x.x.x.x.x.",
"x.x.x.x.x.x.x.x.x.x.x.x.x.x.x.x.x.x.x.x.x.x.x.x.x.x.x.x.x.x.x.x."
};
