/* XPM */
static char *result[] = {
/* columns rows colors chars-per-pixel */
"64 64 256 2 ",
"   c black",
".  c #010101",
"X  c #020202",
"o  c gray1",
"O  c #040404",
"+  c gray2",
"@  c #060606",
"#  c #070707",
"$  c gray3",
"%  c #090909",
"&  c gray4",
"*  c #0B0B0B",
"=  c #0C0C0C",
"-  c gray5",
";  c #0E0E0E",
":  c gray6",
">  c #101010",
",  c #111111",
"<  c gray7",
"1  c #131313",
"2  c gray8",
"3  c #151515",
"4  c #161616",
"5  c gray9",
"6  c #181818",
"7  c #191919",
"8  c gray10",
"9  c #1B1B1B",
"0  c gray11",
"q  c #1D1D1D",
"w  c #1E1E1E",
"e  c gray12",
"r  c #202020",
"t  c gray13",
"y  c #222222",
"u  c #232323",
"i  c gray14",
"p  c #252525",
"a  c gray15",
"s  c #272727",
"d  c #282828",
"f  c gray16",
"g  c #2A2A2A",
"h  c gray17",
"j  c #2C2C2C",
"k  c #2D2D2D",
"l  c gray18",
"z  c #2F2F2F",
"x  c gray19",
"c  c #313131",
"v  c #323232",
"b  c gray20",
"n  c #343434",
"m  c #353535",
"M  c gray21",
"N  c #373737",
"B  c gray22",
"V  c #393939",
"C  c #3A3A3A",
"Z  c gray23",
"A  c #3C3C3C",
"S  c gray24",
"D  c #3E3E3E",
"F  c #3F3F3F",
"G  c gray25",
"H  c #414141",
"J  c gray26",
"K  c #434343",
"L  c #444444",
"P  c gray27",
"I  c #464646",
"U  c gray28",
"Y  c #484848",
"T  c #494949",
"R  c gray29",
"E  c #4B4B4B",
"W  c #4C4C4C",
"Q  c gray30",
"!  c #4E4E4E",
"~  c gray31",
"^  c #505050",
"/  c #515151",
"(  c gray32",
")  c #535353",
"_  c gray33",
"`  c #555555",
"'  c #565656",
"]  c gray34",
"[  c #585858",
"{  c gray35",
"}  c #5A5A5A",
"|  c #5B5B5B",
" . c gray36",
".. c #5D5D5D",
"X. c gray37",
"o. c #5F5F5F",
"O. c #606060",
"+. c gray38",
"@. c #626262",
"#. c gray39",
"$. c #646464",
"%. c #656565",
"&. c gray40",
"*. c #676767",
"=. c #686868",
"-. c DimGray",
";. c #6A6A6A",
":. c gray42",
">. c #6C6C6C",
",. c #6D6D6D",
"<. c gray43",
"1. c #6F6F6F",
"2. c gray44",
"3. c #717171",
"4. c #727272",
"5. c gray45",
"6. c #747474",
"7. c gray46",
"8. c #767676",
"9. c #777777",
"0. c gray47",
"q. c #797979",
"w. c gray48",
"e. c #7B7B7B",
"r. c #7C7C7C",
"t. c gray49",
"y. c #7E7E7E",
"u. c gray50",
"i. c #808080",
"p. c #818181",
"a. c gray51",
"s. c #838383",
"d. c #848484",
"f. c gray52",
"g. c #868686",
"h. c gray53",
"j. c #888888",
"k. c #898989",
"l. c gray54",
"z. c #8B8B8B",
"x. c gray55",
"c. c #8D8D8D",
"v. c #8E8E8E",
"b. c gray56",
"n. c #909090",
"m. c gray57",
"M. c #929292",
"N. c #939393",
"B. c gray58",
"V. c #959595",
"C. c gray59",
"Z. c #979797",
"A. c #989898",
"S. c gray60",
"D. c #9A9A9A",
"F. c #9B9B9B",
"G. c gray61",
"H. c #9D9D9D",
"J. c gray62",
"K. c #9F9F9F",
"L. c #A0A0A0",
"P. c gray63",
"I. c #A2A2A2",
"U. c gray64",
"Y. c #A4A4A4",
"T. c #A5A5A5",
"R. c gray65",
"E. c #A7A7A7",
"W. c gray66",
"Q. c #A9A9A9",
"!. c #AAAAAA",
"~. c gray67",
"^. c #ACACAC",
"/. c gray68",
"(. c #AEAEAE",
"). c #AFAFAF",
"_. c gray69",
"`. c #B1B1B1",
"'. c #B2B2B2",
"]. c gray70",
"[. c #B4B4B4",
"{. c gray71",
"}. c #B6B6B6",
"|. c #B7B7B7",
" X c gray72",
".X c #B9B9B9",
"XX c gray73",
"oX c #BBBBBB",
"OX c #BCBCBC",
"+X c gray74",
"@X c gray",
"#X c gray75",
"$X c #C0C0C0",
"%X c #C1C1C1",
"&X c gray76",
"*X c #C3C3C3",
"=X c gray77",
"-X c #C5C5C5",
";X c #C6C6C6",
":X c gray78",
">X c #C8C8C8",
",X c gray79",
"<X c #CACACA",
"1X c #CBCBCB",
"2X c gray80",
"3X c #CDCDCD",
"4X c #CECECE",
"5X c gray81",
"6X c #D0D0D0",
"7X c gray82",
"8X c #D2D2D2",
"9X c LightGray",
"0X c gray83",
"qX c #D5D5D5",
"wX c gray84",
"eX c #D7D7D7",
"rX c #D8D8D8",
"tX c gray85",
"yX c #DADADA",
"uX c gray86",
"iX c gainsboro",
"pX c #DDDDDD",
"aX c gray87",
"sX c #DFDFDF",
"dX c gray88",
"fX c #E1E1E1",
"gX c #E2E2E2",
"hX c gray89",
"jX c #E4E4E4",
"kX c gray90",
"lX c #E6E6E6",
"zX c #E7E7E7",
"xX c gray91",
"cX c #E9E9E9",
"vX c #EAEAEA",
"bX c gray92",
"nX c #ECECEC",
"mX c gray93",
"MX c #EEEEEE",
"NX c #EFEFEF",
"BX c gray94",
"VX c #F1F1F1",
"CX c gray95",
"ZX c #F3F3F3",
"AX c #F4F4F4",
"SX c gray96",
"DX c #F6F6F6",
"FX c gray97",
"GX c #F8F8F8",
"HX c #F9F9F9",
"JX c gray98",
"KX c #FBFBFB",
"LX c gray99",
"PX c #FDFDFD",
"IX c #FEFEFE",
"UX c white",
/* pixels */
"c U U U U U D r w w y G U U U U U U U I U U U U U S r p K U I Y { X.X.X.X.X./ I U U U U I U I I U U L p w w e V U _ X.X.X.` U S ",
"_ l.k.k.k.l.6.l f d v e.z.k.k.k.k.k.k.k.k.k.k.k.l.4.j V a.l.k.x.}.%X$X$X%X&XU.j.k.k.k.k.k.k.k.k.k.k.a.C d f g -.l.Q.%X%X&X~.l.4.",
"` z.l.l.l.z.7.l f d z #.2.d.l.l.l.l.l.l.l.l.l.l.z.5.j n =.3.g.c.|.*X&X&X X'.G.k.l.l.l.l.l.l.l.l.l.l.s.C d f g ;.z.!.*XXX'.I.z.5.",
"` z.l.l.l.z.7.l f f f h z 7.x.l.l.l.l.l.l.z.z.z.x.6.j d g m y.b. X=X*X*XK.l.z.l.l.l.l.l.l.l.l.l.l.z.d.C d f g :.x.~.-XW.l.z.z.5.",
"` z.l.l.l.z.7.l f f f f j #.7.s.l.l.l.l.l.p.6.6.7.=.H Z g c ;.q.Q.}.{.{.S.k.l.l.l.l.l.l.l.l.l.l.h.9.1.M d f g | 7.D.|.L.k.l.z.5.",
"` z.l.l.l.x.8.l f d d f f j l <.c.z.z.z.x.$.k k j J s.8.x f k b w.v.c.c.z.l.l.l.l.l.l.l.l.z.z.x.u.B j f d f f j k $.b.z.l.l.z.5.",
"` z.l.l.f.e.=.k h N B h f f g +.r.w.w.a.x.@.d l B W j.t.G N h z 9.z.l.l.l.l.l.l.l.l.l.l.g.e.w.e.2.v f M V k f f d +.x.l.l.l.z.5.",
"` z.l.c.3.b z d m w.e.M s f f l c c x X.v.@.a P p.d.k.j.d.q.m l 0.x.l.l.l.l.l.l.l.z.z.c.5.n c c x f l 4.i.F s f d +.c.l.l.l.z.5.",
"` z.g.p.&.g h b G a.s.H b h f f d d d _ p.O.v ( n.m.n.b.x.i.M k <.i.h.l.l.l.l.l.f.u.u.p.=.h d d h B G r.k.T b k d | p.d.l.l.z.5.",
"` x.;.M v d Z q.u.k.k.u.w.A d f f f d z n ) y.M.XXoXOX].v.u.M d b N 5.x.l.l.l.x.%.n m M v f f s V L./.n.k.p.t.P s x m o.z.l.z.5.",
"/ f.O.d g z L l.b.v.v.b.z.P z x x x x j a ! d.A.%X&X*XXXN.s.S z g g ;.f.s.s.s.f.| s d d g x c b I ].$XZ.c.x.l.! l h s _ d.s.d.,.",
"g Z n s G 8.g.{. X X X X{.h.0.q.q.q.q.^ d x B *.$X&X&X$X.X`.p.5.B d m Z C C C Z b f f s D 8.p.U.!.#X%XXX}.V.k.y.q.R s c C C C b ",
"e d g h T l.S.$X*X*X&X%X@XA.l.z.z.z.x.} d f p } $X&X&X&X*X+XN.f.F j j j f d d d g k k h U l.A.$X=X&X&X*X%XA.k.z.x.` h j j j j s ",
"r s P 3.f.].|.%X&X&X@XJ.C.c.l.l.l.l.z.{ d f a | $X&X&X&X&XOXm.k.9.4.4.4.K s f s R 5.5.3.d.'.|.%X&X&X&X&X$XA.k.l.l.r.4.4.4.5.5.O.",
"t d ~ k.D.&X*X&X&X%XOXM.j.l.l.l.l.l.z.{ d f a | #X%X%X%X%XoXm.l.z.z.z.z.Q d g d ` z.z.l.D.%X*X%X%X%X%X%X#XA.k.l.l.z.z.z.z.z.z.5.",
"L ,.X.P :.$X&X*X+XK.D.c.l.l.l.l.l.l.z.{ d f s ! D.F.F.F.F.D.x.l.l.l.l.l.9.:.>.,. .P o.k.S.%XXXJ.F.F.F.F.F.v.l.l.l.l.l.l.z.3.Y S ",
"' v.%.i ` #X&X*XXXv.k.l.l.l.l.l.l.l.z.{ d f s Y j.k.k.k.k.k.l.l.l.l.l.l.z.x.x.v.o.i R k.S.%X|.c.k.k.k.k.k.l.l.l.l.l.l.l.x.%.s i ",
"` x.%.s W H.L.L.H.x.l.l.l.l.l.l.l.&.! A s J $.2.l.l.l.l.l.l.l.l.l.l.l.l.l.l.l.x.o.s M Q $.H.F.x.l.l.l.l.l.l.l.l.l.l.z.,.~ G f p ",
"` z.%.s P j.l.k.k.l.l.l.l.l.l.z.z.! p d s ( v.x.l.l.l.l.l.l.l.l.l.l.l.l.l.l.l.x.o.d d p H g.k.l.l.l.l.l.l.l.l.l.l.z.x.| a s s i ",
"%.~.0.d M ` +.h.l.l.l.l.l.l.k.&.` Z d f d A ' *.k.l.l.l.l.l.l.l.l.l.l.l.l.l.l.x.o.d f s K h.l.l.l.l.l.l.l.l.l.l.z.>.' G s T r.&.",
"5.:Xj.s s a S g.x.x.z.l.l.l.k.I p d f d s s p U z.z.l.l.l.l.l.l.l.l.l.l.l.l.z.v.O.d d p J k.z.l.l.l.l.l.l.l.l.l.z./ p d a %.;XP.",
"5.-XS.' Y f n | X...@.s.l.l.k.U s f f F ' K s C ..=.j.l.l.l.l.l.l.l.l.l.l.l.4.X.I d B _ ] ..&.h.l.l.l.l.l.l.l.l.z.( s f a $.=XK.",
"5.=X/.x.,.f s d d s c r.c.x.z.I p s p { c.+.a s s G j.x.x.x.x.x.x.x.x.x.x.c.` a s i R x.2.g C g.x.x.x.l.l.l.l.z.c.) s d u @.=XK.",
"5.=X{.P.h.~ I h f d z  .&.&.%.` Q } @.p.P.t.Q J f N #.&.&.&.&.&.&.&.&.&.&.&.L s K @.2.z.2.h n @.&.&.=.d.l.l.l.4.%.K s L +.h.=XK.",
"5.*X&X*X'.x.7.j s s d f f f g ,.c./.*X&X*X~.l.;.d s s s s d f f f f f f d s s u >.-X(.z.1.g d f f f x w.c.x.z.R s d i 3.=X&X=XL.",
"5.*X&X*X'.x.e.R I U L l f f g [ ,.L.=X&X*X'.G.i.U I I I U K k f f f f f A U ~ ` h.=X[.H.d.T H h f f l +.,.,.>.F s L ] l.=XoX'.M.",
"5.=X*X=X].z.l.j.j.k.u.N s f f g g g.-X&X&X&X&X).k.j.j.j.k.y.m s f f f f &.k.R.$X%X&X&X&X'.z.7.l d f f g h h h d a u.&X%X*X^.x.6.",
">.}.{.}.Q.z.l.l.l.z.s.E D l f f d f.-X&X&X&X*X_.z.l.l.l.z.a.R S k f f f *.z.W.*X&X&X&X*X].c.r.L S j f f f f f H Q n.=X&X*X^.z.5.",
"' c.x.x.x.l.l.l.l.l.l.h.a.D d f d g.:X*X*X*X=X_.z.l.l.l.l.l.g.i.Z d f f *.z.W.*X&X*X*X=X].x.k.h.w.b s f f d f l.@X#X&X&X*X^.z.5.",
"` z.l.l.l.l.l.l.l.l.l.l.g.F d f d 7.!._..X X.XQ.z.l.l.l.l.l.l.d.A d f f *.z.W.*X@X X X.X^.x.l.z.i.K B j f M Z V.-X&X&X&X*X^.z.5.",
"` z.l.l.l.l.l.l.l.l.l.z.h.F d d d x n @.n.b.v.c.l.l.l.l.l.l.l.d.Z s f f *.z.W.=X~.c.v.v.c.l.l.l.k.s.r.V h >.f./.*X&X&X&X*X^.z.5.",
"` z.l.l.l.l.l.l.l.l.k.i.e.A d c m k s _ u.s.l.l.l.l.l.l.l.l.l.f.P n j f *.z.Y.+XT.k.l.l.l.l.l.l.l.l.s.C h 4.x.).*X&X&X#XOXW.z.5.",
"` z.l.l.l.l.l.l.l.z.a.J b j g $.i.R s z b [ z.l.l.l.l.l.l.l.l.k.p.t.H d *.x.v.m.v.l.l.l.l.l.l.l.l.l.s.C h 4.x.).*X&X*X!.n.v.z.5.",
"` z.l.l.l.l.l.l.l.z.p.N s f g ,.c.~ s f a Q s.f.l.l.l.l.l.l.l.l.f.p.J d @.d.g.l.l.l.l.l.l.l.l.l.k.s.r.V h 4.x.^.#X@X#XT.k.l.z.5.",
"` z.l.l.l.l.l.l.l.z.p.B d f g >.x.~ s f f x B ) k.l.l.l.l.l.l.f.T B l f n V &.x.l.l.l.l.l.l.l.z.i.K B j j 4.z.n.B.B.B.b.l.l.z.5.",
"` z.l.l.l.l.l.l.k.h.t.N d l x 2.v.( h h f f a I f.g.g.g.g.g.g.i.D h g f d s X.x.l.l.l.l.l.l.l.z.y.b s f j 1.h.j.k.k.k.l.l.l.z.5.",
"` z.l.l.l.l.l.z.u.U S k l s.L.(.{.c.5.! d f d x F G G G G G G K -.4.D s f d X.x.l.l.l.l.l.l.l.z.y.n d f g C H 4.x.l.l.l.l.l.z.5.",
"` z.l.l.l.l.l.k.w.c s f x P.;X*X*XP.z.| g h h g f f d d d d f z 0.l.L s f d ..l.k.l.l.l.l.l.l.k.t.n d g h d f =.l.k.l.l.l.l.z.5.",
"` z.l.l.l.z.e.R J j f f x K.=X&X&XL.k.e.>.,.,.,.,...j f d x $.1.d.j.L s f f V P $.z.l.l.l.z.t.E K j l +.:.C f S I ,.z.l.l.l.z.5.",
"` z.l.l.l.z.7.j d f f f x K.=X&X&XL.k.z.x.x.x.x.c.6.k f d b y.c.l.j.L s f f d p ) z.l.l.l.z.9.k d f x w.l.H d d a O.x.l.l.l.z.5.",
"` z.l.l.l.z.7.l f d v q.x.{.*X&X&XL.k.l.l.l.l.l.z.5.k f d N G.(./.^.w.$.F d f d V Q #.l.l.z.9.l x o.:.L.^.9.$.S s D ! Q W %.z.5.",
"' x.z.z.z.x.8.l f s M ^.:X*X&X&X*XL.k.l.l.l.l.l.z.5.k f d V ).=X*X&XG.z.W a f f d p R z.z.x.0.k n i.n..X&XS.k.T a d s s p Q x.6.",
"B ' ` ` ` ' W h c [ =.'.*X&X%X/.U.B.l.l.l.l.l.l.z.5.k f d V (.*X&X%XD.k.<.X.H d f d B ` ` ` ]  .*.L.~.+X&X).W.9...F d f d C ' Y ",
"e s s s s s s a M p.M.XX=X*X&XF.j.l.l.l.l.l.l.l.z.5.k f d V (.*X&X%XD.k.z.c.` p d f d s s p C s.M.+X*X&X&X*X=XK.x.( p s s s a y ",
"r f f f f f b ) X.f.c.U.W.W.E.N.k.l.l.l.l.l.l.l.z.5.k f d V (.*X&X%XD.k.l.z.<.' J f f d m _ %.J.W.#X&X&X%X(.E.B.l.>.` ' ' ' ] T ",
"e s s s s a S j.x.l.l.k.k.k.k.l.l.l.l.l.l.l.l.z.c.6.k f p N (.*X*X&XD.k.l.l.z.c.O.d f s K j.C.#X*X&X&X*X%XA.j.l.l.z.z.z.z.z.x.6.",
"n ~ ~ ~ ~ ! ) #.;.h.l.l.l.l.l.l.l.l.l.l.l.l.z.y.%.' h b o.<.}.%X`.~.B.k.l.l.l.x.o.d f s K h.V.@X&X&X$X_.~.N.k.l.l.l.l.l.l.l.z.5.",
"` z.l.l.l.z.7.k N a.c.l.l.l.l.l.l.l.l.l.l.l.x.:.g d p J |.=X&X#XV.k.l.l.l.l.l.x.X.a d s K h.V.@X&X*X#XB.k.l.l.l.l.l.l.l.l.l.z.5.",
"` z.l.l.l.z.7.k b %.1.f.l.l.l.l.l.l.l.l.l.l.x.:.g x P { W.].$X#XV.k.l.l.l.l.l.z.>.U S s K h.V.@X$X'.(.m.k.l.l.l.l.l.l.l.l.l.z.5.",
"` z.l.l.l.z.7.l f f b r.x.l.l.z.z.z.z.z.z.z.c.>.f G g.l.x.M.+X%XV.k.l.l.l.l.l.l.l.x.=.d K h.V.$XOXm.z.l.l.l.l.l.l.l.l.l.l.l.z.5.",
"` z.l.l.l.z.7.l f d x *.6.f.l.w.4.4.4.4.4.4.6.| f C 2.5.4.9.A.G.v.k.l.l.l.l.l.l.i.6.{ d K h.M.'.).b.l.l.l.l.l.l.l.l.l.l.l.l.z.5.",
"` z.l.z.z.x.8.l f d d j c 8.z.R h j j j j j k j f g k k j j k n q.x.l.l.l.l.l.x.+.j h s K h.l.x.x.l.l.l.l.l.l.l.l.z.z.z.z.z.x.6.",
"` z.s.q.q.q.*.k j V V j j &.q.H s b Z C Z b f f f f f j V C C D >.w.f.l.l.l.l.x.o.d f s K h.l.l.l.l.l.l.l.l.l.l.l.i.0.q.q.q.q.%.",
"` c.=.x x x l d m e.r.M s k z g d o.f.s.f.X.s d d d d B r.s.s.y.G x 3.c.z.z.z.c.o.d f a K j.z.z.z.l.l.l.l.l.l.z.x.' l x x x x h ",
"! u...f f d h n J s.d.Y A A A A A >.x.l.x.*.n m m v f V a.l.l.f.I m -.u.y.y.y.u.[ d k n T e.y.y.u.k.l.l.l.l.l.a.y.Q s f f f f p ",
"a n z d f d A e.p.k.v.!.`.`.`.`.`.S.k.l.l.f.u.u.i.:.j V a.l.l.k.p.t.Y v b b b n z s U i.:.M n b F p.z.z.z.z.l./ v l f f d d d p ",
"i x x c z d A y.d.k.b.XX=X*X*X*X*XU.v.b.b.c.z.z.x.6.j B e.s.k.l.z.k.Q b m m v x c z ^ x.4.b z d b 0.s.a.a.a.p.I a f f k c c c h ",
"W e.w.r.#.g j N P a.n..X*X&X&X&X&XOX.X.XXXR.l.l.z.5.k j N H u.z.l.l.L.Q.Q.!.n.q.w.w.i.l.g.e.;.l h N V V V V V l d f d ^ e.w.e.&.",
"' x.z.c.2.z j s m r.x. X*X&X&X&X&X&X*X*X=X~.l.l.z.5.k f s v u.v.c.v.[.-X=X-XT.l.z.z.z.l.l.x.q.b k f d d d d d k x x z ..b.c.x.6.",
"` z.l.l.d.7.$.k j A E /.=X&X&X&X&X&X&X&X*X~.l.l.z.5.k f d B U.}.{.}.@X&X&X*XY.k.l.l.l.l.l.l.g.8.:.c d f f f g 0.I.L.K.!.}.Y.z.5.",
"` z.l.l.l.x.8.l f s M Q.*X%X%X%X%X%X%X%X&X!.l.l.z.5.k f g Z ).=X*X*X&X&X&X*XY.k.l.l.l.l.l.l.l.x.u.M g f f g j m.:X=X=X*X*X^.z.5.",
"` z.l.l.l.z.7.l f d b k.G.D.D.D.D.D.D.D.F.B.l.l.z.5.j n =.9.|.&X&X&X&X&X&X*XY.k.l.l.l.l.l.l.l.l.h.3.=.m g ..1.R.=X&X*X).D.B.z.5.",
"_ l.k.k.k.l.6.l f d v q.k.j.j.j.j.j.j.j.j.j.k.k.l.4.j V a.n.XX$X$X$X$X$X$X%XU.j.k.k.k.k.k.k.k.k.k.l.s.C h 4.c.(.%X$X%XT.h.j.l.4.",
"x U I I I U S r w q y G U I I I I I I I I I I I U S e p K T | ............X./ I I I I I I I I I I I K p e A U ' X...X.( I I U S "
};
