/* XPM */
static char *result[] = {
/* columns rows colors chars-per-pixel */
"32 32 43 1 ",
"  c #030303",
". c #080607",
"X c #0D0A07",
"o c #0D0A0B",
"O c #130F0D",
"+ c #16110E",
"@ c #1A140E",
"# c #130E10",
"$ c #171211",
"% c #1C1512",
"& c #1F1815",
"* c #21180E",
"= c #231B15",
"- c #281E15",
"; c #261D19",
": c #281F1A",
"> c #2D221A",
", c #33261C",
"< c #36281C",
"1 c #3C2C1D",
"2 c #372A20",
"3 c #3B2C22",
"4 c #3F3022",
"5 c #402F1E",
"6 c #42311F",
"7 c #402F21",
"8 c #443222",
"9 c #493624",
"0 c #4D3926",
"q c #473628",
"w c #4E3A29",
"e c #523C27",
"r c #583F26",
"t c #543E29",
"y c #594027",
"u c #56412C",
"i c #5A422B",
"p c #574330",
"a c #5C4631",
"s c #5F4932",
"d c #61462B",
"f c #624C35",
"g c #664E38",
/* pixels */
"Oqrq><6qwt=&ew7-85wwq9re0req7u04",
" 3i-+q80wr+oweO:090e78ewqee980e<",
"=rr%%38wiu,,iqO:83prewrq8er0wstw",
"rew,3<>3ee1rr8,<2>we93rw8ee88ee1",
"ery1ru>2re8ei95iw>8iq8et19twrer8",
"yyi61=@>0rqrye1<+%1u0eer44981ue8",
"fswwf>;rrr9fi0ii&<ur9eft9sfe8ee8",
"uw06uw29yi,ueq9iq<ri91rw1ei93e01",
"r9-%w<qeie898O<83wri9999<0r0qrq5",
"ui<,e38ee0qii;6938reqwrewye96re8",
"y0e0reqtreere09rr0trweee9ee0wreq",
"i80wer5qwq5eeweew1qe78q80yeq3qw1",
"y&89rq2pee8rqq9r0eir90:,qwt2wur3",
"r>89re>8ttqe099re7pte0330wt32utq",
"eqq9rw%7te1re99eeqee85eq6et>>rr1",
"ere<q: 3ii8er9<ewqer09er153.;ei8",
"y0e668,8ee9eeq8q01rw9eee88811er8",
"fsueff8ede8fiwrfi7ee99fu0sge8dr3",
"w61,046ei019853re7ew8198,6688ie1",
"iy>*9;qe080req8e09rqqwr7X0:8wr88",
"ii81ew8eee8irwee09reqwaw2re99er8",
"iee0erqtuwwe00wre9twe>8rq810qiwq",
"uee9ee1q00103wwrq10w8 ;t8$>q3we<",
"y0q9er9sie08%08r73srt$1i,O39warq",
"r009ee1eee8q390eq;0rw<ir,->2>et3",
"eee6uewye03e088u>$ei98er50t8,rr3",
"yer,8010re9er9,1%O8i0qrd655=%8i8",
"iuw9ua60e00urq0ui7re00se6i,O8er8",
"sse8si49r01fie0fr1ii98frqip,8ui1",
"e5q,0r9008698=<139ie8591*978qyy1",
"iuweee8eeqepr$5339r9qei9Oe,79ur8",
"ure0rr8eeeqtr8qr09re0qte7rrq0re8"
};
