/* XPM */
static char *result[] = {
/* columns rows colors chars-per-pixel */
"48 48 121 2 ",
"   c #0F152D",
".  c #0D162D",
"X  c #0F172E",
"o  c #11152B",
"O  c #11162C",
"+  c #11172D",
"@  c #12162D",
"#  c #13162D",
"$  c #12172D",
"%  c #13172D",
"&  c #10172E",
"*  c #12172E",
"=  c #13172E",
"-  c #14172E",
";  c #13182D",
":  c #11182E",
">  c #11182F",
",  c #12182E",
"<  c #13182E",
"1  c #13192E",
"2  c #12182F",
"3  c #13182F",
"4  c #13192F",
"5  c #14182E",
"6  c #15182E",
"7  c #14192E",
"8  c #15192E",
"9  c #14182F",
"0  c #15182F",
"q  c #14192F",
"w  c #15192F",
"e  c #17192F",
"r  c #151A2E",
"t  c #141A2F",
"y  c #151A2F",
"u  c #151B2F",
"i  c #161A2E",
"p  c #161A2F",
"a  c #171A2F",
"s  c #161B2F",
"d  c #171B2F",
"f  c #1D1A2F",
"g  c #181C2F",
"h  c #191C2F",
"j  c #191D2F",
"k  c #1A1D2F",
"l  c #141930",
"z  c #141A30",
"x  c #151A30",
"c  c #141B30",
"v  c #151B30",
"b  c #151B31",
"n  c #161A30",
"m  c #161B30",
"M  c #161B31",
"N  c #151C31",
"B  c #171C30",
"V  c #151C32",
"C  c #161C32",
"Z  c #171C32",
"A  c #161D32",
"S  c #171D32",
"D  c #171D33",
"F  c #191930",
"G  c #191A30",
"H  c #1D1A31",
"J  c #1E1A32",
"K  c #1F1B33",
"L  c #181C30",
"P  c #181D30",
"I  c #181D31",
"U  c #1A1D30",
"Y  c #181E31",
"T  c #191E31",
"R  c #1A1E30",
"E  c #1B1E30",
"W  c #191E32",
"Q  c #1A1F32",
"!  c #1C1F30",
"~  c #1C1D32",
"^  c #191F34",
"/  c #181E35",
"(  c #201B32",
")  c #271D30",
"_  c #201F34",
"`  c #231E34",
"'  c #251F35",
"]  c #192231",
"[  c #1B2032",
"{  c #1A2332",
"}  c #182137",
"|  c #192137",
" . c #1B2136",
".. c #1B2237",
"X. c #1B2238",
"o. c #1C2338",
"O. c #1D2338",
"+. c #1D2339",
"@. c #1C2439",
"#. c #1D2439",
"$. c #1D2539",
"%. c #1E263A",
"&. c #1F273A",
"*. c #2D2139",
"=. c #20293C",
"-. c #202A3D",
";. c #222B3D",
":. c #212A3E",
">. c #30213A",
",. c #3A253E",
"<. c #382A3E",
"1. c #432132",
"2. c #592835",
"3. c #603337",
"4. c #3E2A40",
"5. c #273244",
"6. c #283345",
"7. c #303E50",
"8. c #422C42",
"9. c #374655",
"0. c #844E43",
/* pixels */
"< < < z < < < 4 < < < < < < q 4 < # +.:.O < < < ; < < < < < < q q < < < < - 6 0 < < < < < < < < ",
"< 5 5 < 5 < < t < < < < * < t < < < $ $ < < < < 4 < < < < < < b x < < < < < q 5 < < 1 < < < < < ",
"< < < 4 D < < < < < < * Y y < < < < < < < < < < < < < < < < < < < < < < < < < < < < 4 < < < < < ",
"< < < < < < < < < < < * Q m 9 < < < < < < < < < < < 9 q < < = 3 < < < < < < 5 < < < < < < < < < ",
"< < 5 < < < < < < < < < $ 4 5 < M < < < 5 < < < < q q < < = ] u < < < < < q t < < < < q 7 < < < ",
"< < < 5 5 < , < < q < < < < q < v < < < 9 q < < < < < < < < u 7 < < < < < z x < < < < < < < < < ",
"< < < < 9 < H 5 < < < < < < < < < < < < < < < < < < < < q < < < < 5   : q < < < < < < q < < < < ",
"$ < < < < < F 5 < < < < < < < < < < < < < < < < q < < < < < < < & 2.0.) : < < < q < 5 < < < < < ",
"/ < < < < < < < < < < < < < < < < < < < x q < < < < < < < < < < 2 f 3.1.X < < < < < < < < < < < ",
"M < < z x < < < < < q 9 q < < x < < < < c q < < < < < < < < < < < , . > < < < < < < < < < < q < ",
"< < < b q < < < < 5 y q < < < q < 5 < < * < < < y < < < < < < < q A < < < < < < < < < < < < < < ",
"< q q < < < < < < 8 5 < < < < < < q < 7 g < z < < < < < 5 < < < 5 q < < < < < Z < 5 < < q < < < ",
"< < < < 5 < q 9 < x q < < < < < 5 < < 7 d < z < , < < < q < < < 5 < < q < < < < q q < q q < < < ",
"< < < < 9 q < < O 6.=.@ < < < 5 < < < < < 9 < < ~ p q 0 < < < < < < < < < < < $ b v < < < < < < ",
"< < < < z b < < < 5 < < b 4 < q x w < < < < < 1 <._ * 5 < < < < < < p < < < q [ $ < 4 0 9 < < < ",
"< < < < < < < < < < < < v 1 < < < < < < < < < < < < < 9 < < < < < < U 8 < 9 q W < < < < < < < < ",
"< < < < < < < < 4 1 < < < < q < < < < < q q < < < < < q w < < 4 < 5 , < < < < * < < < < < < < < ",
"< < < y 5 < p w < < < < < < < < < < < 5 < < < < < < < < < < < < = < < < < < < < n 5 < < 7 q < < ",
"5 < < < < < d r < < < < < < < < < < < q q < < < 5 < < < < < < m T * < q b < < < < < < < < < < < ",
"w ( < < < < < < < < < < < 7 d < < < < q q < < < 9 < < D q < 4 m T * < q b < < < < < < q < < < < ",
"9 0 < < < < < < < < < < q 7 d < < < < < < < < < < < < < < < < < * < < < < < < 8 < < q q < < 9 < ",
"< < q q < < q < 5 < < q q 3 < < v 1 < N x < < < q < < * < < < < < q q < 5 < 7 U < < < < < < < $ ",
"< < z C < < < < 5 < < C x q < * { u < q 7 < q q < < < ! q < < < % % < < < 9 < < < < < < < q < | ",
"5 < < < < < < q q < < < < < C ^ $ < < < < < < < < < < k 5 5 < $ ;.9.q < < < < < < < q q < < ; | ",
"9 < < q < < 5 < < < q < < $ &.5.@ < 5 , < < 5 < < < < = < < < < Z #.< < < < < < < < < < < < 5 $ ",
"< < < < < < < < < < < < < < < = < < < g p < < < < < < < < < < < < $ < < r 7 < 5 < q x < q $ $ < ",
"< < < < < $ $ < < < < < < < < < < < < 8 7 < < < < < < < < < b b 5 < < < g y < 5 5 q b < $ $...$ ",
"< < < < < ` ' = < < < 7 < < < < < < < < < < < 9 < < < , < < w q < < < < , < < < < < < < @ -.%.$ ",
"< < < < < 4.8.< < < * h i < q < y < < < < < < 5 < < < G 0 < 5 < < < 5 < < < < x < < < < < @ $ < ",
"q M < < < 5 5 < 9 < < < < < < < < < < < y w < < < < , ,.K , < < < < < < < < < < < < < < < q < < ",
"< < < < < < < < < q < < < < q z < < < < s p < < < < < < < < < < < < < < < < < < < < < < < < < < ",
"q < < < < < q < < < q < < < z v < < < < < < < < < q < 5 < < < < < 9 < < < < < < a d < < < < < < ",
"< < q < < < q < < < 4 < < < < < < < < < < < < < < < < < 7 5 < < < q < < N < < < 8 y < < < < < < ",
"< < < < < < < < < 5 5 q < < < < < < < < 9 5 < < < < < < 7 5 < < < < < < v < < < < < < < M z < < ",
"< < < q q A < < < < < S w < < q 3 < < < 9 5 4 C < < < < < 9 < < < < < < < < < < < < < < x q < < ",
"< < < q < < < < < < < 5 5 < % o * < < < < < < z < < < C < < < < < < < q < q < 4 < < < q 5 < < < ",
"< < < < < < < q < < < < 4 C } 7. .$ < < 1 q < < < < < l < < < D q < < < < 5 < < s < < < < < < < ",
"< E 5 < < < q < < < < < z b V X.Z q q < q < < < < < < < 5 < < < < < < < < < < < j < < < < < < < ",
"< < < < 9 < < < 5 < < < < < < $ z t < < < < < < < < < < q < < < < < 5 < q < < < * < < < < 9 < < ",
"< < < 5 5 < < < q 3 < < < < < 5 < < < < 5 5 < < < < < < < < < < < < < < < < < < < < < < < 5 5 < ",
"< < < < < < < < q 5 < < < < < M O.% < 4 5 < < < q < < < < 1 q < < < < < d < < < < < < q 5 w R < ",
"< < < q z < < = o.@.$ < < < < < 4 < < < < < < q D < < < < < < 5 < < < 7 L < q < q < 0 w 4 < q q ",
"< < < q C < < < < < < < < < < < < 9 < < < < < < < < < < < 5 < < < < < < < < < < < + *.>.+ < < x ",
"* < < < < < < < < < < < q q < q 5 5 < < q 5 9 < < < < < q < < < < < < < < 5 < < < < 9 0 < < < < ",
"I B < < < < < < < < z M < 9 < q < < < < q q < < q q < < x < 5 < q < < < < y < < < < < < < < 5 < ",
"P B < < < < < < < < x v < < q < < < < < < < < < < 9 < < < < < q < 5 0 < < < < 1 < < < < < < 5 < ",
"* < 5 < < < < < < < < < < < < < < < < q < < 5 < < < < < < < < < < e J < q < < < < < < < < 5 < < ",
"< < < < < < q < < < < < < < < < < < < < < < < < < < < < < < < < < < < < < < < < 5 5 < 4 < 5 < < "
};
