/* XPM */
static char *result[] = {
/* columns rows colors chars-per-pixel */
"64 64 104 2 ",
"   c #020202",
".  c #090605",
"X  c #0D0906",
"o  c #050508",
"O  c #090708",
"+  c #0D0B0A",
"@  c #120E0C",
"#  c #16100D",
"$  c #1C140E",
"%  c #161111",
"&  c #1C1613",
"*  c #1F1815",
"=  c #1F1818",
"-  c #20170F",
";  c #23190E",
":  c #231A13",
">  c #291E13",
",  c #251D1A",
"<  c #281F1B",
"1  c #2D2116",
"2  c #2D221D",
"3  c #322516",
"4  c #382613",
"5  c #3B2916",
"6  c #33261A",
"7  c #36281C",
"8  c #3B2B1D",
"9  c #2E2320",
"0  c #312621",
"q  c #362922",
"w  c #3C2D22",
"e  c #3F3026",
"r  c #3E322B",
"t  c #412E1B",
"y  c #44311D",
"u  c #4A361F",
"i  c #402F22",
"p  c #443324",
"a  c #4A3624",
"s  c #473824",
"d  c #4E3926",
"f  c #45352A",
"g  c #493728",
"h  c #46382F",
"j  c #4D3A29",
"k  c #523C27",
"l  c #583F27",
"z  c #553E29",
"x  c #443730",
"c  c #463831",
"v  c #4C3D32",
"b  c #503F32",
"n  c #574027",
"m  c #594126",
"M  c #56402A",
"N  c #5B422A",
"B  c #5F482B",
"V  c #4E4137",
"C  c #4F413A",
"Z  c #554232",
"A  c #5B4532",
"S  c #5E4935",
"D  c #54453A",
"F  c #58473C",
"G  c #56483D",
"H  c #5C4A3C",
"J  c #61462B",
"K  c #64492C",
"L  c #694C2D",
"P  c #6F502F",
"I  c #634B33",
"U  c #694E33",
"Y  c #624E3B",
"T  c #6B5234",
"R  c #66523E",
"E  c #6A5138",
"W  c #725535",
"Q  c #765835",
"!  c #705638",
"~  c #745B3C",
"^  c #7B5D3A",
"/  c #7C603A",
"(  c #5D4D40",
")  c #635345",
"_  c #6B5641",
"`  c #6D5844",
"'  c #62554C",
"]  c #6B5B4E",
"[  c #715A43",
"{  c #725E4A",
"}  c #675A50",
"|  c #7F6546",
" . c #766049",
".. c #7A644A",
"X. c #716051",
"o. c #7F6E5C",
"O. c #84653D",
"+. c #856945",
"@. c #896A41",
"#. c #876D4D",
"$. c #8A6D4A",
"%. c #8F7657",
"&. c #89755E",
"*. c #957A59",
/* pixels */
"O 2 w k k k p a z 7 7 k z f l D A z k v k @ * q j k z d i z p 6 a z p m v S z k h z g N j k k k k i N z k k k d a z G N k a v p ",
"  & w k k z p i : @ @ w z > 5 H k d p A i   + 0 d k k d w 1 % + 2 z 8 1 Z A a a b k 3 B k k k k k i N k k k z a : f Y d d f S > ",
"  . 9 f k k g + & 9 6 j z $ f 3 3 a a a @     = w k k k : + 9 < a z 6 6 u ; s p d : $ N k k k k k p J k k d d p & d ; 8 g a 8 . ",
"    0 k k z p   + q p z k w ^ M J N N N a .   : j k z j @   9 e z l w W I M J N m k w B d k a a z < k z k k k a d W M J B N N 6 ",
". % d J d z p   + < 9 j M p w ' I a f b d % + w J k k k #   , , p l g 8 D _ d a v k p N k z p p z w N k k z N d a k ] z a x M w ",
": 6 T M i N 5   6 < & q p > 0 z k d z U p 2 $ J K p k d   # w % q i 7 , d z k j I k w k k z p p z 1 k k k k k a 6 J z k a I N q ",
"N k N k d l 7 o w w @ p p @ 7 z k k z z 6 t z J n d z d . < d @ 0 g : : z k k k z y 1 N d k k j z w N k z k z y > J d k k k z - ",
"N k k k k z 6 7 z p 7 w i # 0 z k z k M 6 5 N d k k z p : z a 5 w i < & k k k k z a : N k k k k z 1 N z a k k a 8 B k z a g N $ ",
"k k k k z N 6 y z r N f Z ; 7 M k k d z 5 7 z k k z N p > J p z k b w * M k k k z a > z k k a g z - n f f z h j d N k k d k z : ",
"k k N l N K 1 u N Y K g j * 9 p z z N z p d z z N z L y > J Z U a z > < w k k N z j p k k k k k z : B z E z A I a N j k z k z i ",
"J k N N z P 5 & 7 3 5 : X . < X p K z z w d n k K k L k @ 6 3 7 1 #   : @ 1 J N k a 7 N k k z N z $ > 5 8 t a 1 ; B k k l l z 6 ",
"J k K N k L 6 M z 4 + % < + s p p m z l p d m J K d N k 7 J t $ + , % 6 k t z z z a w J k k k k k > L t d a l 6 $ l d k k k z < ",
"K p k k a z p K A N q @ + w B k k k k z p N k d k a k d d I b i , o 9 N z z k d k d j N p k a a k p L v N G K k a N d z a a z w ",
"l ] $.w H N 7 t ~ [ w 0 < & k k k z m z 7 t G %.k b J p 6 J #.a 0 2 * i z k k B z p 3 k &.T x I z 6 k #.N Y I p 1 l k k k z z , ",
"K I K k I l p k N j j d q & a z z z L N 6 u K I k J N a i J z d k e = 7 z z k K J y > K I z N J k w m N z k z a & z k k j d l $ ",
"u a p a p z 7 7 z a N p w q k z J k J K 6 > k p a p z p , z a k k e 0 j z K z m K a $ a t a p a d > a k k k k d 7 z k z p p l $ ",
"d p 6 1 1 <   6 z z 7 a l 6 k l N k k N 6 1 j 7 6 > 9 . # l z t t N 8 p z N z k z a & j 8 7 > i w X a z k z N a 7 N k k p p N $ ",
"O.m N N B #   y N a X w z 7 z k l J k z w T L n N J 6   - B z # : z t a l k K z z p d Q z l J J z 7 m k k k N a 7 N k k p p z 6 ",
"m h k d d :   d N q 0 q d 7 J k N l p z p k g z k j 7   1 J p 9 q f p k N k N p k d g k v k k i h a B k k p d d i B d k a a z w ",
"z I N k k q < m z a g d z : l z k k k z 8 w A I k k p , a B d a j z 3 y N k k k k a 1 k U z k j I p N k k k z p > J k k k k z < ",
"J k k k k z w k M k z k k w B z k k k M p k m k k k k a w N k z k z p z N k k k z d p B k k k k k 7 N k k k z a p J k k k k k q ",
"K d k k k z 8 d l k k k k p N p k k k g p M z k k k z a 8 N d k k z p N j j k k a p a N k k j k k 7 N k k k k d d z g z k d g i ",
"K k a 0 k z s z l k k k z 7 a ] I k p H j d N d k k z a d N d k k m i t G ` k d v I 8 J k q q z k p N k k k z a 7 j X.l k f _ 7 ",
"l k p 2 k z p N z k k k l $ 1 3 > p p a @ 5 N k k k z d a J k k d z 7 & t ; w p g : $ N k w q z k f J k k k k a @ w > 7 i p w . ",
"K k : : j z w a m k k p w , +.a z B N J 6 a N d k d k d 7 N k z a k 5 E K d B B J p 3 N a @ 6 k z 7 z z k k p < s Q u N N J z - ",
"K k = O q N i a m k k p 9 w k ' I k a k d M z k k w d a 7 N k k M N p k G _ k a g k p B a + % g z 7 l k k j w 9 f z ] l k f z i ",
"k z 2 & w z t a M k a a g , 0 A N a v E p p k k k w j d w N d k k l w k J B k a R z w z d & , g z 7 l k k p j w , w U k a H I w ",
"J k q 0 a l i a N k k k w + 7 z k k k N 5 p M k k d k a 7 N k k k z 6 y N d k k l s 3 N g 0 q k k 7 z k k z j 2 + g k j k l z : ",
"J j w q a z i k M k k k q @ 7 z k k d z 6 t N k k k z a t B k k k l 5 a N k k a k p > B p w w k k w N k k z a 2 @ a z k k d z $ ",
"k k z k w N 3 y N w a q , o w z k k k l 6 6 z k k p z p > J i d k f f z l k k g k a $ z k z a p l : m a p p q % + a k k k k z $ ",
"k k k k k M 6 u z H A 9   + q k k J N z a p z k k d k p > N v T a H z z z k k k z d q k k k k d z ; N j R p =   & p z z K z z w ",
"N k k z N z 6 1 p 7 2 %   + 2 q d K N k p d z k k B z a $ u a a a N 3 a N k k N z a p N k k N m z - 8 8 q , O   & 9 i k L z z 7 ",
"K z z k k N 6 6 3 : : 8 7 . w d p B k z 5 a N k k l z a - 7 6 5 p p @ 3 N k k k z p 3 N k k z k z ; 7 > - > i - @ d a d N k k > ",
"K a a k d n w T N N N N J 7 m k k k k z f l z a z a k p k W g N M J p d l k k p k d d B p k k d k w ^ d J A K k w N k k k k z w ",
"N F ~ p v m w y Y R D R k 7 m k J m d z w k b [ k x M d 7 M { j ] l w k M k k d k a 8 k _ I f Z M 7 a { M ' I p i N k K z k z 6 ",
"N ` ~ d I M t d T K z l z - p K L z k m 3 t I | d I J a 8 I W k N M 6 3 z k k k z s 1 N  .N k I k 7 m W z l l a - z L J k k z # ",
"J k u m k z p p k i p a z > a K K d k N 6 t N a z z k d w k a k d N 8 7 l k k w k p ; J a k z k M 7 d a p p g a < z L N k z z $ ",
"6 w 6 > > w X 6 N d 9 w z w z z J k d M 7 $ p 6 6 - p : # z k k k z p d z k z w k a @ w 7 6 : 7 6 X a z p 1 d d p l l N d d z $ ",
"@.B z z k @   t M q   p N > k z z a > N 6 T L z k l J a < l k k N N 7 p M k z w k p p ^ l k m i     k z : + z a 1 N k z 8 8 l : ",
"K p k k N #   d N q , 0 d p N k z d w z p N k j k z p p d N d k p z p z l k k e d d j l a z z d o . J k 9 < q k p N d z a p k f ",
"k H J k d 2 % l M i p p k : l k k k d z t y Z I k d v S a N d k d N 3 y B d k k k a 7 z Y z k f = : K k w p p p > J k k k d z 1 ",
"N l k k k d w z N k k k k 7 N k k k k m w a N z k k l d i N k k k z 8 d N k k k z a w N l k k k a w B k z k M a 8 B k k k k z 6 ",
"K k k k k N 7 a N d k k k f N a d k k a p N M k k k z p 6 J k k k z a N k a k k d a w d p k k k z < k z z z k d g N p k k k a e ",
"K k k k k z p N l j k k k p k ' U z d F z k N d w d k d d N d k k z p d Z ` k k v Y : . 9 p z k z i d w $ 6 k a a k ] N z g ( i ",
"N k k k k z p l N k k k M $ > d 8 f p z : y N j 9 f z a a N k k k M 7 # g p p p a w     : f k k z w > % % , a a @ w p 8 p f k @ ",
"N k k k d z p k z k k p k > E t y z z N & 8 B 8 & g z d p N d k a j < M m 5 z n M 5     + 0 d k z 7 o < 6 d M p 7 T 4 k l z a @ ",
"L k k d w l 7 i l k k z k p K ( I l k z a z N 6 O 6 k a 6 l j z d q 9 K S S m z k N :   % j z k z <   : q p N a k I ( N l d l w ",
"z k k d w z p z z k k N z i k _ J a c I p a z w O 2 k d p N k d p p 0 6 v E d f G l 9 O q K z d z :   & * 0 p d q w _ z a D N w ",
"M k k j p M 8 y M j k j z : m k k d N J w p N p 9 w k p 1 l k k k h = = k d k k I d 6 > k L a a N # . g & 1 r w @ p k k d B l 6 ",
"K k k z z z p z N k k k z > m k k k d z 3 y N w 9 a z j s B k k z w = : k k k k k p > K z z k k z $ : j > * p 2 @ g z j k k z # ",
"k k k k a M 3 y N p d k a 8 B k k d p N 3 6 N d k w k p > J p p a w @ : k k k k z p - z k k k k z ; z k p d w y # g k k k k z $ ",
"k k k d a N 3 y k v N f S a N k k k k z p 8 z k k a z p > B h S q &   , k k l N k d 6 k k k k N z - l f Z z V A # g N k k z z 6 ",
"l k k z m l 3 y N A N k I 7 N z k k M z p j k k k N z p > m j z 2 . . 9 w a N K z a p l d J z K J - k z L k w & & < 8 z N l k w ",
"K k z k M z 7 # > 6 1 p 7 + k z k z m M 8 a N k k z k a @ > # # & :   * g w N N k a 3 B k L k m L $ : ; - # & . + 6 # d J k z > ",
"K k k k k N 6 T J k l l N , a z k j p M p n M d k k z p s Q a N k K 7 8 N d k k z a p B z J z z N 6 / k 8 % % , > N d k k k z w ",
"J h N d f z p k Z I D E k i B k k d d k p n z M z p k d y z Y j ] N p M l z N k z d p l h N a j z i z ( N 0 # & g N k z k j k w ",
"N ] $.p Y N 7 y ~ ! z N z - a k k k z l 6 t H *.d F K p 6 U +.k I N 6 3 N L J k z s > z &.P h I k 6 z +.I w q , & l j d N N k $ ",
"L l k N B l a d z d k d M : p z k d i N 6 y K z k J z k i l i a d z 6 6 J L k k n y > K z k N l k i k d i z g 9 6 z N N N L z $ ",
"7 p 7 5 7 a $ 7 N k k k z w z z z d q N 6 $ p 8 8 3 a 7 - z z w 0 d p d z K z k z a @ i t 8 6 p a # a k k z p i f z N N d J N # ",
"~ k a y a M : 7 z k k N z > k k z j w N 3 M I u i u <   $ M d % > J 7 p l z k 6 d p 7 T d p y 7 O   d l t & N a > l k l z k z - ",
"Q d z m N d p z z k d j z 8 B k z j w z p K N k l J 7   ; K a % < d p z l d z q d a j K a N N j   . N l 3 & p d p N j K N d z w ",
"z V N k p V k z l k d d z 1 m k k k g z p a v S k k w o 6 K p q w d 8 u N k k d k d p j G l k p @ & J k q w w a 3 N k l d d k 7 ",
"N N N k k K a z N k k k z > m z k k k l 8 t N N k k a 0 a N d k k z 7 a N d k k z a 6 l N z k k w w J k k k z p 3 J k k k k z > ",
"K d k k k z 7 a N d k k k p J k k k k z p M N d k k z a 6 N k k k z p z l k k k k a a B d k k k z 1 m k k k z j a N j k k k k w "
};
