/* XPM */
static char *result[] = {
/* columns rows colors chars-per-pixel */
"48 48 121 2 ",
"   c #0F152D",
".  c #0D162D",
"X  c #0F172E",
"o  c #11152B",
"O  c #11162C",
"+  c #11172D",
"@  c #12162D",
"#  c #13162D",
"$  c #12172D",
"%  c #13172D",
"&  c #10172E",
"*  c #12172E",
"=  c #13172E",
"-  c #14172E",
";  c #13182D",
":  c #11182E",
">  c #11182F",
",  c #12182E",
"<  c #13182E",
"1  c #13192E",
"2  c #12182F",
"3  c #13182F",
"4  c #13192F",
"5  c #14182E",
"6  c #15182E",
"7  c #14192E",
"8  c #15192E",
"9  c #14182F",
"0  c #15182F",
"q  c #14192F",
"w  c #15192F",
"e  c #17192F",
"r  c #151A2E",
"t  c #141A2F",
"y  c #151A2F",
"u  c #151B2F",
"i  c #161A2E",
"p  c #161A2F",
"a  c #171A2F",
"s  c #161B2F",
"d  c #171B2F",
"f  c #1D1A2F",
"g  c #181C2F",
"h  c #191C2F",
"j  c #191D2F",
"k  c #1A1D2F",
"l  c #141930",
"z  c #141A30",
"x  c #151A30",
"c  c #141B30",
"v  c #151B30",
"b  c #151B31",
"n  c #161A30",
"m  c #161B30",
"M  c #161B31",
"N  c #151C31",
"B  c #171C30",
"V  c #151C32",
"C  c #161C32",
"Z  c #171C32",
"A  c #161D32",
"S  c #171D32",
"D  c #171D33",
"F  c #191930",
"G  c #191A30",
"H  c #1D1A31",
"J  c #1E1A32",
"K  c #1F1B33",
"L  c #181C30",
"P  c #181D30",
"I  c #181D31",
"U  c #1A1D30",
"Y  c #181E31",
"T  c #191E31",
"R  c #1A1E30",
"E  c #1B1E30",
"W  c #191E32",
"Q  c #1A1F32",
"!  c #1C1F30",
"~  c #1C1D32",
"^  c #191F34",
"/  c #181E35",
"(  c #201B32",
")  c #271D30",
"_  c #201F34",
"`  c #231E34",
"'  c #251F35",
"]  c #192231",
"[  c #1B2032",
"{  c #1A2332",
"}  c #182137",
"|  c #192137",
" . c #1B2136",
".. c #1B2237",
"X. c #1B2238",
"o. c #1C2338",
"O. c #1D2338",
"+. c #1D2339",
"@. c #1C2439",
"#. c #1D2439",
"$. c #1D2539",
"%. c #1E263A",
"&. c #1F273A",
"*. c #2D2139",
"=. c #20293C",
"-. c #202A3D",
";. c #222B3D",
":. c #212A3E",
">. c #30213A",
",. c #3A253E",
"<. c #382A3E",
"1. c #432132",
"2. c #592835",
"3. c #603337",
"4. c #3E2A40",
"5. c #273244",
"6. c #283345",
"7. c #303E50",
"8. c #422C42",
"9. c #374655",
"0. c #844E43",
/* pixels */
"< < 5 < 4 < 5 5 < < < < < < < < < < < < < < < < < < < < < < < < < < < < < < < < < q < < < < < < ",
"< < 5 < < < < < < < < q < J e < < < < < < < < < < 5 < < q < < < < < < < < < < < < < < < < 5 < * ",
"< 5 < < < < < < 1 < < < < 0 5 < q < < < < < 9 < < < < < < < < < < q < < v x < < < < < < < < B P ",
"< 5 < < < < < < < < y < < < < q < 5 < x < < q q < < q q < < < < q < 9 < M z < < < < < < < < B I ",
"< < < < 0 9 < < < < 5 < < < < < < < < q < < < < < 9 5 q < < 5 5 q < q q < < < < < < < < < < < * ",
"x < < + >.*.+ < < < < < < < < < < < 5 < < < < < < < < < < < 9 < < < < < < < < < < < < C q < < < ",
"q q < 4 w 0 < q < q < L 7 < < < 5 < < < < < < D q < < < < < < 4 < < < < < $ @.o.= < < z q < < < ",
"< R w 5 q < < < < < < d < < < < < q 1 < < < < q < < < 5 4 < % O.M < < < < < 5 q < < < < < < < < ",
"< 5 5 < < < < < < < < < < < < < < < < < < < < < < < 5 5 < < < < 5 < < < < < 3 q < < < 5 5 < < < ",
"< < 9 < < < < * < < < q < 5 < < < < < q < < < < < < < < < < t z $ < < < < < < 5 < < < 9 < < < < ",
"< < < < < < < j < < < < < < < < < < < 5 < < < < < < < q < q q Z X.V b z < < < < < q < < < 5 E < ",
"< < < < < < < s < < 5 < < < < q D < < < l < < < < < q 1 < < $  .7.} C 4 < < < < q < < < < < < < ",
"< < < 5 q < < < 4 < q < q < < < < < < < C < < < z < < < < < < * o % < 5 5 < < < < < < < q < < < ",
"< < q x < < < < < < < < < < < < < < 9 < < < < < C 4 5 9 < < < 3 q < < w S < < < < < A q q < < < ",
"< < z M < < < < < < < v < < < < < < 5 7 < < < < < < 5 9 < < < < < < < < q 5 5 < < < < < < < < < ",
"< < < < < < y 8 < < < N < < q < < < 5 7 < < < < < < < < < < < < < < < < < 4 < < < q < < < q < < ",
"< < < < < < d a < < < < < < 9 < < < < < 5 < q < < < < < < < < < v z < < < q < < < q < < < < < q ",
"< < < < < < < < < < < < < < < < < < < < < < < < < < p s < < < < z q < < < < q < < < < < < < < < ",
"< < q < < < < < < < < < < < < < < < , K ,., < < < < w y < < < < < < < < < < < 9 < 5 5 < < < M q ",
"< $ @ < < < < < x < < < < 5 < < < 5 < 0 G < < < 5 < < < < < < y < q < i h * < < < 8.4.< < < < < ",
"$ %.-.@ < < < < < < < , < < < < q w < < , < < < 9 < < < < < < < < < < < 7 < < < = ' ` < < < < < ",
"$ ..$.$ < b q 5 5 < y g < < < 5 b b < < < < < < < < < 7 8 < < < < < < < < < < < < $ $ < < < < < ",
"< $ $ q < x q < 5 < 7 r < < $ < < < < < < < < < < < < p g < < < = < < < < < < < < < < < < < < < ",
"$ 5 < < < < < < < < < < < < #.Z < < < < = < < < < 5 < < , 5 < @ 5.&.$ < < q < < < 5 < < q < < 9 ",
"| ; < < q q < < < < < < < q 9.;.$ < 5 5 k < < < < < < < < < < $ ^ C < < < < < q q < < < < < < 5 ",
"| < q < < < < < < < 9 < < < % % < < < q ! < < < q q < 7 q < u { * < q x C < < 5 < < < < C z < < ",
"$ < < < < < < < U 7 < 5 < q q < < < < < * < < q < < < x N < 1 v < < 3 q q < < 5 < q < < q q < < ",
"< 9 < < q q < < 8 < < < < < < * < < < < < < < < < < < < < < < < < d 7 q < < < < < < < < < < 0 9 ",
"< < < < q < < < < < < b q < * T m 4 < q D < < 9 < < < q q < < < < d 7 < < < < < < < < < < < ( w ",
"< < < < < < < < < < < b q < * T m < < < < < < 5 < < < q q < < < < < < < < < < < r d < < < < < 5 ",
"< < q 7 < < 5 n < < < < < < < = < < < < < < < < < < < < 5 < < < < < < < < < < < w p < 5 y < < < ",
"< < < < < < < < * < < < < , 5 < 4 < < w q < < < < < q q < < < < < q < < < < 1 4 < < < < < < < < ",
"< < < < < < < < W q 9 < 8 U < < < < < < 9 < < < < < < < < < < < < < 1 v < < < < < < < < < < < < ",
"< < < 9 0 4 < $ [ q < < < p < < < < < < 5 * _ <.1 < < < < < w x q < 4 b < < 5 < < < b z < < < < ",
"< < < < < < v b $ < < < < < < < < < < < 0 q p ~ < < 9 < < < < < 5 < < < @ =.6.O < < q 9 < < < < ",
"< < < q q < q q < < < < q < < 5 < < < q < < < , < z < d 7 < < 5 < < < < < q x < 9 q < 5 < < < < ",
"< < < q < < 5 < Z < < < < < q 5 < < < 5 < < < < < z < g 7 < q < < < < < < 5 8 < < < < < < q q < ",
"< < < < < < < < < < < < < < A q < < < < < < < y < < < * < < 5 < q < < < q y 5 < < < < q b < < < ",
"< q < < < < < < < < < < > . , < < < < < < < < < < < q c < < < < x < < q 9 q < < < < < x z < < M ",
"< < < < < < < < < < < X 1.3.f 2 < < < < < < < < < < q x < < < < < < < < < < < < < < < < < < < / ",
"< < < < < 5 < q < < < : ) 0.2.& < < < < < < < q < < < < < < < < < < < < < < < < 5 F < < < < < $ ",
"< < < < q < < < < < < q :   5 < < < < q < < < < < < < < < < < < < < < < < < < < 5 H < 9 < < < < ",
"< < < < < < < < < x z < < < < < 7 u < < < < < < < < q 9 < < < v < q < < < < q < < , < 5 5 < < < ",
"< < < 7 q < < < < t q < < < < < u ] = < < q q < < < < 5 < < < M < 5 4 $ < < < < < < < < < 5 < < ",
"< < < < < < < < < 5 < < < < < < 3 = < < q 9 < < < < < < < < < < < 9 m Q * < < < < < < < < < < < ",
"< < < < < 4 < < < < < < < < < < < < < < < < < < < < < < < < < < < < y Y * < < < < < < D 4 < < < ",
"< < < < < 1 < < 5 q < < < < < x b < < < < < < 4 < < < < $ $ < < < t < * < < < < t < < 5 < 5 5 < ",
"< < < < < < < < 0 6 - < < < < q q < < < < < < ; < < < O :.+.# < 4 q < < < < < < 4 < < < z < < < "
};
