/* XPM */
static char *result[] = {
/* columns rows colors chars-per-pixel */
"48 48 121 2 ",
"   c #0F152D",
".  c #0D162D",
"X  c #0F172E",
"o  c #11152B",
"O  c #11162C",
"+  c #11172D",
"@  c #12162D",
"#  c #13162D",
"$  c #12172D",
"%  c #13172D",
"&  c #10172E",
"*  c #12172E",
"=  c #13172E",
"-  c #14172E",
";  c #13182D",
":  c #11182E",
">  c #11182F",
",  c #12182E",
"<  c #13182E",
"1  c #13192E",
"2  c #12182F",
"3  c #13182F",
"4  c #13192F",
"5  c #14182E",
"6  c #15182E",
"7  c #14192E",
"8  c #15192E",
"9  c #14182F",
"0  c #15182F",
"q  c #14192F",
"w  c #15192F",
"e  c #17192F",
"r  c #151A2E",
"t  c #141A2F",
"y  c #151A2F",
"u  c #151B2F",
"i  c #161A2E",
"p  c #161A2F",
"a  c #171A2F",
"s  c #161B2F",
"d  c #171B2F",
"f  c #1D1A2F",
"g  c #181C2F",
"h  c #191C2F",
"j  c #191D2F",
"k  c #1A1D2F",
"l  c #141930",
"z  c #141A30",
"x  c #151A30",
"c  c #141B30",
"v  c #151B30",
"b  c #151B31",
"n  c #161A30",
"m  c #161B30",
"M  c #161B31",
"N  c #151C31",
"B  c #171C30",
"V  c #151C32",
"C  c #161C32",
"Z  c #171C32",
"A  c #161D32",
"S  c #171D32",
"D  c #171D33",
"F  c #191930",
"G  c #191A30",
"H  c #1D1A31",
"J  c #1E1A32",
"K  c #1F1B33",
"L  c #181C30",
"P  c #181D30",
"I  c #181D31",
"U  c #1A1D30",
"Y  c #181E31",
"T  c #191E31",
"R  c #1A1E30",
"E  c #1B1E30",
"W  c #191E32",
"Q  c #1A1F32",
"!  c #1C1F30",
"~  c #1C1D32",
"^  c #191F34",
"/  c #181E35",
"(  c #201B32",
")  c #271D30",
"_  c #201F34",
"`  c #231E34",
"'  c #251F35",
"]  c #192231",
"[  c #1B2032",
"{  c #1A2332",
"}  c #182137",
"|  c #192137",
" . c #1B2136",
".. c #1B2237",
"X. c #1B2238",
"o. c #1C2338",
"O. c #1D2338",
"+. c #1D2339",
"@. c #1C2439",
"#. c #1D2439",
"$. c #1D2539",
"%. c #1E263A",
"&. c #1F273A",
"*. c #2D2139",
"=. c #20293C",
"-. c #202A3D",
";. c #222B3D",
":. c #212A3E",
">. c #30213A",
",. c #3A253E",
"<. c #382A3E",
"1. c #432132",
"2. c #592835",
"3. c #603337",
"4. c #3E2A40",
"5. c #273244",
"6. c #283345",
"7. c #303E50",
"8. c #422C42",
"9. c #374655",
"0. c #844E43",
/* pixels */
"< < < < < < < < < < < < < < < < < < < < < $ | | $ < $ $ < < < < < < < < < < < < < q x < < < < < ",
"< < < < < < < < < q < < < < < < < < < < 9 < < ; 5 $ ..%.$ < < < < < < < < < < 5 R q < < 5 5 < < ",
"< < < < < < < < < < < < < < < < < q < < < < q < < $ $.-.@ q < < < z q < < < 9 5 w < < < < < 5 5 ",
"< < < < 7 < < < < < < q q < 9 < < 7 < < < < < < < q $ @ < < < < < M x 5 < < < < 5 4 + < < < < < ",
"< < < < q < q < < < < < q < 0 < < < < q q < < q < < < < < < < < < < < q < < < < q w >.0 < < < 4 ",
"< 1 4 < < < < 5 < < < < < < 4 < < < < < q < < q < x b < < < < < < < < < < < < < < 0 *.9 < < < < ",
"< < < < < < < < < < < 5 q v < < < 5 < < < < < < < q q < < < < d y < < < < < < < < < + < < < < 5 ",
"< < < < < < < q < < < < q b $ < < n < < < < < < < < 5 < < < < a 8 < < < s j * < < q < < < < < 5 ",
"0 5 < < < < < < < < < Z < $ [ W * < < < 8 U < < < 5 5 < x < < < < < < 4 < < < < < < < < < 1 < < ",
"6 q < 5 t x < < < < < < < < q q < < < < < 7 < < < < < < < < < < < < < < < < < < < q < < < < < < ",
"- < < < q z < < < < < < < < < 9 < < < < < < 9 < < 7 y < < < < < < < < q 5 < < < < < < 5 y < < < ",
"< < < < < < q : X < < < < < < < < < b b < 5 < < < r g , < < < < N v < < < < q < d L < < < < q < ",
"< < < < < < : ) 1.> < < q < < 8 < < q q < < < < < < < < < < < < < < < q < < < < < 7 < < < < < < ",
"< < < < < <   0.3.. < < < < p U , < < < < q < q < < < < 5 < < < < < < < < < 5 < < < < < < 0 J < ",
"< < < < < < 5 2.f , A q < < < < 5 < * * < q % 9.#.$ < < < < < 9 q < < < < < < < < < < < < 5 e < ",
"q x < < < < < & 2 < q 5 5 < < < < = T T * < % ;.Z < 5 < < < < < < < < < q < < < < < < < q < < < ",
"q b < 3 u 7 < < < < < < < < < < 4 < m m < < < $ < < b q < < < < < < < < D < < < < 5 < < < q < < ",
"< < < = ] u < < < < < < < < < < < < < 4 < < < < < < b w 5 < < < < < < < < < < < q < < < 5 < < < ",
"< < < < = < < < < < < < < < < < < < < < < < < 5 < < < < < , < < 5 5 9 < < < < < 1 < 5 < < < < < ",
"< < < < < < q < < < < 5 q < < < w < < q < < q 5 < < < < 0 K < < 7 7 < < < 5 q < < < < q x < < < ",
"< < < q < < < < < < < < < 0 5 9 q < < D < * ! k = < < , G ,.< 5 < < < C l < < < < < < < < < < < ",
"< < < 9 q < < < < < < < < q * < < < < < < < < < < < < < < , < < < < < < < < < < < < < < < < < < ",
"< < < < q < < < < < < < < p _ < < < < < < < < < < < < < < < < q < < < < < < < < < < < < q 9 < < ",
"; 4 < < < < < q < < y < , ~ <.< < < 5 9 < q < < < < < < < < < < < < < < < < < < q D < < q < < < ",
"< < < < < < < < < < < < < < 1 < < < < < < < q < < < < 9 5 < < < < < C z < < < < < q < < < < < < ",
"< < < < < < < < < < < z z < < < < < < < < < q < 5 < < < < < < < < < 4 < < < < < < < < 9 < < 5 < ",
"< < < < < q < < q q < < < 9 < < q < < < < < < < < < < < < w p < < 5 5 < q < < 5 < < < 5 q < < < ",
"O < < < 5 9 < < x c * g d < < < q < q q < x 7 < < p 7 < < y s < < 9 9 < 1 q < 5 5 < < q q < < < ",
":.$ < < < < < < < < < 7 7 < < < < 5 q q < N q < , g 8 < < < < < < < < < < < < < 4 < < < < < q < ",
"+.$ < < < < < < < < < < < < < < < < < < < < < < 5 < < < < < < < < < < < < q < < < < < < < < < < ",
"# < < < < < < < < < 5 q < < w < < < < < < 1 u < < < < < < < < < < < < < $ q t < % < 9 5 < < < < ",
"< < < < M v < < < < < < 5 < x < < < < < < v { $ @ < < < y < < < < < 3 *  .Z z < O.4 < 5 < < < < ",
"4 < < < < < < < < x q < < 5 q < < < < < < < * ^ 5.= < < < < z v < < q o 7.X.$ 5 M < < q q < < < ",
"q t < 9 5 q < < < < < < < < < < q < < d d < < C &.< < < q < q z < < < % } V < < < < < < < q < < ",
"< < y m 4 < < < < < < < < < 4 1 < < < 7 7 3 q < $ < < < < < < < < < < < C b < < < < < q 9 < < < ",
"< * Y Q $ < < < < q < < < < b v < < < < q q x < < < < < i < < < < < w 5 4 z < < < < < q < < < < ",
"< < * * < < < < < 9 q < < @ < < < < < < < q C < < < < 7 h < < < < q S 5 < < < < < < < < M v < < ",
"< < < < < < < < < q y 5 q =.< < < < < < < < < < q < < < * < < q 4 5 < < < < < < < $ < < z x < < ",
"< < < < < q < < < < 5 8 x 6.5 < 1 < < < < < < < < < < < < < q < < 5 < < < < < 3 5 @.< < < < < < ",
"< < < < < < < < < < < < < O < < 4 < < < < 5 5 q < < < < < 9 < < < < < < < < 5 q q o.< < < < < < ",
"4 t < < < < 5 5 < < < < 9 < < < < w r < < < < q < < < = < < < < < < < < q < < < < = < < < < < < ",
"< < < < < , H F < < < < q < < < < p d < < q < < 5 < $ ' 8.5 < q q < < < < q < < < < < < < < < q ",
"< < < < < < < < < < < < < q b < < < < < < < < < < < $ ` 4.5 < < < < A < < < < < < < < < < < < < ",
"< 5 D < < 5 9 < < x q < 5 9 z < < 5 < < < < < < < < < < < < < < < < q < < < 9 5 < z C < < < < < ",
"z < 4 < < 5 < < < z b < < < < < < y < < < q C < q < < < < < < < < < q q < < < 5 < q q < < < < < ",
"< 5 < < 5 < < < < < < q < < < < < < < < < q z < < < < < < < < < q < < < < 5 < < < < < < < < 5 < ",
"< 5 < < < < < < < < < q < < < < < < < ( 0 < < < < < < < < M < < < < < < < E < < < < < < B B < < ",
"< < < < < < < $ / M < < < < < < < < 5 w 9 < < 5 9 < < < < q < q < < < < < < < < < < < * I P * < "
};
