/* XPM */
static char *result[] = {
/* columns rows colors chars-per-pixel */
"48 48 211 2 ",
"   c #0B0E0E",
".  c #130E0E",
"X  c #0E120E",
"o  c #11100F",
"O  c #1C110D",
"+  c #0B0E10",
"@  c #110E12",
"#  c #0D1212",
"$  c #0E1619",
"%  c #131414",
"&  c #1A1515",
"*  c #161916",
"=  c #1B1A15",
"-  c #141718",
";  c #191719",
":  c #151A1A",
">  c #1B1C1B",
",  c #241917",
"<  c #231D1D",
"1  c #2B1D1B",
"2  c #291A14",
"3  c #1E211D",
"4  c #22221E",
"5  c #2C211E",
"6  c #27271B",
"7  c #30211D",
"8  c #261E21",
"9  c #1D2322",
"0  c #232423",
"q  c #2B2423",
"w  c #252A24",
"e  c #2A2A25",
"r  c #232629",
"t  c #262B2A",
"y  c #2C2D2A",
"u  c #282629",
"i  c #332524",
"p  c #392624",
"a  c #332925",
"s  c #3A2A25",
"d  c #342C2A",
"f  c #3B2D2A",
"g  c #2B3127",
"h  c #2D322D",
"j  c #2F392F",
"k  c #33332D",
"l  c #3C312C",
"z  c #3D3126",
"x  c #2B2F30",
"c  c #2D3232",
"v  c #2E3835",
"b  c #333532",
"n  c #3A3532",
"m  c #353B33",
"M  c #3A3D36",
"N  c #3B3C3B",
"B  c #35393B",
"V  c #422E2B",
"C  c #452D25",
"Z  c #43332D",
"A  c #4A352E",
"S  c #4C392E",
"D  c #45352B",
"F  c #50362F",
"G  c #433431",
"H  c #4A3631",
"J  c #433A33",
"K  c #4C3B33",
"L  c #4D3E38",
"P  c #423E3A",
"I  c #523C34",
"U  c #573C35",
"Y  c #3A4236",
"T  c #3D443B",
"R  c #3C483D",
"E  c #4C4236",
"W  c #44423C",
"Q  c #4E443B",
"!  c #414C3F",
"~  c #544034",
"^  c #53423B",
"/  c #5B453C",
"(  c #5E493D",
")  c #5D4537",
"_  c #64443A",
"`  c #644A3D",
"'  c #6D4C3D",
"]  c #6D463C",
"[  c #764E3E",
"{  c #393F41",
"}  c #3E4241",
"|  c #434442",
" . c #444B43",
".. c #4A4A45",
"X. c #464B49",
"o. c #4B4D4D",
"O. c #5D4B42",
"+. c #574A44",
"@. c #4A5147",
"#. c #4C544C",
"$. c #4B5649",
"%. c #53554D",
"&. c #5F5549",
"*. c #53594B",
"=. c #4E5151",
"-. c #535B52",
";. c #555B59",
":. c #575A57",
">. c #634D42",
",. c #6C4D43",
"<. c #634F4A",
"1. c #724D42",
"2. c #7A4F46",
"3. c #6E5042",
"4. c #685449",
"5. c #7C5545",
"6. c #7A5B4E",
"7. c #765949",
"8. c #635E59",
"9. c #655651",
"0. c #7D5F50",
"q. c #5C6359",
"w. c #5B6658",
"e. c #61655B",
"r. c #626A5C",
"t. c #786759",
"y. c #6C755E",
"u. c #646768",
"i. c #6B6E6B",
"p. c #676963",
"a. c #766963",
"s. c #78726F",
"d. c #747874",
"f. c #6B7363",
"g. c #815545",
"h. c #825B4B",
"j. c #895C4C",
"k. c #825748",
"l. c #8B5E50",
"z. c #8B614F",
"x. c #91604B",
"c. c #8B6553",
"v. c #8F6856",
"b. c #876958",
"n. c #936653",
"m. c #956953",
"M. c #9C6B54",
"N. c #986858",
"B. c #9E705A",
"V. c #93725D",
"C. c #A26D55",
"Z. c #A06F59",
"A. c #A5725C",
"S. c #AA755C",
"D. c #A67559",
"F. c #B17B5F",
"G. c #997B6A",
"H. c #AA6F60",
"J. c #A57560",
"K. c #A57863",
"L. c #AA7B65",
"P. c #AC7D6A",
"I. c #A87565",
"U. c #B27D64",
"Y. c #B67B66",
"T. c #7A8575",
"R. c #77806C",
"E. c #83897B",
"W. c #9B8271",
"Q. c #87917B",
"!. c #AB856F",
"~. c #B48166",
"^. c #B6846A",
"/. c #BC846B",
"(. c #BD8769",
"). c #A88B75",
"_. c #B88874",
"`. c #BF947D",
"'. c #CC8C6E",
"]. c #C3876B",
"[. c #C48C73",
"{. c #C98D75",
"}. c #CA9479",
"|. c #D59677",
" X c #929B88",
".X c #879781",
"XX c #BD9881",
"oX c #BAAF9F",
"OX c #CB9C83",
"+X c #CD9582",
"@X c #D49D83",
"#X c #DD9D80",
"$X c #D8A488",
"%X c #C1AD9B",
"&X c #DAAB94",
"*X c #E2AD8C",
"=X c #E2A78F",
"-X c #E2AE94",
";X c #E5B195",
":X c #C0B1A1",
">X c #C3ADA2",
",X c #EEBEA1",
"<X c #F4C8AD",
"1X c #F7CDB0",
"2X c #E9CAB1",
"3X c #FDDDC1",
"4X c #EDD9C9",
"5X c #FBE5CF",
"6X c #FFE9D2",
"7X c #FFF0D9",
"8X c None",
/* pixels */
"8X8X8X8X8X8X8X8X8X8X8X8X8X8X8X8X8X8X8X8X8X8X8X8X8X8X8X8X8X8X8X8X8X8X8X8X8X8X8X8X8X8X8X8X8X8X8X8X",
"8X8X8X8X8X8X8X8X8X8X8X8X8X8X8X8X8X8X8X8X8X8X8X8X8X8X8X8X8X#.q.r.Q.8X8X8X8X8X8X8X8X8X8X8X8X8X8X8X",
"8X8X8X8X8X8X8X8X8X8X8X8X8X8X8X8X8X8X8X8X8X8X8X8X8X8X8X8Xw.$.! *.R.Q.E.8X8X8X8X8X8X8X8X8X8X8X8X8X",
"8X8X8X8X8X8X8X8X8X8X8X8X8X8X8X8X8X8X8X> $ # # $ 8X8X8X@.q.j 9 4 Y y.Q.T.8X8X8X8X8X8X8X8X8X8X8X8X",
"8X8X8X8X8X8X8X8X8X8X8X8X8X8X< > 6 = # # # $ 9 9 c #. .R x 9 $ 3 t Y w..XT.R.8X8X8X8X8X8X8X8X8X8X",
"8X8X8X8X8X8X8X8X8X8X8X8Xe 8 @ # o # + # : v } #.#.R $.-.} R x v m T  .w.w...:.i.p.8X8X8X8X8X8X8X",
"8X8X8X8X8X8X8X8X8X8X8X* 0 : % @ X # # + $ # 9 j } R R $.$.} R j Y -.#.-.q.} e h i.-...8X8X8X8X8X",
"8X8X8X8X8X8X8X8X8X8X| - > e b y 4 > % # # % # 3 g j Y j j 9 g g g w w h *.q.-.@.*.w.%.8X8X8X8X8X",
"8X8X8X8X8X8X8X8X8Xy u u y | e.8.a.i.o.* # : # : t t b x e > e e h d 6 4 k w.T. XE.e.%.r.8X8X8X8X",
"8X8X8X8X8X8X8X8X8Xd q B h g e k N n #.! : $ # - 9 c x { =.u 0 0 0 0 h e 3 m r.y.q.q.r.p.e.8X8X8X",
"8X8X8X8X8X8X8X8X8Xn N b e z k l W l J J > # # % x r c v o.u.0 > > 0 w d 4 h g j m m Y ..q.8X8X8X",
"8X8X8X8X8X8X8X8Xa d l D ~ 6.6.m.G.).).W.+.4 ; % 9 c t y c i.o.y 0 0 e 0 4 n W W Y g h h X.8X8X8X",
"8X8X8X8X8X8X8X4 4 D _ g.B.U.Y.].[.$X;X&X>XP +.8.& 9 c t 0 X.:.x N %.n k k g W  . .T w w b 8X8X8X",
"8X8X8X8X8X8X8X4 D 6.n.S.(.{.'.|.|.$X*X1X4XoX:X4Xa.% r x e c d.8 y ..k 8 4 y k Y Y @.m g b 8X8X8X",
"8X8X8X8X8X8X8Xz 6.v.m.A.U.].(.'.|.@X&X1X6X7X7X2XoX+.% 0 r u u.} , ..%.b = * 4 w w j b w h 8X8X8X",
"8X8X8X8X8X8X8XK 3.5.5.k.c.C.C.F.[.|.$X,X3X3X3X,X).t.k > r u =.} > x :.N 0 4 * 3 6 3 3 r y 8X8X8X",
"8X8X8X8X8X8Xl s A I ^ ,.3.k.j.n.S.[.@X&X<X1X<X&X!.7.9.4 : r } u.r % x B 8 r 0 = 3 3 3 3 c 8X8X8X",
"8X8X8X8X8X8Xa i a d l H K ) ] g.M.Y.+X@X$X-X-XOXK.t.t.W   : c ;.r u ; n | e > = * * 9 r m 8X8X8X",
"8X8X8X8X8X8Xi i i d f n Z A / ,.h.B._.}.$X$X@X}.L.v.b.<.: # 9 o.r x : 0 c - % 4 3 % 3 3 b 8X8X8X",
"8X8X8X8X8Xe i q i a d f f V H U >.b.!.OX$X+X[.].D.V.c.7.u # - ;.x r 9 : > % * > 3 * * % y 8X8X8X",
"8X8X8X8X8Xe q q i d d d f n d d G I ( b.XXOX(.F.U.L.M.c.G + + | { c r > * % # % * 3 = 4 8X8X8X8X",
"8X8X8X8X8X0 q < q d f f d q 0 r > & q &.4.c._.~.~.Y./.J./ *   c N $ - : % % # # * 3 > N b 8X8X8X",
"8X8X% o . . q s.d q f b i q * X # * % < 9.I c.^.L.^.].P.>.>   : { x v : - - # # % 4 = n P 8X8X8X",
"8X% & o . % . | N , i d d =   # - % % % 3 Q F V.!.L.^._.4.y - $ t { } : : - $ # o 4 > g 8X8X8X8X",
"8X= @ & o % % o u , q f a @ . % % % ; & # l I ` c.m.m.c.` 7 4 % * 9 c - : $ - : % 3 w 4 8X8X8X8X",
"k 8 % % % o % % < n d G d .   % % & - - % i <._ D.(.[.[.' 6 d >   % : : - % # 3 % % w w 8X8X8X8X",
"5 d < = * * & % > , , a l . % # : & - % % 2 6.+X*X;X$XD.[ ) l 0 = @ u - - # % r 3 * 3 k y 8X8X8X",
"8Xn y < & & & % % 0 q q e = . % : & ; = O C _.-X;X|.D.~.{.c.s i q % 0 - # # # h e 3 4 y m y M 8X",
"8Xb n u < ; ; & > q q q i u @ @ - > > < p l.$X=X[.C.}.|.'.m.V i 4 < < - * % * k g h m M Y h y m ",
"8Xn P Q < > 8 < 8 u i i i f V V i 1 , V 2._.+XP.x.[.|.'.~.m.A 5 , 8 > : % # ; y g T *.8XW ..k 8X",
"8X8X8X..n d 8 q q f d i 8 p F ,.1.1.1.j.N.Y.P.5.J.Y.(.F.D.m.I s 1 , > % : % * 8X8X8X8X8X8X8X8X8X",
"8X8X8X8Xn d q q u p G G i p C F ] j.I.Y.H.H.k.h.N.A.D.C.C.Z.I p V ^ 8 % ; 8X8X8X8X8X8X8X8X8X8X8X",
"8X8X8X8Xl l d a s Z G G i i i f D _ g.x.n.2.,.2.6.j.N.C.Z.K.) L a.<.& ; & 8X8X8X8X8X8X8X8X8X8X8X",
"8X8X8X8Xl J l Z K K H V f G i i Z A F F U U ,.,.2.k.M.H.~.!.^ f >.<.@ @ 8X8X8X8X8X8X8X8X8X8X8X8X",
"8X8X8X8XG K D f f K Z 7 7 p p f s C D H H L _ >.,.j.J.~.^.!.I p L O.. 8X8X8X8X8X8X8X8X8X8X8X8X8X",
"8X8X8X8X8XL K Z p s G f p p V V s s Z S F L H U _ c.S.~.^.S.U ^ P & @ 8X8X8X8X8X8X8X8X8X8X8X8X8X",
"8X8X8X8X8X^ L Z s f p p d p f f f V V D A H A I _ k.A.U.!.v.A f % 8X8X8X8X8X8X8X8X8X8X8X8X8X8X8X",
"8X8X8X8X8X8XE D V p p p p i p i a s f z D A K K U 3.m.S.K.l.8X8X8X8X8X8X8X8X8X8X8X8X8X8X8X8X8X8X",
"8X8X8X8X8X8XL H f p p 1 1 8 1 , , 1 7 z D D S H I ) 7.c.V.8X8X8X8X8X8X8X8X8X8X8X8X8X8X8X8X8X8X8X",
"8X8X8X8X8X8X^ H p 7 1 1 1 7 8 7 p a a a A G J K L I ) 7.h.8X8X8X8X8X8X8X8X8X8X8X8X8X8X8X8X8X8X8X",
"8X8X8X8X8X8X&.K f V V f f V G d d d 7 d D Z S K K L ~ >.8X8X8X8X8X8X8X8X8X8X8X8X8X8X8X8X8X8X8X8X",
"8X8X8X8X8X8X8XE V H K G G G G f l f z l l D A K I ^ ( O.8X8X8X8X8X8X8X8X8X8X8X8X8X8X8X8X8X8X8X8X",
"8X8X8X8X8X8X8XQ K D H Z s z f f s l s Z D D S K ^ ( O.8X8X8X8X8X8X8X8X8X8X8X8X8X8X8X8X8X8X8X8X8X",
"8X8X8X8X8X8X8X8XP H D l z f f V Z f D D D S ~ ~ / >.( 8X8X8X8X8X8X8X8X8X8X8X8X8X8X8X8X8X8X8X8X8X",
"8X8X8X8X8X8X8X8X8XE A D H J Z D Z A H S K ) ) ` >./ 8X8X8X8X8X8X8X8X8X8X8X8X8X8X8X8X8X8X8X8X8X8X",
"8X8X8X8X8X8X8X8X8XQ ^ ^ Q ~ I L I / / / / / O./ _ 8X8X8X8X8X8X8X8X8X8X8X8X8X8X8X8X8X8X8X8X8X8X8X",
"8X8X8X8X8X8X8X8X8X8X+.O.O./ ( ( ` ( / ( ` +./ / 8X8X8X8X8X8X8X8X8X8X8X8X8X8X8X8X8X8X8X8X8X8X8X8X",
"8X8X8X8X8X8X8X8X8X8X8X4.O.+.^ 8X8X8X8X8X8X8X8X8X8X8X8X8X8X8X8X8X8X8X8X8X8X8X8X8X8X8X8X8X8X8X8X8X"
};
