/* XPM */
static char *result[] = {
/* columns rows colors chars-per-pixel */
"48 48 211 2 ",
"   c #0B0E0E",
".  c #130E0E",
"X  c #0E120E",
"o  c #11100F",
"O  c #1C110D",
"+  c #0B0E10",
"@  c #110E12",
"#  c #0D1212",
"$  c #0E1619",
"%  c #131414",
"&  c #1A1515",
"*  c #161916",
"=  c #1B1A15",
"-  c #141718",
";  c #191719",
":  c #151A1A",
">  c #1B1C1B",
",  c #241917",
"<  c #231D1D",
"1  c #2B1D1B",
"2  c #291A14",
"3  c #1E211D",
"4  c #22221E",
"5  c #2C211E",
"6  c #27271B",
"7  c #30211D",
"8  c #261E21",
"9  c #1D2322",
"0  c #232423",
"q  c #2B2423",
"w  c #252A24",
"e  c #2A2A25",
"r  c #232629",
"t  c #262B2A",
"y  c #2C2D2A",
"u  c #282629",
"i  c #332524",
"p  c #392624",
"a  c #332925",
"s  c #3A2A25",
"d  c #342C2A",
"f  c #3B2D2A",
"g  c #2B3127",
"h  c #2D322D",
"j  c #2F392F",
"k  c #33332D",
"l  c #3C312C",
"z  c #3D3126",
"x  c #2B2F30",
"c  c #2D3232",
"v  c #2E3835",
"b  c #333532",
"n  c #3A3532",
"m  c #353B33",
"M  c #3A3D36",
"N  c #3B3C3B",
"B  c #35393B",
"V  c #422E2B",
"C  c #452D25",
"Z  c #43332D",
"A  c #4A352E",
"S  c #4C392E",
"D  c #45352B",
"F  c #50362F",
"G  c #433431",
"H  c #4A3631",
"J  c #433A33",
"K  c #4C3B33",
"L  c #4D3E38",
"P  c #423E3A",
"I  c #523C34",
"U  c #573C35",
"Y  c #3A4236",
"T  c #3D443B",
"R  c #3C483D",
"E  c #4C4236",
"W  c #44423C",
"Q  c #4E443B",
"!  c #414C3F",
"~  c #544034",
"^  c #53423B",
"/  c #5B453C",
"(  c #5E493D",
")  c #5D4537",
"_  c #64443A",
"`  c #644A3D",
"'  c #6D4C3D",
"]  c #6D463C",
"[  c #764E3E",
"{  c #393F41",
"}  c #3E4241",
"|  c #434442",
" . c #444B43",
".. c #4A4A45",
"X. c #464B49",
"o. c #4B4D4D",
"O. c #5D4B42",
"+. c #574A44",
"@. c #4A5147",
"#. c #4C544C",
"$. c #4B5649",
"%. c #53554D",
"&. c #5F5549",
"*. c #53594B",
"=. c #4E5151",
"-. c #535B52",
";. c #555B59",
":. c #575A57",
">. c #634D42",
",. c #6C4D43",
"<. c #634F4A",
"1. c #724D42",
"2. c #7A4F46",
"3. c #6E5042",
"4. c #685449",
"5. c #7C5545",
"6. c #7A5B4E",
"7. c #765949",
"8. c #635E59",
"9. c #655651",
"0. c #7D5F50",
"q. c #5C6359",
"w. c #5B6658",
"e. c #61655B",
"r. c #626A5C",
"t. c #786759",
"y. c #6C755E",
"u. c #646768",
"i. c #6B6E6B",
"p. c #676963",
"a. c #766963",
"s. c #78726F",
"d. c #747874",
"f. c #6B7363",
"g. c #815545",
"h. c #825B4B",
"j. c #895C4C",
"k. c #825748",
"l. c #8B5E50",
"z. c #8B614F",
"x. c #91604B",
"c. c #8B6553",
"v. c #8F6856",
"b. c #876958",
"n. c #936653",
"m. c #956953",
"M. c #9C6B54",
"N. c #986858",
"B. c #9E705A",
"V. c #93725D",
"C. c #A26D55",
"Z. c #A06F59",
"A. c #A5725C",
"S. c #AA755C",
"D. c #A67559",
"F. c #B17B5F",
"G. c #997B6A",
"H. c #AA6F60",
"J. c #A57560",
"K. c #A57863",
"L. c #AA7B65",
"P. c #AC7D6A",
"I. c #A87565",
"U. c #B27D64",
"Y. c #B67B66",
"T. c #7A8575",
"R. c #77806C",
"E. c #83897B",
"W. c #9B8271",
"Q. c #87917B",
"!. c #AB856F",
"~. c #B48166",
"^. c #B6846A",
"/. c #BC846B",
"(. c #BD8769",
"). c #A88B75",
"_. c #B88874",
"`. c #BF947D",
"'. c #CC8C6E",
"]. c #C3876B",
"[. c #C48C73",
"{. c #C98D75",
"}. c #CA9479",
"|. c #D59677",
" X c #929B88",
".X c #879781",
"XX c #BD9881",
"oX c #BAAF9F",
"OX c #CB9C83",
"+X c #CD9582",
"@X c #D49D83",
"#X c #DD9D80",
"$X c #D8A488",
"%X c #C1AD9B",
"&X c #DAAB94",
"*X c #E2AD8C",
"=X c #E2A78F",
"-X c #E2AE94",
";X c #E5B195",
":X c #C0B1A1",
">X c #C3ADA2",
",X c #EEBEA1",
"<X c #F4C8AD",
"1X c #F7CDB0",
"2X c #E9CAB1",
"3X c #FDDDC1",
"4X c #EDD9C9",
"5X c #FBE5CF",
"6X c #FFE9D2",
"7X c #FFF0D9",
"8X c None",
/* pixels */
"8X8X8X8X8X8X8X8X8X8X8X8X8X8X8X8X8X8X8X8X8X8X8X8X8X8X8X8X8X8X8X8X8X8X8X8X8X8X8X8X8X8X8X8X8X8X8X8X",
"8X8X8X8X8X8X8X8X8X8X8X8X8X8X8XE.e.q.#.8X8X8X8X8X8X8X8X8X8X8X8X8X8X8X8X8X8X8X8X8X8X8X8X8X8X8X8X8X",
"8X8X8X8X8X8X8X8X8X8X8X8X8XE. XR.*.! @.q.8X8X8X8X8X8X8X8X8X8X8X8X8X8X8X8X8X8X8X8X8X8X8X8X8X8X8X8X",
"8X8X8X8X8X8X8X8X8X8X8X8XR.Q.y.Y 6 9 v q.$.8X8X8X# # # $ 3 8X8X8X8X8X8X8X8X8X8X8X8X8X8X8X8X8X8X8X",
"8X8X8X8X8X8X8X8X8X8XT.T.Q.r.Y w 3 $ 9 g R } $.v 9 3 $ # # # = 6 < < 8X8X8X8X8X8X8X8X8X8X8X8X8X8X",
"8X8X8X8X8X8X8Xu.i.:. .q.w. .R v v x R  .-.$.} $.#.X.v : # + X X @ + 8 w 8X8X8X8X8X8X8X8X8X8X8X8X",
"8X8X8X8X8X..-.i.y 6 T q.-.$.w.M j R R  .$.} R } v 9 # # # # # # # - > r % 8X8X8X8X8X8X8X8X8X8X8X",
"8X8X8X8X8X%.q.*.@.*.q.*.j w w y g g w h Y Y j t 3 # % #   % > 4 y b 0 > % X.8X8X8X8X8X8X8X8X8X8X",
"8X8X8X8Xp.%.e.E. XE.q.k 0 w d g e e > u x b t t : # : $ * #.i.a.e.8.W y r u y 8X8X8X8X8X8X8X8X8X",
"8X8X8Xe.p.r.w.w.f.r.M > e y w 4 4 e u =.{ x x r $   # - } #.m N k e d k N q d 8X8X8X8X8X8X8X8X8X",
"8X8X8Xq. .Y m j k g g w d w 0 > > 0 u.X.b c r t $ # # > J J k Q n k a e b N M 8X8X8X8X8X8X8X8X8X",
"8X8X8XX.v g g Y ! W k 4 0 e 4 q y o.i.c y t c 8 X 3 4 +.W.).).G.b.0.0.E D f a a 8X8X8X8X8X8X8X8X",
"8X8X8Xb g w Y @...W g k k n =.N x =.o.r t c 9 % 8...J >X&X-X$X{.].Y.F.B.5.] C 4 4 8X8X8X8X8X8X8X",
"8X8X8Xb w m @.Y M g g 0 3 k ..d 0 d.c u x r % a.4X:XoX5X2X*X*X|.|.'.'.].S.x.t.J 4 8X8X8X8X8X8X8X",
"8X8X8Xh w b j w w 4 * = b %...> | u.u u w o +.oX1X6X7X6X<X*X|.|.'.].].U.D.n.v.6.z 8X8X8X8X8X8X8X",
"8X8X8Xt w 3 3 w 4 O 3 0 { :.d > | =.r t * d t.).2X3X3X3X,X$X@X[.F.C.C.x.k.5.5.' K 8X8X8X8X8X8X8X",
"8X8X8Xh 3 3 3 3 = 0 u > N y % r u.} 9 : 0 9.6.).$X2X1X<X&X@X[.H.M.j.k.' >.^ L A p l 8X8X8X8X8X8X",
"8X8X8Xm w 4 * - > > u | b ; r r ;.c : + W t.b.K.OX;X;X&X$X{.Y.M.k.,.) K D Z d i a a 8X8X8X8X8X8X",
"8X8X8Xb 3 : * 3 4 % ; x r ; c r o.0 # > <.b.v.K.}.@X$XOX+X/.B.h.,.U F l n f d i i i 8X8X8X8X8X8X",
"8X8X8Xg * * * 3 3 - % > ; 9 u x ;.: + u 7.c.m.A./.[.}.&XOX!.c.>.I H G f f f d i q q a 8X8X8X8X8X",
"8X8X8X8X4 & 3 * X o % * : u c { } + # Z c.M.A.~.Y.Y.OXXXb.( L J d d n f f d a i q q e 8X8X8X8X8X",
"8X8X8Xn N > > = # # : # : - - { x + * ^ A./.^.~.~.[.c.4.&.w = > r q q d l d d q < q q 8X8X8X8X8X",
"8X8X8XN n > 4 % # # - - : v c N : + > <.P.].^.P.^.c.I 9.4 % % # + ; 8 d b f q f s.q . o % o 8X8X",
"8X8X8X8Xg > 4 # # # : : : { B y - - y 4.^./.P.P.V.S ^ > % % % % %   , u d i , n | % o   o % & 8X",
"8X8X8X8X4 w > % : $ $ : $ v 9 % . 4 g ` c.m.m.v.' E k @ % ; % % # o o a f i < q o o % o o % ; 8X",
"8X8X8X8Xy w % % > - - : : : %   > a 6 [ `.[.(.D.' 4.i % % ; % - %   . a G a k < * % % % o % q d ",
"8X8X8Xy j 3 * 3 w # # % - t @ > q f ( [ D.|.;X*X`.6., & % ; - ; % . @ n a > < > % * % ; , < d 0 ",
"8XM y m e 4 3 e g % # % % 9 % q a p c.{.~.S.|.;X-X^.C O ; > % ; % @ & i q q q % % ; ; % < a n 8X",
"m t k Y Y M k t k > # * ; 3 4 4 q V n.'.|.}.C.[.=X&Xl.C < > > ; @ @ u q i q q > ; ; > < i n n 8X",
"8Xk ..W 8X*.! w u > # % ; > 1 2 5 S m.~.[.{.'.x.Y.+XP.1.V , 1 i V G f i i a q 4 < < ; < | P k 8X",
"8X8X8X8X8X8X8X8X8X% % - $ > 4 2 s F N.S.U./.Y.I.g.P.Y.N.j.1.' 1.1.F p q i f f 0 8 q d n ..8X8X8X",
"8X8X8X8X8X8X8X8X8X8X8X; @ 8 ^ V p I A.M.C.H.J.N.k.k.H.H.Y.H.j.] U p p i n G a q 5 i d n 8X8X8X8X",
"8X8X8X8X8X8X8X8X8X8X8X; % & <.t.L ^ L.D.C.M.j.5.6.] 2.v.x.g._ V p i d d G G V f f f f n 8X8X8X8X",
"8X8X8X8X8X8X8X8X8X8X8X8X% @ 9.>.f ^ P.U.S.M.h.1.3.,.U / U H A V p p G f V H H H V f J l 8X8X8X8X",
"8X8X8X8X8X8X8X8X8X8X8X8X8X. +.L p I !.^.~.A.c.,.>./ I H H D C s f p p 7 7 G H f V H J G 8X8X8X8X",
"8X8X8X8X8X8X8X8X8X8X8X8X8X@ & P ^ I K.^.~.A.z._ U I H H S D s s f V p p V G p p V K L 8X8X8X8X8X",
"8X8X8X8X8X8X8X8X8X8X8X8X8X8X8X% l A c.~.U.J.h._ F H H A D z f z f f p p p p f f V L ^ 8X8X8X8X8X",
"8X8X8X8X8X8X8X8X8X8X8X8X8X8X8X8X8X8Xz.I.J.n.1.U I H A Z Z f s p i i p p i p p V D E 8X8X8X8X8X8X",
"8X8X8X8X8X8X8X8X8X8X8X8X8X8X8X8X8X8X8XB.v.7.) F H H G H s a 1 , 1 , 8 1 8 7 p f H L 8X8X8X8X8X8X",
"8X8X8X8X8X8X8X8X8X8X8X8X8X8X8X8X8X8X8Xh.7.) I L L H Z D a 7 p a 7 7 1 1 7 7 7 i J ^ 8X8X8X8X8X8X",
"8X8X8X8X8X8X8X8X8X8X8X8X8X8X8X8X8X8X8X8X,.~ L L K J H D a a a f f f Z l f V Z z K &.8X8X8X8X8X8X",
"8X8X8X8X8X8X8X8X8X8X8X8X8X8X8X8X8X8X8X8XO.( I L K D D l z a l f l l G D H K D Z E 8X8X8X8X8X8X8X",
"8X8X8X8X8X8X8X8X8X8X8X8X8X8X8X8X8X8X8X8X8XO.( U K A D D D z f f f f f f G H J S ^ 8X8X8X8X8X8X8X",
"8X8X8X8X8X8X8X8X8X8X8X8X8X8X8X8X8X8X8X8X8XO.>.( / I S D D Z Z f Z f s f f Z J E 8X8X8X8X8X8X8X8X",
"8X8X8X8X8X8X8X8X8X8X8X8X8X8X8X8X8X8X8X8X8X8X^ >.( ) ~ I S S A H D D J J J A E 8X8X8X8X8X8X8X8X8X",
"8X8X8X8X8X8X8X8X8X8X8X8X8X8X8X8X8X8X8X8X8X8X8X_ ` ( ( ( / ^ ^ U L I ^ I ^ Q E 8X8X8X8X8X8X8X8X8X",
"8X8X8X8X8X8X8X8X8X8X8X8X8X8X8X8X8X8X8X8X8X8X8X8X^ / ( ( ( ( ( ` ( / / O.O.+.8X8X8X8X8X8X8X8X8X8X",
"8X8X8X8X8X8X8X8X8X8X8X8X8X8X8X8X8X8X8X8X8X8X8X8X8X8X8X8X8X8X8X8X8X^ / O.4.8X8X8X8X8X8X8X8X8X8X8X"
};
