/* XPM */
static char *result[] = {
/* columns rows colors chars-per-pixel */
"48 48 176 2 ",
"   c #030202",
".  c #080505",
"X  c #060909",
"o  c #0B0C0C",
"O  c #050806",
"+  c #1B0506",
"@  c #120F0E",
"#  c #0C1312",
"$  c #0F1817",
"%  c #0F1818",
"&  c #131615",
"*  c #121817",
"=  c #181817",
"-  c #131D1B",
";  c #1C1D1B",
":  c #181715",
">  c #290C0D",
",  c #2D1212",
"<  c #3E1818",
"1  c #1B201E",
"2  c #152421",
"3  c #1A2423",
"4  c #102827",
"5  c #192927",
"6  c #152E2C",
"7  c #1C2C2A",
"8  c #1A302E",
"9  c #1E3431",
"0  c #1F3938",
"q  c #252422",
"w  c #222D2C",
"e  c #2A2D2C",
"r  c #332E2A",
"t  c #23302F",
"y  c #39352F",
"u  c #233533",
"i  c #2C3635",
"p  c #223936",
"a  c #243D3A",
"s  c #2B3D3C",
"d  c #333532",
"f  c #3B3532",
"g  c #3E3933",
"h  c #3A3E3A",
"j  c #431716",
"k  c #521718",
"l  c #56191A",
"z  c #4D201F",
"x  c #4D2122",
"c  c #592625",
"v  c #403A34",
"b  c #433F39",
"n  c #663D3B",
"m  c #26413E",
"M  c #29413E",
"N  c #3F403C",
"B  c #43413D",
"V  c #4A433D",
"C  c #2C4542",
"Z  c #2B4A45",
"A  c #2C4D49",
"S  c #264742",
"D  c #334644",
"F  c #344846",
"G  c #334B49",
"H  c #394F4C",
"J  c #2E514C",
"K  c #31534E",
"L  c #325652",
"P  c #3D5553",
"I  c #345955",
"U  c #3B5A56",
"Y  c #375E59",
"T  c #3B5C5A",
"R  c #37625C",
"E  c #39635D",
"W  c #3B6661",
"Q  c #3F6C67",
"!  c #3F6D68",
"~  c #464542",
"^  c #4B4A44",
"/  c #4F4F49",
"(  c #474B46",
")  c #544C44",
"_  c #584F46",
"`  c #514F4B",
"'  c #53514D",
"]  c #5A5048",
"[  c #425E5B",
"{  c #5D5B55",
"}  c #635C53",
"|  c #695F56",
" . c #46625F",
".. c #62625C",
"X. c #6C635A",
"o. c #71685E",
"O. c #436965",
"+. c #406E69",
"@. c #4D6D6A",
"#. c #476662",
"$. c #43726C",
"%. c #4A726E",
"&. c #51726E",
"*. c #4A7671",
"=. c #4D7B75",
"-. c #477570",
";. c #537673",
":. c #547A76",
">. c #527E7A",
",. c #597E7B",
"<. c #6A6B64",
"1. c #736B62",
"2. c #7A6E63",
"3. c #7A7267",
"4. c #7F7E78",
"5. c #A73B3C",
"6. c #AA3D3C",
"7. c #B13F3E",
"8. c #AC4342",
"9. c #B24848",
"0. c #81766A",
"q. c #847A6E",
"w. c #8A7E71",
"e. c #D05757",
"r. c #C56464",
"t. c #DC6A69",
"y. c #54827D",
"u. c #5C827E",
"i. c #8C8175",
"p. c #85837C",
"a. c #94887A",
"s. c #578480",
"d. c #5B8581",
"f. c #5D8984",
"g. c #5C8D88",
"h. c #618A86",
"j. c #648E8A",
"k. c #608784",
"l. c #66918D",
"z. c #68938F",
"x. c #699591",
"c. c #6A9893",
"v. c #749B99",
"b. c #8D8C85",
"n. c #9D8F80",
"m. c #95938C",
"M. c #989388",
"N. c #A19484",
"B. c #A59788",
"V. c #A69C8D",
"C. c #A99D8D",
"Z. c #A59887",
"A. c #AEA08F",
"S. c #AEA293",
"D. c #A7A49B",
"F. c #ABA99E",
"G. c #B3A494",
"H. c #B6AB9C",
"J. c #B9AE9F",
"K. c #ACAAA0",
"L. c #BDB4A4",
"P. c #BCB8AE",
"I. c #B7B3A7",
"U. c #BEBEB3",
"Y. c #C2BBAE",
"T. c #C0B6A6",
"R. c #C3C1B5",
"E. c #C9C7BC",
"W. c #CCC8BD",
"Q. c #D1CBBD",
"!. c #CFCDC1",
"~. c #D1CEC3",
"^. c #DAD8CC",
"/. c #DFDDD0",
"(. c #E0DED1",
"). c None",
/* pixels */
").).).).).).).).).).).).).).).).).).).).                              ).).).).).).).).).).).).).",
").).).).).).).).).).).).).).).).).).).).i s s s s s s s s s s s s s s ; ).).).).).).).).).).).).",
").).).).).).).).).).).).).).).).3 w w w ;.c.x.x.l.z.z.z.z.z.l.z.z.x.z.s w w ).).).).).).).).).).",
").).).).).).).).).).).).).).- 1 H c.l.l.j.j.j.j.j.j.j.j.j.j.j.j.j.j.l.z.x.@.- ).).).).).).).).).",
").).).).).).).).).).).).).& :.l.j.j.j.j.j.j.j.j.j.j.j.j.j.j.j.j.j.j.j.j.j.l.>.& ).).).).).).).).",
").).).).).).).).).).).).3 k.j.j.j.j.j.j.j.j.j.j.j.j.j.j.j.j.j.j.j.j.j.j.j.j.j.d.; ).).).).).).).",
").).).).).).).).).).  i d.j.j.j.j.j.j.j.j.j.j.j.j.j.j.j.j.j.j.j.j.j.j.j.j.j.j.l.d.i   ).).).).).",
").).).).).).).).).).  u x.j.j.j.j.j.j.j.j.j.j.j.j.j.j.j.j.j.j.j.j.j.j.j.j.j.j.j.l.s.G   ).).).).",
").).).).).).).).).  F :.l.j.j.j.j.j.j.j.j.j.j.j.j.j.j.j.j.j.j.j.j.j.j.j.j.j.j.j.l.z.P   ).).).).",
").).).).).).).).).  P c.j.j.l.j.j.j.j.j.j.j.j.j.j.j.j.j.j.j.j.j.j.j.j.j.j.j.j.j.j.l.@.0 o ).).).",
").).).).).).).).).s &.l.j.y.>.k.j.j.j.j.j.j.j.j.j.j.j.j.j.j.j.j.j.j.j.j.j.j.j.j.j.l.d.L   ).).).",
").).).).).).).).  ;.x.h.>.S W y.j.j.j.j.j.j.j.j.j.j.j.j.j.j.j.j.j.j.j.j.j.j.j.j.l.d.=.Y 5 ).).).",
").).).).).).).).3 ,.j.%.C , C :.l.j.j.j.j.j.j.j.j.j.j.j.j.l.j.j.j.j.j.j.j.j.j.j.f.$.Q +.Q # ).).",
").).).).).).).# k.l.>.S + 5.+ [ z.j.j.j.j.j.j.j.j.j.j.j.j.f.g.f.k.j.j.j.j.j.j.f.+.Q ! ! Q o ).).",
").).).).).).).# k.j.=.M > 5.+ T z.j.j.j.j.j.j.j.j.j.j.j.f.W W E $.j.j.j.j.h.d.+.Q +.Q +.W * ).).",
").).).).).).).& k.=.8 < 5.6.+ T z.j.j.j.j.j.j.j.j.j.l.d.E $ o o 7 *.j.j.=.+.+.Q Q Q Q Q Q W 3 o ",
").).).).).).w ,.j.-.4 x t.6.+ T x.j.j.j.j.j.j.j.j.j.s.L - @.;.:.U - $.$.$.Q Q Q Q Q Q +.! $.2 o ",
").).).).).  w z.=.6 n r.t.7.+ T z.j.j.j.j.j.j.j.j.y.C w @.x.x.c.#.X W Q Q Q Q +.+.Q Q Q ! ! 2 X ",
").).).).).  5 *.5 c 8.e.9.j ( ,.j.j.j.j.j.j.j.j.l.s p @.j.s #.y.J X Q ! Q Q ! Q Q Q Q Q Q ! 1 o ",
").).).).).).- 9 F c l k x F f.j.j.j.j.j.j.j.j.j.l.U @.d.D 9 R J 9 m Q Q Q Q Q Q O.Q Q +.! ! 2 o ",
").).).).).).* D j.G 0 u C z.j.j.j.j.j.j.j.j.j.j.j.l.x.#.  Q $.7 1 ! ! ! Q +.Q +.! ! Q ! Q $.2 X ",
").).).).).3 H x.j.z.z.z.x.j.f.f.d.d.u.j.j.j.j.j.j.j.j.T O W ! 7 % $.! ! Q Q Q Q Q Q Q Q Q L 3 @ ",
").).).).= [ c.j.j.j.j.j.j.f.Y L Y ! +.s.j.j.j.j.j.l.y.J - W $.a 5 R Q Q Q Q Q Q ! Q ! ! W o ).).",
").).).# ;.k.s.j.j.j.j.j.s.E 1 : u W R Q y.j.j.j.j.j.=.Q Q ! $.$.Z o Q Q Q +.Q Q Q Q Q Q R # ).).",
").).: ,.l.D u l.j.j.j.s.I & q.N.{ o # Y ! >.j.j.j.*.Q Q $.k.l.=.Z # W Q Q +.Q Q Q ! ! I o ).).).",
").w ,.l.w p $.j.j.j.y.A 1 w.C.V b n.w.; A ! =.j.$.+.Q %.k.c.v.F 2 E Q Q Q Q Q Q Q ! Z # ).).).).",
"  7 c.l.* 9 =.j.j.y.p d w.B.C.g v A.B.w.d m ! -.+.Q +.Y 3 u e s Y +.+.+.Q Q Q Q $.p * ).).).).).",
").- s h.@.;.f.j.=.6 ^ w.G.Y.G.h b G.Y.G.f 0 %.%.%.+.$.O.G G G W *.+.%.$.Q +.! $.9 * ).).).).).).",
").).X %.l.x.j.%.t ^ _ X.S.~.H.f ^ ~.~.S.d p =.$.%.$.$.+.*.%.*.$.$.%.%.$.+.+.W u o ).).).).).).).",
").).o p $.u.O.a b N.v f Y.!.1.{ <.b.~.T.1.N Z Q ! +.O.Q +.Q +.+.Q +.! ! $.Y p   ).).).).).).).).",
").).).  a R A @ N.A.f ( /.~.= m.q.& ^.^.L.] # +.Q ! Q Q Q Q Q Q Q Q O.$.I u   ).).).).).).).).).",
").).).).  u a : V.G.v ~ /.!.3 b.m.N K.!.L.) # +.Q Q +.+.+.Q Q +.Q Q +.Y 5   ).).).).).).).).).).",
").).).).).).  ; E.B.B ' R.!.; p./.F.o P.L._ # ! ! ! W R ! ! ! ! Q Q Y = ).).).).).).).).).).).).",
").).).).).).).; E.e 4.b.q W.q p./.F.o U.J._ - W Q $.a 2 W ! ! Q +.R X ).).).).).).).).).).).).).",
").).).).).).).; E.q p.b.; E.; p./.F.o U.` ^ 3.# R ! W C # W ! ! ! Y X ).).).).).).).).).).).).).",
").).).).).).).: C.: X.1.; !.; b.W.i.o U.h } D.  R ! $.J X W ! $.J & ).).).).).).).).).).).).).).",
").).).).).).).).r b.S.n.o.h X.I.R.0.o U.B ..F.X :.$.! A   Q ! ! Z   ).).).).).).).).).).).).).).",
").).).).).).).).  ~ ~ v V | B.H.H.0.o R.B ..K.X u.=.! E S 7 R $.Z   ).).).).).).).).).).).).).).",
").).).).).).).: F s C C F ] ) w.A.w.  H.d ' M.o u.-.W $.W   L $.Z . ).).).).).).).).).).).).).).",
").).).).).).5 F d.j.f.f.>.u w / X.} V | ~ o.0.X u.y.$.! E   L $.Z   ).).).).).).).).).).).).).).",
").).).).).  3 @.J A A A I f.j.G 3 i 2.  1.G.3.o u.x.>.Q W 2 S W A   ).).).).).).).).).).).).).).",
").).).).).).        O   & I I =.l.=.# # | a.X.X ,.l.=.Q +.+.# a G   ).).).).).).).).).).).).).).",
").).).).).).).).).).).).).O   C W W Q ! 7 o # : d.j.:.W Q +.$ a L o ).).).).).).).).).).).).).).",
").).).).).).).).).).).).).).).& O - Q +.W %.u.d.j.*.Q Q Q Q % a ! I X ).).).).).).).).).).).).).",
").).).).).).).).).).).).).).).).).).% E ! $.-.$.$.+.+.+.W $ Z W ! Y   ).).).).).).).).).).).).).",
").).).).).).).).).).).).).).).).).).).- I $.! ! +.$.Z - 2 J Q ! ! Q L = ).).).).).).).).).).).).",
").).).).).).).).).).).).).).).).).).).).5 5 5 5 5 5 3 . X W ! +.Q ! ! L 3 ).).).).).).).).).).).",
").).).).).).).).).).).).).).).).).).).).).).).).).).).).o W ! +.Q ! ! ! K u ).).).).).).).).).)."
};
