/* XPM */
static char *result[] = {
/* columns rows colors chars-per-pixel */
"48 48 176 2 ",
"   c #030202",
".  c #080505",
"X  c #060909",
"o  c #0B0C0C",
"O  c #050806",
"+  c #1B0506",
"@  c #120F0E",
"#  c #0C1312",
"$  c #0F1817",
"%  c #0F1818",
"&  c #131615",
"*  c #121817",
"=  c #181817",
"-  c #131D1B",
";  c #1C1D1B",
":  c #181715",
">  c #290C0D",
",  c #2D1212",
"<  c #3E1818",
"1  c #1B201E",
"2  c #152421",
"3  c #1A2423",
"4  c #102827",
"5  c #192927",
"6  c #152E2C",
"7  c #1C2C2A",
"8  c #1A302E",
"9  c #1E3431",
"0  c #1F3938",
"q  c #252422",
"w  c #222D2C",
"e  c #2A2D2C",
"r  c #332E2A",
"t  c #23302F",
"y  c #39352F",
"u  c #233533",
"i  c #2C3635",
"p  c #223936",
"a  c #243D3A",
"s  c #2B3D3C",
"d  c #333532",
"f  c #3B3532",
"g  c #3E3933",
"h  c #3A3E3A",
"j  c #431716",
"k  c #521718",
"l  c #56191A",
"z  c #4D201F",
"x  c #4D2122",
"c  c #592625",
"v  c #403A34",
"b  c #433F39",
"n  c #663D3B",
"m  c #26413E",
"M  c #29413E",
"N  c #3F403C",
"B  c #43413D",
"V  c #4A433D",
"C  c #2C4542",
"Z  c #2B4A45",
"A  c #2C4D49",
"S  c #264742",
"D  c #334644",
"F  c #344846",
"G  c #334B49",
"H  c #394F4C",
"J  c #2E514C",
"K  c #31534E",
"L  c #325652",
"P  c #3D5553",
"I  c #345955",
"U  c #3B5A56",
"Y  c #375E59",
"T  c #3B5C5A",
"R  c #37625C",
"E  c #39635D",
"W  c #3B6661",
"Q  c #3F6C67",
"!  c #3F6D68",
"~  c #464542",
"^  c #4B4A44",
"/  c #4F4F49",
"(  c #474B46",
")  c #544C44",
"_  c #584F46",
"`  c #514F4B",
"'  c #53514D",
"]  c #5A5048",
"[  c #425E5B",
"{  c #5D5B55",
"}  c #635C53",
"|  c #695F56",
" . c #46625F",
".. c #62625C",
"X. c #6C635A",
"o. c #71685E",
"O. c #436965",
"+. c #406E69",
"@. c #4D6D6A",
"#. c #476662",
"$. c #43726C",
"%. c #4A726E",
"&. c #51726E",
"*. c #4A7671",
"=. c #4D7B75",
"-. c #477570",
";. c #537673",
":. c #547A76",
">. c #527E7A",
",. c #597E7B",
"<. c #6A6B64",
"1. c #736B62",
"2. c #7A6E63",
"3. c #7A7267",
"4. c #7F7E78",
"5. c #A73B3C",
"6. c #AA3D3C",
"7. c #B13F3E",
"8. c #AC4342",
"9. c #B24848",
"0. c #81766A",
"q. c #847A6E",
"w. c #8A7E71",
"e. c #D05757",
"r. c #C56464",
"t. c #DC6A69",
"y. c #54827D",
"u. c #5C827E",
"i. c #8C8175",
"p. c #85837C",
"a. c #94887A",
"s. c #578480",
"d. c #5B8581",
"f. c #5D8984",
"g. c #5C8D88",
"h. c #618A86",
"j. c #648E8A",
"k. c #608784",
"l. c #66918D",
"z. c #68938F",
"x. c #699591",
"c. c #6A9893",
"v. c #749B99",
"b. c #8D8C85",
"n. c #9D8F80",
"m. c #95938C",
"M. c #989388",
"N. c #A19484",
"B. c #A59788",
"V. c #A69C8D",
"C. c #A99D8D",
"Z. c #A59887",
"A. c #AEA08F",
"S. c #AEA293",
"D. c #A7A49B",
"F. c #ABA99E",
"G. c #B3A494",
"H. c #B6AB9C",
"J. c #B9AE9F",
"K. c #ACAAA0",
"L. c #BDB4A4",
"P. c #BCB8AE",
"I. c #B7B3A7",
"U. c #BEBEB3",
"Y. c #C2BBAE",
"T. c #C0B6A6",
"R. c #C3C1B5",
"E. c #C9C7BC",
"W. c #CCC8BD",
"Q. c #D1CBBD",
"!. c #CFCDC1",
"~. c #D1CEC3",
"^. c #DAD8CC",
"/. c #DFDDD0",
"(. c #E0DED1",
"). c None",
/* pixels */
").).).).).).).).).).).).).                              ).).).).).).).).).).).).).).).).).).).).",
").).).).).).).).).).).).; s s s s s s s s s s s s s s u ).).).).).).).).).).).).).).).).).).).).",
").).).).).).).).).).w w D x.x.x.x.x.z.z.x.x.x.x.z.c.c.;.w w w 3 ).).).).).).).).).).).).).).).).",
").).).).).).).).).1 #.c.z.h.h.j.h.j.j.h.h.z.h.j.h.h.j.z.z.z.c.H 1 - ).).).).).).).).).).).).).).",
").).).).).).).).* ,.j.j.j.j.j.j.z.h.j.j.j.j.j.j.j.j.j.j.j.j.j.j.l.:.: ).).).).).).).).).).).).).",
").).).).).).).; d.j.j.j.j.j.j.j.h.z.j.j.j.j.j.j.j.j.j.j.j.j.j.j.j.j.d.3 ).).).).).).).).).).).).",
").).).).).. u d.z.h.j.j.j.j.j.j.j.j.j.j.j.j.j.j.j.j.j.j.j.j.j.j.j.j.j.d.u . ).).).).).).).).).).",
").).).).  G u.z.j.j.j.j.j.j.j.j.j.j.j.j.j.j.j.j.j.j.j.j.j.j.j.j.j.j.j.z.u   ).).).).).).).).).).",
").).).).  P x.h.z.h.j.j.j.j.j.j.j.j.j.j.j.j.j.j.j.j.j.j.j.j.j.j.h.j.j.j.:.F . ).).).).).).).).).",
").).).o p %.z.h.h.z.j.j.j.j.j.j.j.j.j.j.j.j.j.j.j.j.j.j.j.j.j.j.j.z.z.j.x.P   ).).).).).).).).).",
").).).  I u.l.j.j.j.j.j.j.j.j.j.j.j.j.j.j.j.j.j.j.j.j.j.j.j.j.j.f.>.s.h.z.;.s ).).).).).).).).).",
").).).5 Y =.d.j.j.j.j.j.j.j.j.j.j.j.j.j.j.j.j.j.j.j.j.j.j.j.j.j.s.W S :.h.x.;.  ).).).).).).).).",
").).# ! ! W %.f.j.j.j.j.j.j.h.j.j.z.j.j.j.j.j.j.j.j.j.j.j.j.j.j.:.C , C -.h.,.3 ).).).).).).).).",
").).o Q ! ! Q +.g.h.z.j.j.j.z.h.h.f.f.j.j.j.j.j.j.j.j.j.j.j.j.z.[ + 5.+ S >.z.h.& ).).).).).).).",
").).$ W ! ! Q Q +.d.h.h.j.j.h.-.R W W f.j.j.j.j.j.j.j.j.j.j.j.z.T + 5.> M *.j.k.# ).).).).).).).",
"o 3 W ! ! ! Q ! +.+.$.=.j.h.*.7 o o & W d.j.j.j.j.j.j.j.j.j.j.z.T + 6.5.< 9 =.d.& ).).).).).).).",
"X 2 $.Q ! O.Q Q Q Q Q ! $.$.1 P :.;.%.- I s.j.j.j.j.j.j.j.j.j.x.[ + 6.t.x 2 *.j.,.w ).).).).).).",
"o 1 ! ! ! Q ! Q Q Q ! Q ! W X  .x.x.z.@.7 C y.j.j.j.j.j.j.j.j.x.P + 7.t.r.n 6 =.x.8   ).).).).).",
"o 1 $.Q ! Q Q ! ! Q Q Q ! W X L y.O.i l.@.a s j.j.j.j.j.j.j.j.j.,.H j 9.e.8.c 5 -.5   ).).).).).",
"X 2 ! ! Q Q Q Q Q Q ! ! ! ! m 0 A R u D u.@.U z.j.j.j.j.j.j.j.j.z.f.F z k l c F p - ).).).).).).",
"o 2 ! ! ! Q Q Q ! ! ! ! Q Q $.% 7 $.W O #.x.z.j.j.j.j.j.j.j.l.j.j.z.z.Z p u Z l.D & ).).).).).).",
"o 3 L ! Q Q Q ! Q O.Q Q ! ! ! 2 7 $.W O  .g.j.j.j.j.j.j.j.s.d.d.d.f.h.z.z.z.z.l.x.H 3 ).).).).).",
").).o ! ! Q ! O.Q ! Q ! ! ! R 5 a ! W - J y.z.j.j.j.j.j.s.+.+.Y L Y f.l.h.l.l.h.h.x.[ = ).).).).",
").).o R ! ! ! Q Q Q Q Q ! W o Z ! $.$.! W =.h.j.j.j.j.y.Q E E u & 1 R d.h.l.l.h.z.s.h.&.# ).).).",
").).).o I ! ! ! ! Q Q Q ! Q # S >.j.h.$.Q O.*.j.j.j.=.+.Y # o } N.q.& Y y.j.h.l.z.t D l.,.& ).).",
").).).).# S $.Q Q Q Q +.Q Q E 2 F v.c.h.-.Q +.$.j.*.$.A ; w.a.b V Z.i.1 Z y.l.l.j.$.p t z.u.7 ).",
").).).).).* p $.! Q O.+.Q O.! Y s w t 3 T ! +.+.%.$.a d w.B.G.v g C.Z.i.y 0 y.h.j.=.9 * l.x.5 . ",
").).).).).).& 9 ! ! Q +.+.*.%.-.W G G G O.$.+.$.%.-.p f G.Y.G.B B G.P.G.i.V 6 y.j.h.%.@.k.s 1 ).",
").).).).).).).o 9 W +.+.+.*.%.$.%.*.*.*.+.$.$.%.$.=.p f S.~.Q.^ y H.~.S.X._ V 8 %.j.z.l.%.X ).).",
").).).).).).).).. p Y +.+.Q Q ! +.Q Q Q Q ! +.+.! Z h 1.P.~.b.<.{ 1.!.Y.f v Z.V a O.y.%.0 o ).).",
").).).).).).).).).  9 Y +.+.Q Q Q Q Q Q Q Q ! Q ! # ] L.^.^.: p.M.: !./.^ g A.N.@ A E a   ).).).",
").).).).).).).).).).. 3 T +.Q +.Q +.Q Q ! ! Q Q ! # _ J.!.D.~ m.b.1 !.(.~ y G.C.@ m p . ).).).).",
").).).).).).).).).).).).- R Q Q Q Q ! +.E E ! ! ! # _ L.P.o K./.p., ~.E.' ~ V.E.=   ).).).).).).",
").).).).).).).).).).).).).o Y +.Q Q Q W 2 a ! ! W - _ I.U.o K./.p.; !.5 b.4.e E.; ).).).).).).).",
").).).).).).).).).).).).).. Y +.! ! W $ Z W ! E # 3.V ' U.o F./.p.; E.- b.w.q E.= ).).).).).).).",
").).).).).).).).).).).).).).& K $.! W X A $.! R O D.{ B Y.o w.Q.b.; !.; 1.X.= V.= ).).).).).).).",
").).).).).).).).).).).).).).  Z ! ! ! O A +.%.:.O F...N U.o 0.R.I.| h 2.n.S.b.r ).).).).).).).).",
").).).).).).).).).).).).).).  Z ! R 8 m R +.-.u.X K...B U.o 0.H.H.B.| b v ~ ~   ).).).).).).).).",
").).).).).).).).).).).).).).  Z $.L   E +.O.*.u.o M.' f F.O q.A.w.) _ D D M M G = ).).).).).).).",
").).).).).).).).).).).).).).. Z $.I   R ! %.y.u.X 0.o.V X.V } X./ u u >.f.f.h.f.F 3 ).).).).).).",
").).).).).).).).).).).).).).  A W S 2 W Q >.z.,.O 0.H.1.X 2.i 2 G h.f.I Z A A J @.3   ).).).).).",
").).).).).).).).).).).).).).  A m # +.+.Q :.z.u.O | a.} # # ;.l.>.I I #   O . .   . ).).).).).).",
").).).).).).).).).).).).).).o L a # +.! W =.j.d.* @ o 8 ! Q W W S . X ).).).).).).).).).).).).).",
").).).).).).).).).).).).).X I +.a $ Q ! ! ! -.j.d.d.%.E ! Q - X & ).).).).).).).).).).).).).).).",
").).).).).).).).).).).).).. Y ! W A $ E $.+.$.$.%.$.$.! E * ).).).).).).).).).).).).).).).).).).",
").).).).).).).).).).).).- K Q ! $.W A 2 % S $.! ! $.$.L - ).).).).).).).).).).).).).).).).).).).",
").).).).).).).).).).).3 K ! Q Q ! ! W X X 3 5 5 5 5 5 5 ).).).).).).).).).).).).).).).).).).).).",
").).).).).).).).).).u K $.! Q Q ! ! W o ).).).).).).).).).).).).).).).).).).).).).).).).).).).)."
};
