/* XPM */
static char *result[] = {
/* columns rows colors chars-per-pixel */
"144 48 217 2 ",
"   c black",
".  c #010101",
"X  c #020202",
"o  c gray1",
"O  c #040404",
"+  c gray2",
"@  c #060606",
"#  c #070707",
"$  c gray3",
"%  c #090909",
"&  c gray4",
"*  c #0B0B0B",
"=  c #0C0C0C",
"-  c gray5",
";  c #0E0E0E",
":  c gray6",
">  c #101010",
",  c #111111",
"<  c gray7",
"1  c #131313",
"2  c gray8",
"3  c #151515",
"4  c #161616",
"5  c gray9",
"6  c #181818",
"7  c #191919",
"8  c gray10",
"9  c #1B1B1B",
"0  c gray11",
"q  c #1E1E1E",
"w  c gray12",
"e  c #202020",
"r  c gray13",
"t  c #222222",
"y  c #232323",
"u  c gray14",
"i  c gray15",
"p  c #272727",
"a  c gray16",
"s  c #2A2A2A",
"d  c gray17",
"f  c #2C2C2C",
"g  c #2D2D2D",
"h  c gray18",
"j  c #2F2F2F",
"k  c gray19",
"l  c #313131",
"z  c #323232",
"x  c gray20",
"c  c #343434",
"v  c #353535",
"b  c gray21",
"n  c #373737",
"m  c #393939",
"M  c #3A3A3A",
"N  c gray23",
"B  c #3C3C3C",
"V  c gray24",
"C  c #3E3E3E",
"Z  c #3F3F3F",
"A  c #414141",
"S  c #434343",
"D  c gray27",
"F  c #464646",
"G  c gray28",
"H  c #484848",
"J  c #494949",
"K  c gray29",
"L  c gray30",
"P  c #4E4E4E",
"I  c gray31",
"U  c #505050",
"Y  c #515151",
"T  c gray32",
"R  c #535353",
"E  c #555555",
"W  c #565656",
"Q  c gray34",
"!  c #585858",
"~  c #5A5A5A",
"^  c #5B5B5B",
"/  c gray37",
"(  c #5F5F5F",
")  c #606060",
"_  c gray38",
"`  c #626262",
"'  c gray39",
"]  c #656565",
"[  c gray40",
"{  c #676767",
"}  c #686868",
"|  c DimGray",
" . c #6A6A6A",
".. c gray42",
"X. c #6C6C6C",
"o. c #6D6D6D",
"O. c gray43",
"+. c #6F6F6F",
"@. c #717171",
"#. c #727272",
"$. c #747474",
"%. c gray46",
"&. c #767676",
"*. c #777777",
"=. c gray47",
"-. c #797979",
";. c gray48",
":. c #7B7B7B",
">. c #7C7C7C",
",. c #7E7E7E",
"<. c gray50",
"1. c #808080",
"2. c #818181",
"3. c gray51",
"4. c #838383",
"5. c #848484",
"6. c #868686",
"7. c gray53",
"8. c #888888",
"9. c #898989",
"0. c gray54",
"q. c #8B8B8B",
"w. c #8E8E8E",
"e. c gray56",
"r. c #909090",
"t. c gray57",
"y. c #929292",
"u. c #939393",
"i. c gray58",
"p. c gray59",
"a. c #989898",
"s. c gray60",
"d. c #9A9A9A",
"f. c gray61",
"g. c gray62",
"h. c #9F9F9F",
"j. c #A0A0A0",
"k. c gray63",
"l. c #A2A2A2",
"z. c gray64",
"x. c #A5A5A5",
"c. c gray65",
"v. c #A7A7A7",
"b. c gray66",
"n. c #AAAAAA",
"m. c gray67",
"M. c #ACACAC",
"N. c gray68",
"B. c #AFAFAF",
"V. c gray69",
"C. c #B2B2B2",
"Z. c #B4B4B4",
"A. c gray71",
"S. c #B6B6B6",
"D. c #B7B7B7",
"F. c #B9B9B9",
"G. c gray73",
"H. c gray",
"J. c gray75",
"K. c #C0C0C0",
"L. c gray77",
"P. c #C5C5C5",
"I. c #C6C6C6",
"U. c gray78",
"Y. c #C8C8C8",
"T. c #CACACA",
"R. c #CBCBCB",
"E. c #CDCDCD",
"W. c #CECECE",
"Q. c gray81",
"!. c #D0D0D0",
"~. c gray82",
"^. c #D2D2D2",
"/. c LightGray",
"(. c gray83",
"). c #D5D5D5",
"_. c gray84",
"`. c #D7D7D7",
"'. c #D8D8D8",
"]. c gray85",
"[. c gray86",
"{. c gainsboro",
"}. c #DDDDDD",
"|. c gray87",
" X c #DFDFDF",
".X c gray88",
"XX c #E1E1E1",
"oX c #E2E2E2",
"OX c gray89",
"+X c #E4E4E4",
"@X c gray90",
"#X c #E6E6E6",
"$X c #E7E7E7",
"%X c gray91",
"&X c #E9E9E9",
"*X c #EAEAEA",
"=X c gray92",
"-X c #ECECEC",
";X c gray93",
":X c #EEEEEE",
">X c #EFEFEF",
",X c gray94",
"<X c #F1F1F1",
"1X c gray95",
"2X c #F3F3F3",
"3X c #F4F4F4",
"4X c gray96",
"5X c #F6F6F6",
"6X c gray97",
"7X c #F8F8F8",
"8X c #F9F9F9",
"9X c gray98",
"0X c #FBFBFB",
"qX c gray99",
"wX c #FDFDFD",
"eX c #FEFEFE",
"rX c white",
/* pixels */
"t.i                                                                                                                                                                                                                                                                                         i t.",
"i                                                                                                                                                                                                                                                                                             i ",
"                                                                                                                                                                                                                                                                                                ",
"                                                                                                                                                                                                                                                                                                ",
"                                                                                                                  2 p X     p C                                                                                                                                                                 ",
"                                                                                                                | wXrX+X3.Q {.6.                                                                                                                                                                ",
"                                                                                                              4 6Xj.4.(.rXrX;Xt                                                                                                                                                                 ",
"                                                                                                              t { .     l K 1                                                                                                                                                                   ",
"                                                                                                        + t t *                 4 t ,               @ v  .&.A ;                 < t 8                                                                                                           ",
"                                                                                                        i rXrXB.                v.rX1.          5 A.8XrXrXrXrXeX!.c             8.rXJ.                                                                                                          ",
"                                                                                                        i rXrXrXE               v.rX1.        N @XrX3XH.5.*.V.*XrX7X[           8.rXJ.                                                                                                          ",
"                                                                                                        i rXrXrX&X<             v.rX1.      z 0XrXP.1         o a.rXrX .        8.rXJ.                                                                                                          ",
"                                                                                                        i rXrXU.rXl.            v.rX1.      G.rXF.$               5.rX*X-       8.rXJ.                                                                                                          ",
"                                                                                                        i rXrXs 7XrXH           v.rX2.    D rXeXf                 # #XrX3.      8.rXJ.                                                                                                          ",
"                                                                                                        i rXrXX ;.rXXX-         v.rX2.    z.rXZ.                    *.rXXX      1.rXD.                                                                                                          ",
"                                                                                                        i rXrXX O Q.rXi.        v.rX2.    T.rX#.                    c rXeX%     X.rXz.                                                                                                          ",
"                                                                                                        i rXrXX   l 0XeXB       v.rX2.    <XrXU                     1 rXrXj     Q rXe.                                                                                                          ",
"                                                                                                        i rXrXX     6.rX'.$     v.rX2.  = rXrXm                       0XrXK     S rX;.                                                                                                          ",
"                                                                                                        i rXrXX     # `.rX7.    v.rX2.    -XrXE                     5 rXrXs     h rX]                                                                                                           ",
"                                                                                                        i rXrXX       N wX0Xl   v.rX2.    P.rX&.                    m rXqX@     8 rXY                                                                                                           ",
"                                                                                                        i rXrXX         y.rXW.O v.rX2.    f.rXL.                    6.rX].      @ rXB                                                                                                           ",
"                                                                                                        i rXrXX         =  XrX-.v.rX2.    x eXrXN                 - ,XrX+.        i.8                                                                                                           ",
"                                                                                                        i rXrXX           F rX7XW.rX2.      b.rXE.3             O j.rX|.@                                                                                                                       ",
"                                                                                                        i rXrXX             g.rXrXrX2.      y ,XrX[.d         < S.rXwXR         :.n.h.                                                                                                          ",
"                                                                                                        i rXrXX             , $XrXrX2.        y Q.rXrXXXv.d./.wXrX=XD           F.rX,X                                                                                                          ",
"                                                                                                        i rXrXX               Y rXrX2.          % e.].eXrXrXrX@Xn.0             F.rX,X                                                                                                          ",
"                                                                                                                                                      : A L 7                                                                                                                                   ",
"                                                                                                                                                                                                                                                                                                ",
"                                                                                                                                                                                                                                                                                                ",
"                                                                                                                                                                                                                                                                                                ",
"                                                                                                                                                                                                                                                                                                ",
"                                                                                                                                                                                                                                                                                                ",
"                                                                                                                                                                                                                                                                                                ",
"                                                                                                                                          @ u 9 .           = u #                                                                                                                               ",
"                                                    > rX5X4X6XF.U                                                       ] wX4X4X4X4X<.  ' @XR.>X!.i     a Y.#X`.1X>.          3 X.                                                  _.h    .5                                                   ",
"                                                    > rX1   $ U ,X&                                                     ] H.          e 2X9   X p.K.  5 &XR     e &X{         d ].                                                  s %   _.j                                                   ",
"                                                    > rX1       *XM 2.Y k.d.  @.XX}.O.  # k.2X-X4.  # k.2X-X4.          ] H.          c 5X4     > L   9.l.        c G       k }.8X_.< > v.;X`.(             @.XX}.O.  ) C..   0.-.  Z.p J.8X|.~                                                 ",
"                                                    > rX1   O ~ >X+ s.).9.g E T.w a `.H ` L., u OXc ` L., u OXc         ] ).^ ^ ^ ^ , O K.*Xu.P &     Z.}                   % I .Xd o B.v.3 C -XV         E T.w a `.H @ ^.[ B oX:   _.h i }.T <                                                 ",
"                                                    > rX@XOX1X.X{   s.V.    G.P @ @ ` c.! }.n . w : ! }.n . w :         ] ;XD.D.D.D.y   o Q c.%X<X`   Y.^                     d ].  1 9X>     ,.j.        G.P @ @ ` c.  c *X'.J     _.h   _.j                                                   ",
"                                                    > rXZ k d .     s.=.    {.qX0X0X0XP.+ 6.&X&Xy.& + 6.&X&Xy.&         ] H.          @ @     X / qXw M.&.        d [         d ].  z XX      R K.        {.qX0X0X0XP.    G. Xo     _.h   _.j                                                   ",
"                                                    > rX1           s...    I.V     # > = # . n /.<.= # . n /.<.        ] H.          $.l.         XG *.I.        4.h.        d ].  q 4Xo      .M.        I.V     # >   A }.L.%.    _.h   _.j                                                   ",
"                                                    > rX1           s...    >.x.X   d.| 1.a.    w.q.1.a.    w.q.        ] H.          z <Xb     k 6X6 , <X%.    g :XV         a  X  . ~.o.  - ~.)         >.x.X   d.| & }.H a <Xi   _.h   /.c                                                   ",
"                                                    > rX1           s...    = m.|._.N.+ 5 T.`.W.!.t 5 T.`.W.!.t         ] wX4X4X4X4X8.  _ %X/.W.oXW     j ^.*X!.*X{           & ].&X2 h /.^.+Xi.o         = m.|._.N.+ r.b.    4.L.X _.h   t.>X)                                                 ",
"                                                                                % %         1 3         1 3                               o e r o           , t o                         < +                 % %                                                                               ",
"                                                                                                                                                                                                                                                                                                ",
"                                                                                                                                                                                                                                                                                                ",
"i                                                                                                                                                                                                                                                                                             i ",
"t.i                                                                                                                                                                                                                                                                                         i t."
};
