/* XPM */
static char *result[] = {
/* columns rows colors chars-per-pixel */
"32 32 143 2 ",
"   c #0B0C0D",
".  c #0D0F11",
"X  c #0F1113",
"o  c #111315",
"O  c #1B1717",
"+  c #121619",
"@  c #16191B",
"#  c #1A1A1B",
"$  c #221E1C",
"%  c #24201F",
"&  c #2C221E",
"*  c #1B1E21",
"=  c #1E2023",
"-  c #242323",
";  c #2C2422",
":  c #2E2826",
">  c #252628",
",  c #27282A",
"<  c #2A2A2B",
"1  c #302522",
"2  c #392720",
"3  c #372A24",
"4  c #3D2C24",
"5  c #352D2B",
"6  c #3D2F29",
"7  c #39302E",
"8  c #2B2E30",
"9  c #303335",
"0  c #3A3232",
"q  c #343638",
"w  c #3B3D3F",
"e  c #402D25",
"r  c #41332C",
"t  c #49352D",
"y  c #4D392F",
"u  c #423530",
"i  c #483431",
"p  c #473A34",
"a  c #4D3C34",
"s  c #523D33",
"d  c #4E433E",
"f  c #54433C",
"g  c #5C463C",
"h  c #5C483E",
"j  c #624B3E",
"k  c #6E4E3F",
"l  c #3B3D40",
"z  c #3E4042",
"x  c #434547",
"c  c #4F4240",
"v  c #444648",
"b  c #5C4641",
"n  c #554845",
"m  c #5C4B44",
"M  c #604641",
"N  c #634D43",
"B  c #6F4F42",
"V  c #734F42",
"C  c #6C5346",
"Z  c #64524A",
"A  c #6B554A",
"S  c #6E584B",
"D  c #725143",
"F  c #71544B",
"G  c #7A5749",
"H  c #72594C",
"J  c #7C594B",
"K  c #6D5A53",
"L  c #795751",
"P  c #745D52",
"I  c #7C5D54",
"U  c #746057",
"Y  c #7B6255",
"T  c #756159",
"R  c #7D655A",
"E  c #7F6A61",
"W  c #875A56",
"Q  c #835D58",
"!  c #8A5D59",
"~  c #826355",
"^  c #836359",
"/  c #8D655F",
"(  c #826A5D",
")  c #8A695B",
"_  c #8F6660",
"`  c #846B60",
"'  c #886F63",
"]  c #826E6A",
"[  c #926962",
"{  c #9A6D69",
"}  c #8C7265",
"|  c #8E756A",
" . c #93766A",
".. c #9F726F",
"X. c #937A6D",
"o. c #977D72",
"O. c #9A7E73",
"+. c #967E79",
"@. c #A27D76",
"#. c #A87C78",
"$. c #9C8377",
"%. c #9C847A",
"&. c #9F887E",
"*. c #A18276",
"=. c #A2857A",
"-. c #AD837C",
";. c #A48A7D",
":. c #A8897C",
">. c #A08680",
",. c #A68C81",
"<. c #A98D81",
"1. c #B18781",
"2. c #B18982",
"3. c #AD9285",
"4. c #B09387",
"5. c #B29589",
"6. c #BC918B",
"7. c #B59A8D",
"8. c #B69D92",
"9. c #BA9E92",
"0. c #BEA396",
"q. c #BFA498",
"w. c #C1968F",
"e. c #C29791",
"r. c #C69B95",
"t. c #C2A699",
"y. c #C5A99D",
"u. c #C8AC9F",
"i. c #C7ACA0",
"p. c #CAAEA1",
"a. c #CEB2A6",
"s. c #CFB3A8",
"d. c #D0B4A7",
"f. c #D2B5A9",
"g. c #D5B9AD",
"h. c #D8BCAF",
"j. c #DABDB1",
"k. c #DEC1B5",
"l. c #DFC3B8",
"z. c #E0C3B7",
"x. c #E2C5B9",
"c. c #E3C8BE",
"v. c None",
/* pixels */
"v.v.v.v.v.v.v.v.v.v.v.v.v.v.v.# X + v.v.v.v.v.v.v.v.v.v.v.v.v.v.",
"v.v.v.v.v.v.v.v.v.    X X . X X X X   o   X v.v.v.v.v.v.v.v.v.v.",
"v.v.v.v.v.v.v.> > > , # X + o o + + + o X X X v.v.v.v.v.v.v.v.v.",
"v.v.v.v.v.v., w x x v 9 * + * * 8 q * + + + X X o v.v.v.v.v.v.v.",
"v.v.v.v.v.# w z w < , , > : > > , , , = o o + + o o o v.v.v.v.v.",
"v.v.v.v.o @ , % - d f f Z &.N f f f a % # @ X X o o   v.v.v.v.v.",
"v.v.v.v.X # f $.;.3.5.0.h.l.u.5.5.5.,.` R R p ; o o o o v.v.v.v.",
"v.v.v.o   a q.z.z.k.k.l.x.z.z.k.j.k.g.y.y.7.;.| p + o X   v.v.v.",
"v.v.v.- % P j.x.x.x.x.x.x.z.c.z.z.x.x.l.x.j.s.9.;.N $ . X v.v.v.",
"v.v.v.  0 i.c.c.x.x.x.x.z.z.z.z.x.x.l.c.x.x.x.l.p.,.a X o v.v.v.",
"v.v.- X u a.f.i.8.0.g.x.z.z.z.z.x.x.l.s.f.y.q.g.k.9.a o   v.v.v.",
"v.v.o ; E | P m a b T %.t.h.z.k.a.7.X.T P N m T <.8.a o . v.v.v.",
"v.v.  & Y Z K P K m f N X.9.k.a.$.P h g f A P P A | P $   v.v.v.",
"v.v.  & ( | ` ` Z i a M ^ y.x.y.R j g t t A R o.E H ' 6   v.v.v.",
"v.v.  ; o.$.Z H t 6 s N $.g.c.5.C C g t 2 4 4 y P } H 3   v.v.v.",
"v.$   1 5.a.%.X.( I ` X.3.g.c.4.B C H j t h M H | 3.X.6   v.v.v.",
"v.0 d A u.x.l.k.f.p.t.3.t.z.c.5.k C } o.} Y $.8.p.9.=.r O 1 & v.",
"< E %.&.7.k.x.x.x.x.h.9.d.c.c.5.V G 9.j.g.0.t.j.z.t.=.N N Q A ; ",
"v.n %.&.5.g.l.l.x.k.7. .5.z.z.:.k G 5.z.x.x.z.x.k.0.( H _ _ Q $ ",
"v.5 $.;.5.9.k.l.d.t.:.~ W *.*.G V D ) a.x.x.x.j.0.:.Y C _ _ M 1 ",
"v.0 ] ,.3.4.t.k.g.t.g.9.~ k k k D D *.a.x.x.z.p.3.} C Q _ L 5 v.",
"v.v.c >.:.3.3.p.z.g.u.4. .I P | R H ( | 3.t.0.3.3.^ C / [ i v.v.",
"v.v.5 K %.3.:.0.0.4.7.t.9.*.@.*.*. .D N C O.3.3.3.^ N j M u v.v.",
"v.v.v.v.d %.5.y.a.4.} @.#...W / { { D D ( ;.3.3.3.R 3 v.v.v.v.v.",
"v.v.v.v.- X.q.k.x.g.:.:.r.e.-.6.r.-.@.$.7.7.3.3.%.S % v.v.v.v.v.",
"v.v.v.v.v.f 3.i.k.x.f.5.5.*.~ Y X.:.4.5.d.q.:.;.( 6 v.v.v.v.v.v.",
"v.v.v.v.v.7 $.3.d.l.k.p.u.5.} H ' :.7.d.k.9.:.$.N & v.v.v.v.v.v.",
"v.v.v.v.v.v.n 3.7.a.k.l.x.x.k.a.g.k.k.x.p.4.;.P r % v.v.v.v.v.v.",
"v.v.v.v.v.v.v.$.$.4.y.k.k.k.k.d.d.k.k.a.7.=.Y h & v.v.v.v.v.v.v.",
"v.v.v.v.v.v.v.v.h R ;.4.:.5.:.*. .;.5.=.} S t v.v.v.v.v.v.v.v.v.",
"v.v.v.v.v.v.v.v.v.h j S S P Y S j j S j a v.v.v.v.v.v.v.v.v.v.v.",
"v.v.v.v.v.v.v.v.v.v.v.v.2 f y f y 4 4 y v.v.v.v.v.v.v.v.v.v.v.v."
};
