/* XPM */
static char *result[] = {
/* columns rows colors chars-per-pixel */
"64 64 119 2 ",
"   c #000000",
".  c #0E0A07",
"X  c #060608",
"o  c #070809",
"O  c #0A0B0D",
"+  c #120D0C",
"@  c #15110F",
"#  c #0B0F12",
"$  c #0E1114",
"%  c #101417",
"&  c #1B1111",
"*  c #131619",
"=  c #171A1D",
"-  c #1A1A1B",
";  c #241C19",
":  c #2C1F1B",
">  c #32211E",
",  c #1A1E21",
"<  c #1E2023",
"1  c #232323",
"2  c #2D2523",
"3  c #25272A",
"4  c #25292B",
"5  c #28292A",
"6  c #3D2720",
"7  c #3E2923",
"8  c #342B29",
"9  c #393C3D",
"0  c #442D26",
"q  c #462F28",
"w  c #4E362E",
"e  c #53392F",
"r  c #403C3A",
"t  c #543B33",
"y  c #583E33",
"u  c #513E38",
"i  c #723A36",
"p  c #5C4337",
"a  c #5B453E",
"s  c #5F483C",
"d  c #66433B",
"f  c #664A3D",
"g  c #6B4D3E",
"h  c #78413E",
"j  c #744F3F",
"k  c #7A4E3F",
"l  c #414446",
"z  c #484949",
"x  c #5D4B44",
"c  c #545455",
"v  c #664C42",
"b  c #6B4F40",
"n  c #724F40",
"m  c #6D5142",
"M  c #6D564F",
"N  c #725546",
"B  c #7D5243",
"V  c #73564B",
"C  c #76594A",
"Z  c #7B5E4F",
"A  c #7A5A51",
"S  c #7E6255",
"D  c #696665",
"F  c #767676",
"G  c #7C7C7C",
"H  c #83594A",
"J  c #826455",
"K  c #83665B",
"L  c #84695E",
"P  c #8B6C5D",
"I  c #96645E",
"U  c #876C61",
"Y  c #8B6E61",
"T  c #896F6B",
"R  c #9C6562",
"E  c #956E60",
"W  c #9F6D66",
"Q  c #927264",
"!  c #947469",
"~  c #95786D",
"^  c #9B7C6E",
"/  c #9C7D70",
"(  c #A46D6B",
")  c #A87872",
"_  c #9F817C",
"`  c #A38375",
"'  c #A4857B",
"]  c #A98779",
"[  c #AB8A7C",
"{  c #B5817A",
"}  c #848484",
"|  c gray56",
" . c #AE8E81",
".. c #B08F81",
"X. c #BA8982",
"o. c #B19082",
"O. c #B89789",
"+. c #BA998B",
"@. c gray67",
"#. c #C1978D",
"$. c #C09E91",
"%. c #D39D97",
"&. c #C2A193",
"*. c #CCAA9D",
"=. c #CFADA0",
"-. c #D5B2A5",
";. c #D8B4A7",
":. c #DAB7AA",
">. c #DFBBAE",
",. c #E0BCAF",
"<. c #E1BEB1",
"1. c #E7C3B6",
"2. c #E6C4B9",
"3. c #C3C3C3",
"4. c #D4D4D4",
"5. c #E9E9E9",
"6. c #F3F3F3",
"7. c #FDFDFD",
"8. c None",
/* pixels */
"8.8.8.8.8.8.8.8.8.8.8.8.8.8.8.8.8.8.8.8.8.8.8.8.8.8.8.8.8.8.8.8.8.8.8.8.8.8.8.8.8.8.8.8.8.8.8.8.8.8.8.8.8.8.8.8.8.8.8.8.8.8.8.8.",
"8.8.8.8.8.8.8.8.8.8.8.8.8.8.8.8.8.8.8.8.8.8.8.8.8.8.8.8.8.8.8.8.8.8.8.8.8.8.8.8.8.8.8.8.8.8.8.8.8.8.8.8.8.8.8.8.8.8.8.8.8.8.8.8.",
"8.8.8.8.8.8.8.8.8.8.8.8.8.8.8.8.8.8.8.8.8.8.8.8.8.8.8.8.8.8.8.8.8.8.    G 8.8.8.8.8.8.8.8.8.8.8.8.8.8.8.8.8.8.8.8.8.8.8.8.8.8.8.",
"8.8.8.8.8.8.8.8.8.8.8.8.8.8.8.8.8.8.8.8.8.8.8.8.8.8.8.G             * % O       4.8.8.8.8.8.8.8.8.8.8.8.8.8.8.8.8.8.8.8.8.8.8.8.",
"8.8.8.8.8.8.8.8.8.8.8.8.8.8.8.8.8.8.8.8.8.8.1         O % % % % % % % * * % % %         7.8.8.8.8.8.8.8.8.8.8.8.8.8.8.8.8.8.8.8.",
"8.8.8.8.8.8.8.8.8.8.8.8.8.8.8.8.8.8.8.8.8.- % $ $ $ $ % % % % % % % % % % % % % $ $ $ $ - } 8.8.8.8.8.8.8.8.8.8.8.8.8.8.8.8.8.8.",
"8.8.8.8.8.8.8.8.8.8.8.8.8.8.8.8.8.8.8.8.| - 3 3 4 4 4 < % % % % % % % % % % % % % % * $ O z | | 8.8.8.8.8.8.8.8.8.8.8.8.8.8.8.8.",
"8.8.8.8.8.8.8.8.8.8.8.8.8.8.8.8.8.8.7.6.X l l l l l l 5 % % % % % % % * * * % % % % % % % O     6.7.8.8.8.8.8.8.8.8.8.8.8.8.8.8.",
"8.8.8.8.8.8.8.8.8.8.8.8.8.8.8.8.8.8.G   l l l l l l l 4 % % % % % % % l l l % % % % % % % % % %   4.8.8.8.8.8.8.8.8.8.8.8.8.8.8.",
"8.8.8.8.8.8.8.8.8.8.8.8.8.8.8.8.8.  1 l l l l l l l l l l l $ 9 l l l l l l l % % % % % % % % % $ X 1 8.8.8.8.8.8.8.8.8.8.8.8.8.",
"8.8.8.8.8.8.8.8.8.8.8.8.8.8.8.8.8.  1 l l l l 9 # # # # # # 6 $ # # # # # # # l , % % % % % % % % * $   8.8.8.8.8.8.8.8.8.8.8.8.",
"8.8.8.8.8.8.8.8.8.8.8.8.8.8.8.8.X * 5 l $ # $ % 6 6 6 6 6 6 <.p 6 6 6 8 6 6 7 # # # # # % % * % * $ $   8.8.8.8.8.8.8.8.8.8.8.8.",
"8.8.8.8.8.8.8.8.8.8.8.8.8.8.8.8.  $ = < : : : 7 U Y Y Y Y  .2.^ U U Y Y Y Y Y : ; : : : % # # % $ % $ # c 7.8.8.8.8.8.8.8.8.8.8.",
"8.8.8.8.8.8.8.8.8.8.8.8.8.8.7.4.X $ $ % w u p v  . . .O.O.1.2.$.O.....o.o.o...e w w t w % % % % * % % % X 4.5.8.8.8.8.8.8.8.8.8.",
"8.8.8.8.8.8.8.8.8.8.8.8.8.8.4.  % $ ; 6 o.1.1.>.o.o. .=.1.1.1.1.>.......o...o.o.o.o.o.o.6 6 6 # % % % % *   G 8.8.8.8.8.8.8.8.8.",
"8.8.8.8.8.8.8.8.8.8.8.8.8.8.4.  $ 6 A o.1.1.1.1.1.1.1.2.1.1.1.1.2.1.1.1.1.1.1.o.o.o.o.o.......6 # % % % $   F 8.8.8.8.8.8.8.8.8.",
"8.8.8.8.8.8.8.8.8.8.8.8.8.8.4.  $ > ~ 1.1.1.1.1.1.1.1.1.1.1.1.1.1.1.1.1.1.1.1.1.1.1.1.o.o.o.o...6 % # $ %   F 8.8.8.8.8.8.8.8.8.",
"8.8.8.8.8.8.8.8.8.8.8.8.8.1 O l $ 7 ~ 1.1.1.1.1.1.1.1.1.1.1.1.1.1.1.1.1.1.1.1.1.1.1.1.1.1.*.o.o. .t > $ %   F 8.8.8.8.8.8.8.8.8.",
"8.8.8.8.8.8.8.8.8.8.8.8.8.1 X * > *.:.1.1.1.1.1.1.1.1.1.1.1.1.1.1.1.1.1.1.1.1.1.1.1.1.1.1.<.>.>...` Q > #   F 8.8.8.8.8.8.8.8.8.",
"8.8.8.8.8.8.8.8.8.8.8.8.8.1   $ 7 1.1.1.1.1.1.1.1.1.1.1.1.1.1.1.1.1.1.1.1.1.1.1.1.1.1.1.1.1.1.1.o.o.` 7 # X c @.8.8.8.8.8.8.8.8.",
"8.8.8.8.8.8.8.8.8.8.8.8.8.1   O > 1.1.1.1.1.1.1.1.1.1.1.1.1.1.1.1.1.1.1.1.1.1.1.1.1.1.1.1.1.1.1.o.o.` > @ % O   8.8.8.8.8.8.8.8.",
"8.8.8.8.8.8.8.8.8.8.8.8.8.2   % 0 1.1.1.1.1.1.1.1.1.1.1.1.1.1.1.1.1.1.1.1.1.1.1.1.1.1.1.1.1.1.1.1.+.` 7 $ % O   8.8.8.8.8.8.8.8.",
"8.8.8.8.8.8.8.8.8.8.8.8.  9 9 O > 1.*.[  .u p u u [ 1.1.1.1.1.1.1.1.1.1.1.1.1.o.o.o.o.m b Y o.1.1.+.` 7 O % O   8.8.8.8.8.8.8.8.",
"8.8.8.8.8.8.8.8.8.8.8.8.  O % 6 1.j a u u u u u u u a L o.o.1.1.1.1.1.o...o.b u u u u u u u u u 1.+.` > $ $ O   8.8.8.8.8.8.8.8.",
"8.8.8.8.8.8.8.8.8.8.8.8.  # % 6 O.u u u a u u a a a r s m o.o.>.1.1.o.o.Q m p u u u u u u u u u a ` ` 0 # % O   8.8.8.8.8.8.8.8.",
"8.8.8.8.8.8.8.8.8.8.8.8.  O % 6 P p M L U U S S a a s f g o.o.>.1.1...P Z b s a s s s U U U U U u ` ] J ; # O   8.8.8.8.8.8.8.8.",
"8.8.8.8.8.8.8.8.8.8.8.8.  O @ 7 N a L [ [ [ ` ` f f g g m [ O.,.1.1.o.b b b b f f g g [ [  . .o.u / [ [ > % o   8.8.8.8.8.8.8.8.",
"8.8.8.8.8.8.8.8.8.8.8.8.  O % 6 o.o.Y g A A 0 6 > 7 g g g g 1.1.1.1.o.m b b b 6 6 6 6 H A ! o.o.b b C o.6 # o   8.8.8.8.8.8.8.8.",
"8.8.8.8.8.8.8.8.8.8.8.8.  O % 6 o.o.! A A A q 6 7 > > y j o.2.2.2.2.k b b b 6 6 0 > 6 6 > 0 > b b b b b 6 # o   8.8.8.8.8.8.8.8.",
"8.8.8.8.8.8.8.8.8.8.8.8.  # & 7 o.o.Z > A A q 6 7 J A Z A o.2.2.2.2.k b N A A A q > 6 6 0 > 7 b ....] b 6 # o   8.8.8.8.8.8.8.8.",
"8.8.8.8.8.8.8.8.8.8.8.8.  O % 7 1.1.*.o.A A A A Z A A ~ o.o.2.2.2.2.k b b b A A q 0 > Z 7 e g b o.o.o.o.6 # o   8.8.8.8.8.8.8.8.",
"8.8.8.8.8.8.8.8.8.8.7.9 : % @ > 1.1.>.:.*.*.[ ` ` ` ` [ o.o.2.2.2.2.B n n b m m b b N Z Q ` ) ` o.o.o...6 # o   8.8.8.8.8.8.8.8.",
"8.8.8.8.8.8.8.8.8.8.7.  t - < u 1.1.1.1.1.1.&.+.$.+.o.o.o.+.2.2.2.2.k k j b Z Z P K C C o.o.o.+.+.o.o.o.> % @ . 3.3.6.8.8.8.8.8.",
"8.8.8.8.8.8.8.8.8.8.7.  _ w e  .1.1.1.1.1.1.1.1.1.1.o.o.o.2.2.2.2.2.k k j b ....[ ] m g o.o.o.1.2.+.o.o.> $ ; >     4.8.8.8.8.8.",
"8.8.8.8.8.8.8.8.8.F    ._ _ _  .o.1.1.1.1.1.1.1.1.1.1.*.o.2.2.2.2.2.k k j b ..1.1.1.2.[ o.*.1.1.1.+.o.o.g 7 f I I I & < 8.8.8.8.",
"8.8.8.8.8.8.8.8.8.F   _ _ _  . .o.1.1.1.1.1.1.1.1.1.o.o.o.2.2.2.2.2.k k k B 1.1.1.1.1.1.1.1.1.1.1.+.o.o.g I I I I I & 2 8.8.8.8.",
"8.8.8.8.8.8.8.8.8.8.7.  _ _ _  .o.1.1.1.1.1.1.1.1.o.o.E k 1.1.2.2.1.k k k k ..1.1.1.1.1.1.1.1.1.1.+.' g m I I I I I & 1 8.8.8.8.",
"8.8.8.8.8.8.8.8.8.8.7.  _ _ _  .o.O.=.1.1.1.1.1.1.o.m B k H 1.2.;.H k k k k B 1.1.1.1.1.1.1.1.1.O.o.] g g I I I I I & < 8.8.8.8.",
"8.8.8.8.8.8.8.8.8.8.7.  _ _ ' o.o.o.*.1.1.1.-.*.*.o.P H k k o.o.] k k k k k B *.1.1.1.1.1.1.1.=.o.o.] m g I I I I t D } 8.8.8.8.",
"8.8.8.8.8.8.8.8.8.8.7.   ./ ' o.o.o.*.1.1.1.+.O.o.o.O.Q B B k k k k k k k B B o.>.1.1.1.1.1.1.o.o.[ ` m m I I I I   4.8.8.8.8.8.",
"8.8.8.8.8.8.8.8.8.8.7.  _ _ ' ..o...o. .1.1.1.>.o.1.1.*.o.k k k k k k k j g o.1.1.1.1.1.1.1.1.o...C b b I I I I I   4.8.8.8.8.8.",
"8.8.8.8.8.8.8.8.8.8.8.8.  T _ _ o.o.o.o.o.1.1.1.1.1.1.*.o.g m g b b b b m g o.o.>.1.1.1.2.*.o.o.o.C b b I I I I   8.8.8.8.8.8.8.",
"8.8.8.8.8.8.8.8.8.8.8.8.  T _ _ o.o...o.o.1.1.1.1.o.o.Q g o.g g C ....b g m b b g C o.o.o.o.o.o.o.C b b I I I I   8.8.8.8.8.8.8.",
"8.8.8.8.8.8.8.8.8.8.8.8.  T _ _ o.o.o.o.o.1.+.o.o.[ 1.1.1.1.o.o...........o.b b g m g o.o.o.o.o.o.C b f I I I I   8.8.8.8.8.8.8.",
"8.8.8.8.8.8.8.8.8.8.8.8.  2 8 8 o.o.o.o.o.&.o.o.o.o.&.&.&.X.) ) ) ) ) ) ) ) b b m g g o.o.o.o.o.o.C b b > > : > @.8.8.8.8.8.8.8.",
"8.8.8.8.8.8.8.8.8.8.8.8.5 5 5 5 ~ o.o.[ o.+.+.O.o.] [ [ [ ( ( R R R R ( ( ( g j g m C o.o.o.[ o.o.Z g p 5 5 5 5 8.8.8.8.8.8.8.8.",
"8.8.8.8.8.8.8.8.8.8.8.8.8.8.8.8.  o.o.o.o.1.1.>.o.g ( ( ( ( ( h i i i ( ( ( i i g C o.o.o.o.o.o.o.C p   8.8.8.8.8.8.8.8.8.8.8.8.",
"8.8.8.8.8.8.8.8.8.8.8.8.8.8.8.8.  o.o.o.1.1.1.1.1.I I { %.%.%.W ( %.%.%.) R I I [ o.o.o.o.o.o.o.o.C p   8.8.8.8.8.8.8.8.8.8.8.8.",
"8.8.8.8.8.8.8.8.8.8.8.8.8.8.8.8.  o.o.o.1.1.1.1.1.1.o.#.%.%.%.%.%.*.%.%.%.%.*.[ [ +.2.o.o.o.o.o.m m p   8.8.8.8.8.8.8.8.8.8.8.8.",
"8.8.8.8.8.8.8.8.8.8.8.8.8.8.8.8.8.  x o.o.1.1.1.1.1.o.o.o.o.o.C j g j [ [ O.[ O.O.+.2.o.o.o.o.o.g + 1 8.8.8.8.8.8.8.8.8.8.8.8.8.",
"8.8.8.8.8.8.8.8.8.8.8.8.8.8.8.8.8.  x o...+.,.1.1.1...o.o.o.C m g g g C ^ [ O.[ -.<.1.[ o.o.o.C b + 2 8.8.8.8.8.8.8.8.8.8.8.8.8.",
"8.8.8.8.8.8.8.8.8.8.8.8.8.8.8.8.8.  x o.o.o.>.1.1.1.&.&.&.&.Q K S g j J ` [ [ &.1.1.2.o.o.o.o.g b + 1 8.8.8.8.8.8.8.8.8.8.8.8.8.",
"8.8.8.8.8.8.8.8.8.8.8.8.8.8.8.8.8.X x [ o.o.>.1.1.1.1.1.1.1.1.+.[ g N [ [ [ O.1.1.1.1.[ o.o.o.m g @ 1 8.8.8.8.8.8.8.8.8.8.8.8.8.",
"8.8.8.8.8.8.8.8.8.8.8.8.8.8.8.8.8.8.G   o.o. .O.1.1.1.1.1.1.1.1.1.1.1.2.1.1.1.1.1.:.O.[ [ Q g g   4.8.8.8.8.8.8.8.8.8.8.8.8.8.8.",
"8.8.8.8.8.8.8.8.8.8.8.8.8.8.8.8.8.8.G   o.o.o.o.o.1.1.1.1.1.1.1.1.1.1.1.1.1.1.1.1.1.[ O.o.Q m j   4.8.8.8.8.8.8.8.8.8.8.8.8.8.8.",
"8.8.8.8.8.8.8.8.8.8.8.8.8.8.8.8.8.8.8.7.  o.o. .o.o.1.1.1.1.1.1.1.1.o.1.1.1.1.1.O.O.[ [ m g g >   4.8.8.8.8.8.8.8.8.8.8.8.8.8.8.",
"8.8.8.8.8.8.8.8.8.8.8.8.8.8.8.8.8.8.8.7.  0 0 t [ +.+.[ [ +.+.[ O.o.[ O.O.[ O.[ [ o.o.m 7 0 7 f   4.8.8.8.8.8.8.8.8.8.8.8.8.8.8.",
"8.8.8.8.8.8.8.8.8.8.8.8.8.8.8.8.8.8.8.7.  S p p Z [ [ [ +.[ [ [ O.[ P Y ` [ [ O.Q P P e p e p g   4.8.8.8.8.8.8.8.8.8.8.8.8.8.8.",
"8.8.8.8.8.8.8.8.8.8.8.8.8.8.8.8.8.8.8.7.  o.A b q [ [ [ [ [ [ [ [ [ g m Y [ [ [ N g f q N N N N   4.8.8.8.8.8.8.8.8.8.8.8.8.8.8.",
"8.8.8.8.8.8.8.8.8.8.8.8.8.8.8.8.8.8.8.7.  o.o.] b 8 b b m m b b g g g g g N g g 0 0 > o.[ o.o.o.  4.8.8.8.8.8.8.8.8.8.8.8.8.8.8.",
"8.8.8.8.8.8.8.8.8.8.8.8.8.8.8.8.8.8.8.7.@ [ &.[ [ N 7 7 7 6 b b b g b 7 6 7 6 6 f N o.o.o.o.o.o.  4.8.8.8.8.8.8.8.8.8.8.8.8.8.8.",
"8.8.8.8.8.8.8.8.8.8.8.8.8.8.8.8.8.8.8.7.o [ [ [ [ [ ] ` b m 6 6 6 6 7 b g g m g ] o.o.o.o.o.o.o.  4.8.8.8.8.8.8.8.8.8.8.8.8.8.8.",
"8.8.8.8.8.8.8.8.8.8.8.8.8.8.8.8.8.8.8.7.o [ &.[ &.[ [ [ [ N b b b b b b g m g m ] o.o.o.o.o.o.o.  4.8.8.8.8.8.8.8.8.8.8.8.8.8.8.",
"8.8.8.8.8.8.8.8.8.8.8.8.8.8.8.8.8.8.8.7.o [ [ [ [ [ [ [ [ b b b b b b b b g g ` [ o.o.o.o.o.o.o.t r c 8.8.8.8.8.8.8.8.8.8.8.8.8."
};
