/* XPM */
static char *result[] = {
/* columns rows colors chars-per-pixel */
"48 48 188 2 ",
"   c #15131D",
".  c #281C1E",
"X  c #1E192A",
"o  c #1C1727",
"O  c #2A1D22",
"+  c #201E24",
"@  c #251F34",
"#  c #3E1E33",
"$  c #2D292E",
"%  c #272128",
"&  c #342128",
"*  c #262135",
"=  c #2C223C",
"-  c #2E2C30",
";  c #3C2336",
":  c #33253D",
">  c #3B2B3C",
",  c #34323E",
"<  c #441D2F",
"1  c #451F31",
"2  c #412335",
"3  c #4C2233",
"4  c #462538",
"5  c #4C2B3D",
"6  c #522738",
"7  c #55293A",
"8  c #5A2D3D",
"9  c #4B353A",
"0  c #2C2643",
"q  c #322A46",
"w  c #342D49",
"e  c #3A2E49",
"r  c #37314C",
"t  c #3A334E",
"y  c #3A3746",
"u  c #3C3651",
"i  c #3E3853",
"p  c #512D42",
"a  c #4C3145",
"s  c #42364D",
"d  c #473045",
"f  c #543145",
"g  c #5C3043",
"h  c #543449",
"j  c #5A374C",
"k  c #5D394E",
"l  c #593F45",
"z  c #423A54",
"x  c #453E59",
"c  c #5E3C50",
"v  c #523A50",
"b  c #65374A",
"n  c #643B4E",
"m  c #683749",
"M  c #653E52",
"N  c #6A3D51",
"B  c #5E414A",
"V  c #444052",
"C  c #47415C",
"Z  c #49435E",
"A  c #4D4A5C",
"S  c #4D4853",
"D  c #574558",
"F  c #64454E",
"G  c #66484F",
"H  c #644255",
"J  c #6B4356",
"K  c #6F4659",
"L  c #664859",
"P  c #6E4E55",
"I  c #744B5B",
"U  c #7A4D5E",
"Y  c #774858",
"T  c #7A535F",
"R  c #4F4963",
"E  c #4C4761",
"W  c #534C65",
"Q  c #554E69",
"!  c #584E68",
"~  c #56516B",
"^  c #5B546D",
"/  c #5C596F",
"(  c #5C5770",
")  c #5F5A73",
"_  c #614D61",
"`  c #7C4F60",
"'  c #655D6A",
"]  c #7D5362",
"[  c #615C76",
"{  c #655F78",
"}  c #696276",
"|  c #66627B",
" . c #6A657D",
".. c #746D7F",
"X. c #756B77",
"o. c #844F5B",
"O. c #8E4B5E",
"+. c #975058",
"@. c #9B555D",
"#. c #A0595F",
"$. c #835462",
"%. c #845B66",
"&. c #865D68",
"*. c #8D5B6A",
"=. c #8A5664",
"-. c #935362",
";. c #925A66",
":. c #925E6B",
">. c #9C5967",
",. c #A25C63",
"<. c #8D636E",
"1. c #94616E",
"2. c #9B626F",
"3. c #8F6070",
"4. c #926370",
"5. c #9A6674",
"6. c #996A74",
"7. c #956873",
"8. c #A56269",
"9. c #AA656A",
"0. c #A46B75",
"q. c #A26E7B",
"w. c #AA6976",
"e. c #A4727C",
"r. c #AB717B",
"t. c #B3757D",
"y. c #BD797C",
"u. c #6C6780",
"i. c #6E6982",
"p. c #746D84",
"a. c #746F88",
"s. c #777087",
"d. c #76708A",
"f. c #7B748B",
"g. c #7E788F",
"h. c #7C7381",
"j. c #7F7890",
"k. c #81768E",
"l. c #81788E",
"z. c #847B92",
"x. c #897F95",
"c. c #A67281",
"v. c #AA7785",
"b. c #AB7886",
"n. c #B47982",
"m. c #BC7C84",
"M. c #B47D8C",
"N. c #B57780",
"B. c #C17E84",
"V. c #8A8197",
"C. c #8E849A",
"Z. c #90869C",
"A. c #93899E",
"S. c #BD8289",
"D. c #9B8FA4",
"F. c #958BA0",
"G. c #9B90A5",
"H. c #A296AB",
"J. c #A598AD",
"K. c #AFA1B4",
"L. c #B4A5B9",
"P. c #C38187",
"I. c #C4848A",
"U. c #C9878C",
"Y. c #CA898E",
"T. c #C4888E",
"R. c #CD8C92",
"E. c #D28E94",
"W. c #D39296",
"Q. c #D5969A",
"!. c #D9969A",
"~. c #DC999D",
"^. c #D5989A",
"/. c #E19C9F",
"(. c #DE9EA0",
"). c #E29FA2",
"_. c #E4A2A3",
"`. c #EAA5A7",
"'. c #EAA9A7",
"]. c #EBA7A8",
"[. c #EDAAAA",
"{. c #F2ADAD",
"}. c #F4B0AF",
"|. c #F6B3B1",
" X c #FBB5B4",
".X c #FCB9B6",
"XX c #FFBBB9",
"oX c None",
/* pixels */
"oXoXoXoXoXoXoXoXoXoXoXoXoXoXoXoXoXoXoXoXoXoXoXoXoXoXoXoXoXoXoXoXoXoXoXoXoXoXoXoXoXoXoXoXoXoXoXoX",
"oXoXoXoXoXoXoXoXoXoXoXoXoXoXoXoXoXoXoXoXoXoXoXoXoXoXoXoXoXoXoXoXoXoXoXoXoXoXoXoXoXoXoXoXoXoXoXoX",
"oXoXoXoXoXoXoXoXoXoXoXoXoXoXoXoXoXoXoXoXoXoX- $ % X $ oXoXoXoXoXoXoXoXoXoXoXoXoXoXoXoXoXoXoXoXoX",
"oXoXoXoXoXoXoXoXoXoXoXoXoXoXoXoXoXoXoXoXX.p.z.f.z.a.s...oXoXoXoXoXoXoXoXoXoXoXoXoXoXoXoXoXoXoXoX",
"oXoXoXoXoXoXoXoXoXoXoXoXoXoXoXoXoX' ..g.j.i.| i.g...W | d.} h.oXoXoXoXoXoXoXoXoXoXoXoXoXoXoXoXoX",
"oXoXoXoXoXoXoXoXoXoXoXoXoXoXoXS  .d.u.u.| | D.H.x.k.k.Q ~ | f.s.V oXoXoXoXoXoXoXoXoXoXoXoXoXoXoX",
"oXoXoXoXoXoXoXoXoXoXoXoXoXoXA a.i. .( ) E ~ Z.x.i.i.i.V./ W |  .d.g.oXoXoXoXoXoXoXoXoXoXoXoXoXoX",
"oXoXoXoXoXoXoXoXoXoXoXoXoX) i. . .| ) C p.z.g.x.i.^ [ ~  .| Z W [ d.z.oXoXoXoXoXoXoXoXoXoXoXoXoX",
"oXoXoXoXoXoXoXoXoXoXoXoXz [  . . .| Z z )  . .u z x z 0 x { i u C ^ u.} oXoXoXoXoXoXoXoXoXoXoXoX",
"oXoXoXoXoXoXoXoXoXoXoX% t w z ) u.[ z  .| s.i.i.[ ( ^ x w x E w w t u ( l.oXoXoXoXoXoXoXoXoXoXoX",
"oXoXoXoXoXoXoXoXoXoXoXX w q 0 z  .) k.V.z.g.Z.l.C.A.i.p.( { A.D.z t t e ! oXoXoXoXoXoXoXoXoXoXoX",
"oXoXoXoXoXoXoXoXoXoXoX* w w q x u.^ g.s. .f.p.f.d.f.s.k.p.D.L.L.A.s.C q z , oXoXoXoXoXoXoXoXoXoX",
"oXoXoXoXoXoXoXoXoXoXoX* w q q Q | ) i.~ | ~ ! ! ( k.C.J.d.d.F.p. .Z.V. .^ A oXoXoXoXoXoXoXoXoXoX",
"oXoXoXoXoXoXoXoXoXoXoXq w u q t r w t Z ~ i Z ) [ | E j.Z.i.[ Q ~ f.z.J.i.A oXoXoXoXoXoXoXoXoXoX",
"oXoXoXoXoXoXoXoXoXoXoX0 w t e u Z i p. .i 0 0 Z C R ) r W R t ^ d.K.C.F.u.^ oXoXoXoXoXoXoXoXoXoX",
"oXoXoXoXoXoXoXoXoXoXo q t r z D D L W L 1.] ] 4.4.L w i e e E | ~ g.j.j.^ ^ oXoXoXoXoXoXoXoXoXoX",
"oXoXoXoXoXoXoXoXoXoXy x q s S.]./.T F ~./.!. XXXXX X<.= = = t ~ C q z ^ | W oXoXoXoXoXoXoXoXoXoX",
"oXoXoXoXoXoXoXoXoXoX@ r i L XX|.e.z q.XX_.]. X X X X.XI.$.n U J t e z x t / oXoXoXoXoXoXoXoXoXoX",
"oXoXoXoXoXoXoXoXoXoXo w e <.XXb.' l.6.XX X X X X X X X.X`.B.P.0.z t w t u A oXoXoXoXoXoXoXoXoXoX",
"oXoXoXoXoXoXoXoXoXoX+ w = t.XX] p.l.6.XX X X X X X X X X X).!.~.I 0 q r w i oXoXoXoXoXoXoXoXoXoX",
"oXoXoXoXoXoXoXoXoXoXX w # Q.XXc.! Z.T  X.X X.X.X|.|.}. X.X X X.X_.d 0 t e i oXoXoXoXoXoXoXoXoXoX",
"oXoXoXoXoXoXoXoXoXoXo w a ).XX{.H i e 0.!.I.W.E.I.P.m.I.t.0.w.R.`.1.t t r W > oXoXoXoXoXoXoXoXoX",
"oXoXoXoXoXoXoXoXoX. c 0 a Y.!.t.o.4 ; 7 n J :.m.t.I H b 7 7 f 0.P.0.s i t z I . oXoXoXoXoXoXoXoX",
"oXoXoXoXoXoXoXoXoXO 7.= a m.m.N.o.N 8 3 < p M R.S.j f 1 3 b b =.m.;.: r q = &.& oXoXoXoXoXoXoXoX",
"oXoXoXoXoXoXoXoXoXO e.> c m.B.1.8 7 7 7 7 9 &..X'.Y 7 6 7 8 8 8 U :.h r r e &.oXoXoXoXoXoXoXoXoX",
"oXoXoXoXoXoXoXoXoXoX7.H $.R.[.Q.I.1.N J Y &.Y.|.'.@.I I H N $.w.w.B.k q q v &.oXoXoXoXoXoXoXoXoX",
"oXoXoXoXoXoXoXoXoXoX&.c.:.~..X.X|.U.Y.W.!.B.T..X_.8.m.I.W.T.P.`.E.B.H i r L P oXoXoXoXoXoXoXoXoX",
"oXoXoXoXoXoXoXoXoXoXH M.4.W..X X X X.X.X.XP.^..X'.,.t.).XX.X.X.X`.B.r.k q 1.G oXoXoXoXoXoXoXoXoX",
"oXoXoXoXoXoXoXoXoXoXB M.1.P. X X X X X X{.Y. X.X Xy.8./..X X X X|.I.I.=.] M.H oXoXoXoXoXoXoXoXoX",
"oXoXoXoXoXoXoXoXoXoX& b.c.m.{. X X X X{.P.(..X|. X[.9.P. X X X X_.m.m.:.n.b.9 oXoXoXoXoXoXoXoXoX",
"oXoXoXoXoXoXoXoXoXoX& v.6.r.!..X X X.X'.P.'..X.X.X'.B.). X X X XY.m.n.U S.v.oXoXoXoXoXoXoXoXoXoX",
"oXoXoXoXoXoXoXoXoXoXoX7.c.:.B.`..X X X X(.,.P.W.B.@.9.{. X X X}.I.m.r.M n.T oXoXoXoXoXoXoXoXoXoX",
"oXoXoXoXoXoXoXoXoXoXoXl I L m.R..X|.`. X Xm.>.+.@.>.!.XX X X X XB.b.` j M oXoXoXoXoXoXoXoXoXoXoX",
"oXoXoXoXoXoXoXoXoXoXoXoXoX5 5.B.E.R.m.(.Y.:.$.-.-.J *.W.].).|.{.B.` j j oXoXoXoXoXoXoXoXoXoXoXoX",
"oXoXoXoXoXoXoXoXoXoXoXoXoX; K m.N.*.N N M j j 5.U j j M ` ` m.B.c.k b oXoXoXoXoXoXoXoXoXoXoXoXoX",
"oXoXoXoXoXoXoXoXoXoXoXoXoXO j :.m.*.K K b g p N g 5 p a h j M :.:.c k oXoXoXoXoXoXoXoXoXoXoXoXoX",
"oXoXoXoXoXoXoXoXoXoXoXoXoXoXf M w.B.).{.E.w.,.O.O.O.-.r.r.:.0.$.j k oXoXoXoXoXoXoXoXoXoXoXoXoXoX",
"oXoXoXoXoXoXoXoXoXoXoXoXoXoX; j _ N.)..X XU.N N b 2.)..X|.E.r.` n j oXoXoXoXoXoXoXoXoXoXoXoXoXoX",
"oXoXoXoXoXoXoXoXoXoXoXoXoXoXoXoXj N c. X X XM.h ` (. X.X|.0.j j j oXoXoXoXoXoXoXoXoXoXoXoXoXoXoX",
"oXoXoXoXoXoXoXoXoXoXoXoXoXoXoXoXj b j R.XX X}.T.]..X.X X(.Y j j oXoXoXoXoXoXoXoXoXoXoXoXoXoXoXoX",
"oXoXoXoXoXoXoXoXoXoXoXoXoXoXoXoXoXk j q.|. X.X|.{.[.].m.$.c k oXoXoXoXoXoXoXoXoXoXoXoXoXoXoXoXoX",
"oXoXoXoXoXoXoXoXoXoXoXoXoXoXoXoXoXoXk c :.I.E.n.t.q.*.M j k oXoXoXoXoXoXoXoXoXoXoXoXoXoXoXoXoXoX",
"oXoXoXoXoXoXoXoXoXoXoXoXoXoXoXoXoXoXoXoXj J $.J H n j j oXoXoXoXoXoXoXoXoXoXoXoXoXoXoXoXoXoXoXoX",
"oXoXoXoXoXoXoXoXoXoXoXoXoXoXoXoXoXoXoXoXoXoX# < # 1 4 oXoXoXoXoXoXoXoXoXoXoXoXoXoXoXoXoXoXoXoXoX",
"oXoXoXoXoXoXoXoXoXoXoXoXoXoXoXoXoXoXoXoXoXoXoXoXoXoXoXoXoXoXoXoXoXoXoXoXoXoXoXoXoXoXoXoXoXoXoXoX",
"oXoXoXoXoXoXoXoXoXoXoXoXoXoXoXoXoXoXoXoXoXoXoXoXoXoXoXoXoXoXoXoXoXoXoXoXoXoXoXoXoXoXoXoXoXoXoXoX",
"oXoXoXoXoXoXoXoXoXoXoXoXoXoXoXoXoXoXoXoXoXoXoXoXoXoXoXoXoXoXoXoXoXoXoXoXoXoXoXoXoXoXoXoXoXoXoXoX",
"oXoXoXoXoXoXoXoXoXoXoXoXoXoXoXoXoXoXoXoXoXoXoXoXoXoXoXoXoXoXoXoXoXoXoXoXoXoXoXoXoXoXoXoXoXoXoXoX"
};
