/* XPM */
static char *result[] = {
/* columns rows colors chars-per-pixel */
"32 32 151 2 ",
"   c #231F2F",
".  c #231D30",
"X  c #32222C",
"o  c #272136",
"O  c #2B243D",
"+  c #332F3F",
"@  c #4E2537",
"#  c #402835",
"$  c #4A2B3E",
"%  c #522839",
"&  c #592D3E",
"*  c #332B46",
"=  c #362E49",
"-  c #392E49",
";  c #373343",
":  c #37314A",
">  c #3A314C",
",  c #3E3C4B",
"<  c #3C3550",
"1  c #3E3853",
"2  c #4E2C41",
"3  c #502D41",
"4  c #5A2F41",
"5  c #43344D",
"6  c #4A354B",
"7  c #403C4B",
"8  c #4F3D4E",
"9  c #5E3142",
"0  c #573348",
"q  c #5A364A",
"w  c #53384C",
"e  c #5D394E",
"r  c #453750",
"t  c #423B55",
"y  c #4C3C53",
"u  c #463F59",
"i  c #553D51",
"p  c #623A4C",
"a  c #6C3D4C",
"s  c #653D52",
"d  c #6B3F52",
"f  c #783F52",
"g  c #464454",
"h  c #4A435D",
"j  c #50425A",
"k  c #55485F",
"l  c #644456",
"z  c #6D4356",
"x  c #6A4A53",
"c  c #614458",
"v  c #6A495A",
"b  c #744757",
"n  c #7D4256",
"m  c #704659",
"M  c #734B5B",
"N  c #784B5D",
"B  c #77535D",
"V  c #7A525F",
"C  c #4C4660",
"Z  c #4F4862",
"A  c #544C65",
"S  c #534E69",
"D  c #584E68",
"F  c #57516B",
"G  c #5C566F",
"H  c #5E5771",
"J  c #5F5972",
"K  c #745464",
"L  c #7A5462",
"P  c #725768",
"I  c #7C5968",
"U  c #635D74",
"Y  c #645E78",
"T  c #6A6373",
"R  c #66617A",
"E  c #6A647B",
"W  c #70697D",
"Q  c #80485A",
"!  c #86525F",
"~  c #834F60",
"^  c #855564",
"/  c #8D5461",
"(  c #8A5867",
")  c #865C6A",
"_  c #925F6C",
"`  c #8D616F",
"'  c #95616E",
"]  c #99636F",
"[  c #9C6672",
"{  c #976976",
"}  c #9E6975",
"|  c #936D7A",
" . c #9F6C7A",
".. c #AA656B",
"X. c #A16671",
"o. c #A36B75",
"O. c #A46E79",
"+. c #AA6E78",
"@. c #B16E75",
"#. c #A7737D",
"$. c #AB737D",
"%. c #B67276",
"&. c #B1757E",
"*. c #BA767B",
"=. c #6F6981",
"-. c #706780",
";. c #736C83",
":. c #7D6F85",
">. c #766F88",
",. c #7C748C",
"<. c #81778E",
"1. c #847B92",
"2. c #A57781",
"3. c #AD7680",
"4. c #AF7882",
"5. c #B77A83",
"6. c #BA7C84",
"7. c #BD7F88",
"8. c #8A8096",
"9. c #8B8298",
"0. c #948A9F",
"q. c #B98087",
"w. c #B78389",
"e. c #BC8289",
"r. c #BF898F",
"t. c #958BA0",
"y. c #A599AD",
"u. c #C78486",
"i. c #C4848B",
"p. c #C5888B",
"a. c #C8888E",
"s. c #D08E8F",
"d. c #CC8E93",
"f. c #D18F93",
"g. c #CD9196",
"h. c #D49295",
"j. c #D59499",
"k. c #D9969A",
"l. c #DB9A9D",
"z. c #E09E9E",
"x. c #E19EA1",
"c. c #E5A2A3",
"v. c #EAA6A7",
"b. c #ECA7A9",
"n. c #EEAAAA",
"m. c #F2ADAD",
"M. c #F3B1AF",
"N. c #F6B2B1",
"B. c #FAB5B4",
"V. c #FCB8B6",
"C. c None",
/* pixels */
"C.C.C.C.C.C.C.C.C.C.C.C.C.C.C.C.C.C.C.C.C.C.C.C.C.C.C.C.C.C.C.C.",
"C.C.C.C.C.C.C.C.C.C.C.C.C.C.W E U U C.C.C.C.C.C.C.C.C.C.C.C.C.C.",
"C.C.C.C.C.C.C.C.C.C.C.T W >.=.,.,.Y E E T C.C.C.C.C.C.C.C.C.C.C.",
"C.C.C.C.C.C.C.C.C.C.R E R J ;.t.,.:.R J E U C.C.C.C.C.C.C.C.C.C.",
"C.C.C.C.C.C.C.C.g Y =.R F H >.,.Y H U U A J >.C.C.C.C.C.C.C.C.C.",
"C.C.C.C.C.C.C.C.t S R Y C J W G Z h > C t 1 A H C.C.C.C.C.C.C.C.",
"C.C.C.C.C.C.C.  * * S Y ;.,.,.1.<.;.J U ,.D < t k C.C.C.C.C.C.C.",
"C.C.C.C.C.C.C.. * * S R ;.=.-.-.>.1.1.1.y.9.-.h g C.C.C.C.C.C.C.",
"C.C.C.C.C.C.C.o = = u h h D h D Y E 1.>.R Y 1.9.J C.C.C.C.C.C.C.",
"C.C.C.C.C.C.C.O : > t u U A > j A Z u C C =.t.9.Y , C.C.C.C.C.C.",
"C.C.C.C.C.C.C.: : P #.I K 6.e.j.f.I - * C A S R H , C.C.C.C.C.C.",
"C.C.C.C.C.C.C.= t d.k.P w.m.m.V.V.n.#.M V y - u h , C.C.C.C.C.C.",
"C.C.C.C.C.C.C.O i z.| <.i.V.B.B.V.V.B.k.u.L * - > ; C.C.C.C.C.C.",
"C.C.C.C.C.C.C.O v m.| -.2.N.N.N.m.m.m.m.m.g.5 = : ; C.C.C.C.C.C.",
"C.C.C.C.C.C.X O L v.5.6 w o.&.i.5.} [ / ] s.L > t y C.C.C.C.C.C.",
"C.C.C.C.C.C.x 6 v i.X.a % @ e &.} 0 @ & z $.N = = l C.C.C.C.C.C.",
"C.C.C.C.C.C.B l ^ u.] z 9 & b l.u.p & p a ^ ^ - - v C.C.C.C.C.C.",
"C.C.C.C.C.C.C.` O.n.m.e.#.5.&.b.d.X.+.o.6.a.o.5 5 M C.C.C.C.C.C.",
"C.C.C.C.C.C.C.{ $.n.B.B.B.M.h.M.h.@.c.N.B.b.6.N l B C.C.C.C.C.C.",
"C.C.C.C.C.C.C.` $.c.B.B.B.x.c.B.m.%.z.V.B.b.i.X. .L C.C.C.C.C.C.",
"C.C.C.C.C.C.C.) #.d.N.B.B.f.x.B.b.u.c.B.B.k.6._ 3.x C.C.C.C.C.C.",
"C.C.C.C.C.C.C.B ) +.c.B.N.b.%.@...*.N.B.B.h.$.M ^ C.C.C.C.C.C.C.",
"C.C.C.C.C.C.C.C.# ^ a.j.a.d.] / ! ' j.c.n.a.N e C.C.C.C.C.C.C.C.",
"C.C.C.C.C.C.C.C.C.p +.[ m d 0 N z 0 s N O.O.p C.C.C.C.C.C.C.C.C.",
"C.C.C.C.C.C.C.C.C.$ ^ &.i.5./ n f Q _ ^ ( M e C.C.C.C.C.C.C.C.C.",
"C.C.C.C.C.C.C.C.C.C.e _ x.B.7.d Q k.N.d.( e C.C.C.C.C.C.C.C.C.C.",
"C.C.C.C.C.C.C.C.C.C.C.e { B.M.4.g.V.N.{ q e C.C.C.C.C.C.C.C.C.C.",
"C.C.C.C.C.C.C.C.C.C.C.q z d.m.b.c.l.O.z q C.C.C.C.C.C.C.C.C.C.C.",
"C.C.C.C.C.C.C.C.C.C.C.C.C.M [ [ ( M e C.C.C.C.C.C.C.C.C.C.C.C.C.",
"C.C.C.C.C.C.C.C.C.C.C.C.C.C.C.3 $ 2 C.C.C.C.C.C.C.C.C.C.C.C.C.C.",
"C.C.C.C.C.C.C.C.C.C.C.C.C.C.C.C.C.C.C.C.C.C.C.C.C.C.C.C.C.C.C.C.",
"C.C.C.C.C.C.C.C.C.C.C.C.C.C.C.C.C.C.C.C.C.C.C.C.C.C.C.C.C.C.C.C."
};
