/* XPM */
static char *result[] = {
/* columns rows colors chars-per-pixel */
"32 32 87 1 ",
"  c #1D2423",
". c #222624",
"X c #242826",
"o c #252C2A",
"O c #2A2E2B",
"+ c #2C312E",
"@ c #2D3433",
"# c #323533",
"$ c #353936",
"% c #393837",
"& c #363B39",
"* c #3A3D3B",
"= c #413D3D",
"- c #3D413E",
"; c #41423E",
": c #3E4341",
"> c #424442",
", c #4A4745",
"< c #454946",
"1 c #494B46",
"2 c #464C49",
"3 c #4B4D4A",
"4 c #4D514D",
"5 c #52524E",
"6 c #4F5351",
"7 c #535552",
"8 c #595654",
"9 c #565955",
"0 c #5A5A56",
"q c #575C58",
"w c #5C5D5A",
"e c #625D5B",
"r c #5D615D",
"t c #62635E",
"y c #68625F",
"u c #5E6461",
"i c #646562",
"p c #6A6662",
"a c #666963",
"s c #6B6A65",
"d c #656C68",
"f c #6C6D69",
"g c #716666",
"h c #716967",
"j c #706768",
"k c #736C6A",
"l c #796E6C",
"z c #6D716C",
"x c #74736E",
"c c #7A736E",
"v c #78786F",
"b c #6E7370",
"n c #747671",
"m c #7B7572",
"M c #757974",
"N c #7C7B75",
"B c #7E7E79",
"V c #837574",
"C c #827A76",
"Z c #887977",
"A c #837D79",
"S c #8B7D79",
"D c #7E807B",
"F c #838177",
"G c #84827C",
"H c #8A827D",
"J c #92827E",
"K c #858681",
"L c #8B8681",
"P c #8C8A84",
"I c #8D8E88",
"U c #928682",
"Y c #928B86",
"T c #9B8C87",
"R c #958E89",
"E c #9A8F8A",
"W c #8D908A",
"Q c #94928C",
"! c #9A938D",
"~ c #959690",
"^ c #9C9690",
"/ c #979893",
"( c #9C9A93",
") c #A2928C",
"_ c #A19E97",
"` c #A09F99",
"' c #A3A19B",
/* pixels */
"$99;O7=>zfvxNrO4w3O13#psxnxz+-w4",
"kTEAcUp9PLQQQGiJ!HcHC4GPR!QWiC)P",
"eSY^!Yt5HGWQDz7VU^!Rm>BHL/KM8kHE",
"3eq332% +#o&&&*0w233-.O#o$&&&4i7",
"GDM*0Zz58c>kCAGDH2,Zn03m59FBLDGd",
"_/QpZT!YYP7cRQ_(~bkT!EYRyrRQ^_QP",
"Mu7*emAHNk-9saMd9>5cmLNm3<ftxbq7",
"o:>+O3%-ttara2 *<$X>>#weatuqX@2&",
"fEECkLp9YLQQ~GrU!HkAC3HLR!QQrV)P",
"pST^EEi5PH~(Kb0ZY!!EN<FPQ(IDwlU!",
"3twq74*X&##--$*rt977>X#$@**&#7iq",
"NMx#7mi,3h*icmBMB>-cf5;s14mnAnNt",
"(/QiZ)ELUY7vYR(/^zk)!UHRytRR^(~I",
"Kfu>pVLPAm-rxxGMi28VGRHA41xzDDir",
"o&&Oo3%>wrwqr> $-+X;;%0rrrw6.@:@",
"iTRnpSi7PHRQQF9H!CyNm1GGPQWYqm!G",
"gJE^!!t5RP(`INeSY!!!N1FRQ'WGicU!",
"<piir0;+;*:2:*$tpitw3O*-*<--$5pi",
"xndO1p0=;e#0sfnxn*&pt1$e=<ffnnn9",
"(QQiZ)RHHY9NYR/~/kh)!HHEpaRR!(!P",
"WNd4hFYRLC>tNNPKz7eZL!LH54BnPIzd",
"o$@XO1=<wq779:X@$OX>>*909793o+$+",
"wUPkeCt5LGPPIB3SRm0xl<GGPIPP7hYB",
"kJ!!R!p7YQ('QGiSY!!EA1FR!'~PpVY~",
"3pfxdi<#5>46<-*yfxki5+3127<>$9kf",
"dkio>w4#%5O5rifdf$#e9=O5#:trsdf5",
"!QQwZ)YAHY9DRY/Q/fj)!HCEppQRQQQL",
"(KM7lHE!UA<tFF/INweHY!YL75FFQ~NM",
"@$@.#3>3qq467:O#@XO11<9w7292@@@@",
"7SFi5c85HAPLIn<VLz5sh-ANLIKK2iUn",
"jURRURp5PP/(RDiSYRUYC1FRQ_QIpVYE",
"9mAPHA9;swdzq3<cALLAi-rtidr6:tAH"
};
