/* XPM */
static char *result[] = {
/* columns rows colors chars-per-pixel */
"48 48 137 2 ",
"   c #25094F",
".  c #250950",
"X  c #260951",
"o  c #260952",
"O  c #260953",
"+  c #290958",
"@  c #290A59",
"#  c #311D57",
"$  c #321D59",
"%  c #331D59",
"&  c #321E59",
"*  c #331D5B",
"=  c #321E5A",
"-  c #331E5B",
";  c #331E5C",
":  c #331E5D",
">  c #341F5F",
",  c #310B69",
"<  c #341F60",
"1  c #351F60",
"2  c #351F61",
"3  c #390D7B",
"4  c #3A226E",
"5  c #3B2271",
"6  c #3B2272",
"7  c #3C2375",
"8  c #420B93",
"9  c #430B93",
"0  c #430E90",
"q  c #430C93",
"w  c #430E92",
"e  c #440F91",
"r  c #440E92",
"t  c #440F92",
"y  c #440F93",
"u  c #451094",
"i  c #461096",
"p  c #461097",
"a  c #412680",
"s  c #412681",
"d  c #412682",
"f  c #422682",
"g  c #422683",
"h  c #422684",
"j  c #432684",
"k  c #432685",
"l  c #432686",
"z  c #432786",
"x  c #442788",
"c  c #452789",
"v  c #44278A",
"b  c #46288B",
"n  c #46288C",
"m  c #47288E",
"M  c #46288F",
"N  c #47288F",
"B  c #472890",
"V  c #4A2997",
"C  c #4A2A97",
"Z  c #4D2BA0",
"A  c #4D2CA0",
"S  c #4F2CA4",
"D  c #4F2DA4",
"F  c #5725BF",
"G  c #5825BF",
"H  c #5730B7",
"J  c #5630B8",
"K  c #5831BB",
"L  c #7668A6",
"P  c #7E76A8",
"I  c #5C33C7",
"U  c #5D33C7",
"Y  c #5E34CB",
"T  c #5E35CC",
"R  c #5F2DD0",
"E  c #5F2ED2",
"W  c #602ED2",
"Q  c #602FD3",
"!  c #602FD4",
"~  c #6035D2",
"^  c #6136D2",
"/  c #6130D6",
"(  c #6538DC",
")  c #6538DF",
"_  c #6638DF",
"`  c #6739E3",
"'  c #6838E6",
"]  c #693AE7",
"[  c #693AE8",
"{  c #6939ED",
"}  c #693AED",
"|  c #6A3AED",
" . c #6A3BED",
".. c #6B3BED",
"X. c #6B3BEE",
"o. c #6C3BEE",
"O. c #6C3BEF",
"+. c #6C3CED",
"@. c #6D3CED",
"#. c #6D3DED",
"$. c #6E3DED",
"%. c #6F3EED",
"&. c #6C3CEF",
"*. c #703FED",
"=. c #713FED",
"-. c #6C3CF0",
";. c #6C3DF0",
":. c #6C3CF1",
">. c #6D3CF1",
",. c #6D3CF2",
"<. c #6D3EF3",
"1. c #6E3CF5",
"2. c #6E3DF5",
"3. c #6E3DF6",
"4. c #6F3DF6",
"5. c #6F3DF7",
"6. c #7140ED",
"7. c #7341ED",
"8. c #7442ED",
"9. c #7744ED",
"0. c #7844ED",
"q. c #7945ED",
"w. c #7A46ED",
"e. c #7A47ED",
"r. c #7B47ED",
"t. c #7C47ED",
"y. c #7C48ED",
"u. c #7D48ED",
"i. c #7F4AED",
"p. c #804AED",
"a. c #804BED",
"s. c #824CED",
"d. c #834DED",
"f. c #844DED",
"g. c #844EED",
"h. c #8786AB",
"j. c None",
/* pixels */
"j.j.O o o o o o o o o o o o o o o o o o o o o o o o o o o o o o o o o o o o o o o o o o o O j.j.",
"j.j.o o o o o o o o o o o o o o o o o o o o o o o o o o o o o o o o o o o o o o o o o o o o j.j.",
"O o o o o                                                                             o o o o O ",
"o o o . + 3 3 3 3 3 3 3 3 3 3 3 3 3 3 3 3 3 3 3 3 3 3 3 3 3 3 3 3 3 3 3 3 3 3 3 3 3 3 + . o o o ",
"o o X @ , i p p p p p p p p p p p p p p p p p p p p p p p p p p p p p p p p p p p p i , @ X o o ",
"o o   3 i u q 8 u t e e e e e e e e e e e e e e e e e e e e e e e e e e e e t u 8 q u i 3   o o ",
"o o   3 p q L P y F E R R R R R R R R R R R R R R R R R R R R R R R R R R E F y P L q p 3   o o ",
"o o   3 p 9 P h.w / <.;.;.;.;.;.;.;.;.;.;.;.;.;.;.;.;.;.;.;.;.;.;.;.;.;.;.<./ w h.P 9 p 3   o o ",
"o o   3 p u r w 0 Q -....................... . . . . . . . . . . . . .....-.Q 0 w r u p 3   o o ",
"o o   3 p t G / ! ' X...................+.w.y.y.y.y.t.t.t.t.t.t.t.t.t.0.| X.' ! / G t p 3   o o ",
"o o   3 p e W <.-.X.....................+.w.u.u.y.p.d.d.d.d.d.d.d.d.f.i.6.@.X.-.<.W e p 3   o o ",
"o o   3 p e R ;.................................} 9.d.s.s.s.s.s.s.s.s.s.s.6.| ..;.R e p 3   o o ",
"o o   3 p e R ;...................................$.=.%.r.f.d.s.s.s.s.s.s.i.0. .;.R e p 3   o o ",
"o o   3 p e R ;..................................... .| 8.r.w.p.s.s.s.s.s.d.t. .;.R e p 3   o o ",
"o o   3 p e R ;...........................................| { w.d.s.s.s.s.d.t. .;.R e p 3   o o ",
"o o   3 p e R ;...............................................#.7.d.s.s.s.d.t. .;.R e p 3   o o ",
"o o   3 p e R ;............................................... .#.q.i.s.s.d.t. .;.R e p 3   o o ",
"o o   3 p e R ;...................................................{ r.d.s.d.t. .;.R e p 3   o o ",
"o o   3 p e R ;...................................................| y.g.s.d.t. .;.R e p 3   o o ",
"o o   3 p e R ;...X.X.............................................| 8.r.s.d.t. .;.R e p 3   o o ",
"o o   3 p e R ;...[ ] ..............................................} %.s.d.t. .;.R e p 3   o o ",
"o o   3 p e R ;.-.N m -............................................. .*.d.d.t. .;.R e p 3   o o ",
"o o   3 p e R ;.-.s a -............................................. .$.9.a.t. .;.R e p 3   o o ",
"o o   3 p e R ;.-.g f -.................................................| u.y. .;.R e p 3   o o ",
"o o   3 p e R ;.-.g j 3.o.................................................u.y. .;.R e p 3   o o ",
"o o   3 p e R ;.-.z 4 D ( &...............................................u.y. .;.R e p 3   o o ",
"o o   3 p e R ;.-.x = = T :...............................................r.e. .;.R e p 3   o o ",
"o o   3 p e R ;.-.x ; < ^ 2...............................................+.+...;.R e p 3   o o ",
"o o   3 p e R ;.-.x ; 2 n J &...................................................;.R e p 3   o o ",
"o o   3 p e R ;.-.x ; 2 # v >...................................................;.R e p 3   o o ",
"o o   3 p e R ;.-.x ; 2 ; B 4.X.................................................;.R e p 3   o o ",
"o o   3 p e R ;.-.x ; 2 > 6 C _ :...............................................;.R e p 3   o o ",
"o o   3 p e R ;.-.x ; 2 2 > ; K ) X.............................................;.R e p 3   o o ",
"o o   3 p e R ;.-.x ; 2 2 2 2 ; V 5.,.-.........................................;.R e p 3   o o ",
"o o   3 p e R ;.-.k $ 2 2 2 2 > 5 N c H 1.>.O...................................;.R e p 3   o o ",
"o o   3 p e R ;.&.A 7 1 2 2 2 2 > ; # b ~ Y ( O.................................;.R e p 3   o o ",
"o o   3 p e R ;...,.I * 1 2 2 2 2 2 2 1 < & S 3.-.-.-...........................;.R e p 3   o o ",
"o o   3 p e W <.-.&.` U 7 % ; ; ; ; : ; ; - 4 h f s M [ X...................X.-.<.W e p 3   o o ",
"o o   3 p t G / ! ' &.,.Z k x x x x x x x x l g g d N [ X.................X.' ! / G t p 3   o o ",
"o o   3 p u r w 0 Q -...O.-.-.-.-.-.-.-.-.-.-.-.-.-.-.....................-.Q 0 w r u p 3   o o ",
"o o   3 p 9 P h.w / <.;.;.;.;.;.;.;.;.;.;.;.;.;.;.;.;.;.;.;.;.;.;.;.;.;.;.<./ w h.P 9 p 3   o o ",
"o o   3 p q L P y F E R R R R R R R R R R R R R R R R R R R R R R R R R R E F y P L q p 3   o o ",
"o o   3 i u q 8 u t e e e e e e e e e e e e e e e e e e e e e e e e e e e e t u 8 q u i 3   o o ",
"o o X @ , i p p p p p p p p p p p p p p p p p p p p p p p p p p p p p p p p p p p p i , @ X o o ",
"o o o . + 3 3 3 3 3 3 3 3 3 3 3 3 3 3 3 3 3 3 3 3 3 3 3 3 3 3 3 3 3 3 3 3 3 3 3 3 3 3 + . o o o ",
"O o o o o                                                                             o o o o O ",
"j.j.o o o o o o o o o o o o o o o o o o o o o o o o o o o o o o o o o o o o o o o o o o o o j.j.",
"j.j.O o o o o o o o o o o o o o o o o o o o o o o o o o o o o o o o o o o o o o o o o o o O j.j."
};
