/* XPM */
static char *result[] = {
/* columns rows colors chars-per-pixel */
"64 64 10 1 ",
"  c gray29",
". c gray37",
"X c #646464",
"o c #676767",
"O c DimGray",
"+ c #6F6F6F",
"@ c #717171",
"# c #777777",
"$ c gray47",
"% c gray48",
/* pixels */
"                                                                ",
" %OOOOOOOOOOO %OOOOOOOOOOO %OOOOOOOOOO @#OOOOOOOOOO %OOOOOOOOOOO",
" %OOOOOOOOOOO %OOOOOOOOOOO %OOOOOOOOOO @#OOOOOOOOOO %OOOOOOOOOOO",
" %OOOOOOOOOOO %OOOOOOOOOOO %OOOOOOOOOO @#OOOOOOOOOO %OOOOOOOOOOO",
" %OOOOOOOOOOO %OOOOOOOOOOO %OOOOOOOOOO @#OOOOOOOOOO %OOOOOOOOOOO",
" %%%%%%%%%%%% %%%%%%%%%%%% %%%%%%%%%%% @%%%%%%%%%%% %%%%%%%%%%%%",
"                                                                ",
"                                                                ",
"OOOOOO @#OOOOOOOOOO %OOOOOOOOOOO %OOOOOOOOOOO %OOOOOOOOOOO %OOOO",
"OOOOOO @#OOOOOOOOOO %OOOOOOOOOOO %OOOOOOOOOOO %OOOOOOOOOOO %OOOO",
"OOOOOO @#OOOOOOOOOO %OOOOOOOOOOO %OOOOOOOOOOO %OOOOOOOOOOO %OOOO",
"++++++ @$++++++++++ %+++++++++++ %+++++++++++ %+++++++++++ %++++",
"%%%%%% @%%%%%%%%%%% %%%%%%%%%%%% %%%%%%%%%%%% %%%%%%%%%%%% %%%%%",
"                                                                ",
" %OOOOOOOOOOO %OOOOOOOOOOO %OOOOOOOOOO @#OOOOOOOOOO %OOOOOOOOOOO",
" %OOOOOOOOOOO %OOOOOOOOOOO %OOOOOOOOOO @#OOOOOOOOOO %OOOOOOOOOOO",
" %OOOOOOOOOOO %OOOOOOOOOOO %OOOOOOOOOO @#OOOOOOOOOO %OOOOOOOOOOO",
" %OOOOOOOOOOO %OOOOOOOOOOO %OOOOOOOOOO @#OOOOOOOOOO %OOOOOOOOOOO",
" %%%%%%%%%%%% %%%%%%%%%%%% %%%%%%%%%%% @%%%%%%%%%%% %%%%%%%%%%%%",
"                                                                ",
"...... Xo.......... O........... O........... O........... O....",
"OOOOOO @#OOOOOOOOOO %OOOOOOOOOOO %OOOOOOOOOOO %OOOOOOOOOOO %OOOO",
"OOOOOO @#OOOOOOOOOO %OOOOOOOOOOO %OOOOOOOOOOO %OOOOOOOOOOO %OOOO",
"OOOOOO @#OOOOOOOOOO %OOOOOOOOOOO %OOOOOOOOOOO %OOOOOOOOOOO %OOOO",
"%%%%%% @%%%%%%%%%%% %%%%%%%%%%%% %%%%%%%%%%%% %%%%%%%%%%%% %%%%%",
"%%%%%% @%%%%%%%%%%% %%%%%%%%%%%% %%%%%%%%%%%% %%%%%%%%%%%% %%%%%",
"                                                                ",
" %OOOOOOOOOOO %OOOOOOOOOOO %OOOOOOOOOO @#OOOOOOOOOO %OOOOOOOOOOO",
" %OOOOOOOOOOO %OOOOOOOOOOO %OOOOOOOOOO @#OOOOOOOOOO %OOOOOOOOOOO",
" %OOOOOOOOOOO %OOOOOOOOOOO %OOOOOOOOOO @#OOOOOOOOOO %OOOOOOOOOOO",
" %OOOOOOOOOOO %OOOOOOOOOOO %OOOOOOOOOO @#OOOOOOOOOO %OOOOOOOOOOO",
" %%%%%%%%%%%% %%%%%%%%%%%% %%%%%%%%%%% @%%%%%%%%%%% %%%%%%%%%%%%",
"                                                                ",
"OOOOOO @#OOOOOOOOOO %OOOOOOOOOOO %OOOOOOOOOOO %OOOOOOOOOOO %OOOO",
"OOOOOO @#OOOOOOOOOO %OOOOOOOOOOO %OOOOOOOOOOO %OOOOOOOOOOO %OOOO",
"OOOOOO @#OOOOOOOOOO %OOOOOOOOOOO %OOOOOOOOOOO %OOOOOOOOOOO %OOOO",
"OOOOOO @#OOOOOOOOOO %OOOOOOOOOOO %OOOOOOOOOOO %OOOOOOOOOOO %OOOO",
"%%%%%% @%%%%%%%%%%% %%%%%%%%%%%% %%%%%%%%%%%% %%%%%%%%%%%% %%%%%",
"                                                                ",
"                                                                ",
" %OOOOOOOOOOO %OOOOOOOOOOO %OOOOOOOOOO @#OOOOOOOOOO %OOOOOOOOOOO",
" %OOOOOOOOOOO %OOOOOOOOOOO %OOOOOOOOOO @#OOOOOOOOOO %OOOOOOOOOOO",
" %OOOOOOOOOOO %OOOOOOOOOOO %OOOOOOOOOO @#OOOOOOOOOO %OOOOOOOOOOO",
" %+++++++++++ %+++++++++++ %++++++++++ @$++++++++++ %+++++++++++",
" %%%%%%%%%%%% %%%%%%%%%%%% %%%%%%%%%%% @%%%%%%%%%%% %%%%%%%%%%%%",
"                                                                ",
"OOOOOO @#OOOOOOOOOO %OOOOOOOOOOO %OOOOOOOOOOO %OOOOOOOOOOO %OOOO",
"OOOOOO @#OOOOOOOOOO %OOOOOOOOOOO %OOOOOOOOOOO %OOOOOOOOOOO %OOOO",
"OOOOOO @#OOOOOOOOOO %OOOOOOOOOOO %OOOOOOOOOOO %OOOOOOOOOOO %OOOO",
"OOOOOO @#OOOOOOOOOO %OOOOOOOOOOO %OOOOOOOOOOO %OOOOOOOOOOO %OOOO",
"%%%%%% @%%%%%%%%%%% %%%%%%%%%%%% %%%%%%%%%%%% %%%%%%%%%%%% %%%%%",
"                                                                ",
" O........... O........... O.......... Xo.......... O...........",
" %OOOOOOOOOOO %OOOOOOOOOOO %OOOOOOOOOO @#OOOOOOOOOO %OOOOOOOOOOO",
" %OOOOOOOOOOO %OOOOOOOOOOO %OOOOOOOOOO @#OOOOOOOOOO %OOOOOOOOOOO",
" %OOOOOOOOOOO %OOOOOOOOOOO %OOOOOOOOOO @#OOOOOOOOOO %OOOOOOOOOOO",
" %%%%%%%%%%%% %%%%%%%%%%%% %%%%%%%%%%% @%%%%%%%%%%% %%%%%%%%%%%%",
" %%%%%%%%%%%% %%%%%%%%%%%% %%%%%%%%%%% @%%%%%%%%%%% %%%%%%%%%%%%",
"                                                                ",
"OOOOOO @#OOOOOOOOOO %OOOOOOOOOOO %OOOOOOOOOOO %OOOOOOOOOOO %OOOO",
"OOOOOO @#OOOOOOOOOO %OOOOOOOOOOO %OOOOOOOOOOO %OOOOOOOOOOO %OOOO",
"OOOOOO @#OOOOOOOOOO %OOOOOOOOOOO %OOOOOOOOOOO %OOOOOOOOOOO %OOOO",
"OOOOOO @#OOOOOOOOOO %OOOOOOOOOOO %OOOOOOOOOOO %OOOOOOOOOOO %OOOO",
"%%%%%% @%%%%%%%%%%% %%%%%%%%%%%% %%%%%%%%%%%% %%%%%%%%%%%% %%%%%"
};
