/* XPM */
static char *result[] = {
/* columns rows colors chars-per-pixel */
"64 64 238 2 ",
"   c #531707",
".  c #561505",
"X  c #5C1405",
"o  c #641405",
"O  c #6A1405",
"+  c #651A05",
"@  c #6D1A05",
"#  c #641409",
"$  c #6C1609",
"%  c #651C0A",
"&  c #6D1C0B",
"*  c #711A06",
"=  c #71170C",
"-  c #731D0D",
";  c #7A1D0D",
":  c #671B11",
">  c #6D1D11",
",  c #741E12",
"<  c #7B1D12",
"1  c #49280D",
"2  c #58250D",
"3  c #4E2313",
"4  c #4C2916",
"5  c #532515",
"6  c #5B2613",
"7  c #552B14",
"8  c #5B2B15",
"9  c #54231A",
"0  c #552C1B",
"q  c #5C2C1B",
"w  c #4E3215",
"e  c #4D341A",
"r  c #523215",
"t  c #5C3115",
"y  c #54331B",
"u  c #5D331B",
"i  c #563A1C",
"p  c #63230E",
"a  c #69260B",
"s  c #6D220D",
"d  c #73220D",
"f  c #7A230E",
"g  c #74280C",
"h  c #662512",
"j  c #6D2413",
"k  c #652B13",
"l  c #6D2B15",
"z  c #6F2618",
"x  c #632D1C",
"c  c #6C2E19",
"v  c #742414",
"b  c #7B2414",
"n  c #752915",
"m  c #7C2A15",
"M  c #75251A",
"N  c #7B251A",
"B  c #762C1A",
"V  c #7C2C1B",
"C  c #663418",
"Z  c #63331C",
"A  c #6C341D",
"S  c #63391E",
"D  c #7C3116",
"F  c #76331C",
"G  c #7C321D",
"H  c #78381B",
"J  c #572E21",
"K  c #5C3421",
"L  c #523A21",
"P  c #5C3B22",
"I  c #602F21",
"U  c #7D2D21",
"Y  c #643523",
"T  c #6A3524",
"R  c #643A24",
"E  c #6B3B25",
"W  c #663728",
"Q  c #653A29",
"!  c #6B3D2A",
"~  c #743422",
"^  c #7D3322",
"/  c #743B24",
"(  c #7B3B24",
")  c #79382A",
"_  c #7D3E29",
"`  c #723F31",
"'  c #4F4525",
"]  c #5D4223",
"[  c #6C4326",
"{  c #6D422B",
"}  c #6B452B",
"|  c #7A4327",
" . c #73462E",
".. c #674431",
"X. c #774836",
"o. c #7A5238",
"O. c #7A5742",
"+. c #811B0B",
"@. c #80260F",
"#. c #822414",
"$. c #8B2415",
"%. c #822A15",
"&. c #8A2A15",
"*. c #83251A",
"=. c #8B261C",
"-. c #832C1C",
";. c #8A2C1C",
":. c #93251A",
">. c #912B1D",
",. c #83321D",
"<. c #84371D",
"1. c #8B321E",
"2. c #94331E",
"3. c #842D21",
"4. c #8B2D22",
"5. c #892A25",
"6. c #932E24",
"7. c #972D24",
"8. c #843323",
"9. c #8B3423",
"0. c #853A25",
"q. c #8B3A25",
"w. c #853429",
"e. c #8C352A",
"r. c #853B2A",
"t. c #8B3B2A",
"y. c #933524",
"u. c #9B3425",
"i. c #933A26",
"p. c #993E27",
"a. c #93352B",
"s. c #9B3429",
"d. c #933B2B",
"f. c #9B3C2C",
"g. c #8D3C32",
"h. c #963732",
"j. c #943D31",
"k. c #9B3D32",
"l. c #A23727",
"z. c #A23C31",
"x. c #834426",
"c. c #84432C",
"v. c #8D432D",
"b. c #844B2E",
"n. c #8B492D",
"m. c #93432D",
"M. c #9D432E",
"N. c #95492F",
"B. c #854531",
"V. c #8C4432",
"C. c #854B33",
"Z. c #8C4C33",
"A. c #814F3A",
"S. c #8D4B39",
"D. c #944433",
"F. c #9B4333",
"G. c #934B33",
"H. c #9B4B35",
"J. c #984639",
"K. c #944D3A",
"L. c #9B4C3A",
"P. c #8C513A",
"I. c #8C563A",
"U. c #935135",
"Y. c #9C5136",
"T. c #94523B",
"R. c #9C533C",
"E. c #95593D",
"W. c #9A5A3E",
"Q. c #A24334",
"!. c #AB4B35",
"~. c #A64839",
"^. c #A2533B",
"/. c #A6583E",
"(. c #9A4F40",
"). c #855743",
"_. c #8D5C42",
"`. c #935542",
"'. c #9C5443",
"]. c #955943",
"[. c #9C5C45",
"{. c #9E5B48",
"}. c #A35642",
"|. c #A55747",
" X c #A35B44",
".X c #AC5943",
"XX c #A25D4A",
"oX c #AA5E4B",
"OX c #B15D46",
"+X c #8B684A",
"@X c #936646",
"#X c #9E6045",
"$X c #92634B",
"%X c #9E624A",
"&X c #9C6D4B",
"*X c #946E52",
"=X c #9B6D53",
"-X c #937050",
";X c #9B7558",
":X c #A36245",
">X c #A3644B",
",X c #A7674A",
"<X c #AC634B",
"1X c #AB6A4C",
"2X c #B5624B",
"3X c #A46D53",
"4X c #A96853",
"5X c #AC6D55",
"6X c #B46956",
"7X c #A47256",
"8X c #A3745A",
"9X c #AA765C",
"0X c #B27357",
"qX c #B2735C",
"wX c #A67B63",
"eX c #B57D62",
"rX c #B97C67",
"tX c #C27A6A",
"yX c #9C8668",
"uX c #A98568",
"iX c #AD8C6B",
"pX c #B98568",
"aX c #BA8B6D",
"sX c #A5936F",
"dX c #BA916F",
"fX c #AC8C73",
"gX c #B68B71",
"hX c #BB8C72",
"jX c #A99575",
"kX c #B49573",
"lX c #BD9274",
"zX c #B69778",
"xX c #C3896E",
"cX c #C98B7B",
"vX c #C49378",
"bX c #C2957B",
"nX c #CB9080",
"mX c #D19686",
/* pixels */
"8XG.G.I.W.E.#Xn.U.%XK.T.B.V.{.XX'.>X'.].qXiX[.c.c.F P.P.Z.[./ [.T.( E.P.Z.S.c.T.T.>XiX=X^.E.:X#XH ,XU.U.G.n.x.W. Xn.b.n.U.n./.0X",
"[ G D <.m j g q.G v.^ X G ^ n + n 8.F n v gXr.- *.d.b - -.< N -.d.t.b V n 8.w.n l -.6X% 7.b y.m.N.&.1.1.1.9.#.9.;.;.n -.f %.f ^.",
"u w.t.g -.,.V V t.V b - t.$ m - b v v + t.bXt.t.b 0.J.d V 8.V V b $ n V ;.#.-.j G & qXk #.^ 9.% 0.8.V V 8.N v -.m q.G ,.b <.m Y.",
"2 , v F B V V w.v d.8.- b O V N -.0.t.V 3.hX-.0.V F s ^ V 0.V 8.v V j 8.3.t.J.t.v m 5XA a.c.0.B V 8.- n N 0.m 0.H G <.0.v G v D.",
"E t.b B 8.8.j % V b 8.t., q.i.-.e.w.-.8.d.bXN y.- a.; 4.*.$.*.9.Q.; #.a.m -.D.v 9.>.6Xa a.b 3.*.-.b 4.4.4.< =.#.b w.9.; ;.1.; ^.",
"i p ~ C l 2 | E l c _ c B.c V.j c k j.$ J.gXv B c.^ ~ ( F M V.h j r.V ^ j ( p ( 2 w.pXA l n G ( G G c.j 0.r.h B a r.B l c.% }.L.",
"_ U w.M U ~ V M v U 8.g.M 8.w.w.N U 8.B.v zXr.N e.3.5.3.N 3.w.N e.w.$ e.N w.e.3.M 8.tXk r.t.J.w.j.U N g.3.v 3.v 8.e.N b e.b -.J.",
"kXE 0 u Z 8 Z R P q 8 8 Z { !  .E Z 2 Z `.sXI.! 6 Z Z u R u Z Z x Z Y Z x x Z u u o.gX*XZ  .Q W 5 Q !  .0 t { u Z ! t Z E E Y gX",
"C.|.C.Z.oXR.D.7XkX>XB.| >XZ.| Z.T.L.B.`.g.o.g.| T.U.P.Z.>XvX%XS.G.C.Z.Z.T.T.S.#Xc.T.n.G.>Xx.>XH C.>XuX].%XT.T.c.Z.].S. Xn.n.I.,X",
"F F 0., v q.m m.$XF r.v j 8.3.U ^ l 0.N 0.B & 8.V V V j 0.hXv 8.v V t.V.V t.0.- V q.q.%.1.9.m B n V pXh M N t.-.G V V + V D.8.% ",
"V V 0.8.* V m Y.=XU U B : V V V U > -.V v > r.V j V j % U gX8.V 3.V N $ t.V -.t.m -.d.<.* -.t.G V V aXk V 8.v 0.G V v B 8.V t.v ",
"t.v ,.8.8.8.D D.=X^ ^ r.V ^ B w.^ 8.N L.V M # X w.V U ( 3.vXw.v = d.-.f.d.r.v n s f b ,.d i.t.^ B f uXc M 8.w.8.3.V v v n v q.X ",
"-.a.V v V m <.0.8XM z j M F B j -.0.J.M U % ^ % w.~ n B M wXJ.8.b -.8.9.8.N G V t.,.<.9.m.a.V 8.v b vXk M V v 8.& n 8.8.m n s 0.",
"-.V t.m r.G ,.G ;XB r.U K.^ ~ ^ M N V ) j V.z v V 0.r.g.U hXV.^ & v n & n 0.0.q.m ,.F.d @ q.m.V + -.wXh V N B V V q.0.t.w.s 8.8.",
", 8.V w.v g.V g.8X, U U j.) U U V $ M j ~ V U U z U : N r.pXB M 0.D.B v - w.9.=.d.V t.8.V ; 3.r.U 3.mX( # N U 5.s.M 8.3.V 0.$ ,.",
"y 1 R K 1 7 Z *XjX).y 0 y J J e e R S u u [ 1 K 4 Q K 7 } zXo.Z 5 0 K 0 8 y K x R 4 ! 0 0 1 8 J K ! uX).1 4 P 3  .P u y y R t 4 ",
"`.K.S.G.K.S.4Xg.T.x.x.n.n.x.:X&X&XH K.D.K.}.R.Z.G U.U.G.T.[.K.L.G.T.Z.'.n.aX@X/.N.W.Y.R.^.<Xv.M.H.2X X^.Y.:X1XY.n.Y.qX8X`.S.'.) ",
"b 9.f 9.-.N & b a.b V -.N ,.9.T.V.V 1.b 9.9.9.; b 4.#.b $ ;.-.-.< b -.m.; 5XH i.>.2.&.#.p.#.@.; .X&.f M.2.u.@.%.* $.^.C.,.< b - ",
"V 0.V 0.V v.B j 8.^ F 8.0.F ; ( Z r.^ 8.V.G 0.V r.t.t.B w.G 0.B d -.,.i.,.0X( F.2.m y.s.;.%.9.f %.q.%.i.f %.v v.1.y.H.I.^ 3.n 0.",
"a.t.b V V w.0.n 8.B > V b D.*._ A V 8.M w.t.V U r.> V M 8.n t.0.p.q.n 8.d 5X( ,.M.~.1.u.;.%.#.-.m - &.;.-.m d.J.y.#.2X@X, 3.o v ",
"n m n 8.G v B n 8.F V n -.8.;.( E w.n V d n d.U V 8.3.V % v V & b -.s 8.,.>XF -.2.m.M.%.-.%.1.M.9.%.-.1.i.; 1.8.= @.2X).U N ^ -.",
"w.# -.b & t.t.t.G G 8.r.t.V -.| c 8.w.O -.8.- e.b j.N 8.G w.o v t.> 0.B w.5Xp 1.&.%.q.d %.Q.@ d i.i.-.9.%.y.;.J.$.#.OXo.M V v.v ",
"8.V V G v 0.-.w.B B V ^ V ^ v './ > -.d.e.t.-.e.w.9.N V V v ^ U V -.U % ,.eX. -.M.-.,.<.-.,.d t.b y.<.-.Q.9.b G ;.-..XA.M N V ^ ",
"u 8 r u y w i P r 1 u S 8 7 8 uXuXY r P i w 1 q ' q L e i Y L 1 r y w y ] jX+XP P Z i 8 E 7 Z c k t y i ] i 1 u E Z wXfX{ Y u q ",
"E.I.uX$XJ.}.L.D.L.Y.W.XXR.G.T.n.T. XH.R.v.^.}.<XuX2XK.oXL.L.D.}.D.R.N.^.M.H..XL.r.V.%XW.pXaXX.K.`.E.oX'.U [.'.C.B.T.B.C.Z.>X].S.",
"w.$ xXo f.p.&.M.M.u.z.!.&.f.$.u.>.l.9.m 1.9.q.0.-Xi.B d - 0.d b m q.n m m.@.f d g >.y.$.d c.M , N ;.9.V v B w.*.< b *.y.F.O &.a.",
"n H vXc.*.f.9.9.O a.Q.,.a l 0.0.G.> 2.i.F.=.4.7.&XN v ;., U 9.4.%.4.$ a.y.- ,.-.5.B ,.< #Xo.% v ^ j 9.N b t.V G _ F V w.V ( c l ",
"$ -.aXm ;.4.;.-.& -.8.s v v z.i.;.#.= *.-.4.9.Q.8X, z j.e.e.3.; N 9.J.3.9.0.-.- J.6.< #.m.X.) 5.N v 9.w.9.8.V 9.n j.e.3.w.v U t.",
"F t.gXF n d n <.v.;.f.f.&.;.-.8.V w.,.,.m m 8.N.*XD.l 8.t.D.# J.8.t.^ -.m ,.,.q.0.;.n q.( ).~ c V p v G 8.n n ( l B % D.F V n v ",
"B V bX) b 1.;.b %.N.v.D D <.%.* 1.%.1.1.f m f 9.&X9.^ 3.-.-.-.i.-.i.9.< %.m 9.t.9.< G N.H S.M N J.<.a.,.O 9.v q.g n s v -.t.V d ",
"D.N lXw.~ ,.0.V ,.s.6.z.6.f.< d.b b v V ,.V * -.3X3.z < 3.0., N 3., 5.8.w.e.e., e.N F *.D.`.^ U r.U 8.n v v # 0.> w.U N & v 8.t.",
"x / yXA.6 Y x A 6 8 8 Y R Y 6 x c 6 6 Z Z Z 6 ].jXT Y W W x q 9 q 8 q I W 6 J 8 J q u x wXiXq 9 W 7 q Y W 9 q 6 W 6 T 6 x Y ` Y ",
"U.E.U.[.V.W.T.<XD._ iX5X`.[.:XU.U.c.W.[.].S.[.W.b.b.E.T.b.U.W.dXeXK.x.:X2X/.D.H.V.W.:XT. XT.Z.E.#X#X1X5XOXzX Xn.W.:XW.N.Y.<X^.XX",
"a.&.#.; y.%.%.;.f.*.5XX G -.,.* -.-.;.b 4.#.-.M.1.<.Q.f.q.- ;.W.~ 1.@.@.u.l.s.&.$.&.=.$.&.;.;.f +.%.+.2.7.7X7.p.&.; #.>.1.&.#.f.",
"p.#.-.y.1.- f %.b w.E.. F j 0.<.d m N w.b V -.9.m s M.* D q.-.#X6 -.1.f #.,.b s d M.9.y.;.y.1.y.&.;.p.m z.@X4.-.1.v O q.<.0.0.q.",
"- b 9.%.i.1.m 8.o b 3X. V 8.q.& s m.n 8.V m.V d G <.0.1.G 0.@ ,XC =.1.m y.:.s.&.f.;.* - i.;.-.y.1.f 1.,.z.*XF.V V m m.= ; >.$.=.",
"&.2.2.@.;.5.6.=.b z. X+ -.;.;.; #.,.3.8.*.a.; ;.f -.;.@.-.* %. X: :.b - >.f.#.b -.1.i.;.*.M.$.=.f.6.&.#.~.5X=.e.= 4.3.F.; y.4.; ",
"0.m <.q.% V s 0.G t.@X2 G F j j p G H a x.0.D a H D g n 0.G . 3XZ *.l j V <.<.<.%.F.2.p.p.f G m D D <.n K.;XV r.V F n , 8.0.w.8.",
"5.4.h.*.6.h.5.6.< 4.[.h 3.g.M v e.5.9.;.,.; -.b N ;.9.1.b b 9.oXF *.e.*.4.*.=.u.=., 3.< * a.y.u.=.u.a.,.~.8X*.k.e.5.N 5.< 5.a.5.",
"Z S Z 5 Y q I I Y Y iX+Xu R e u P 8 K i J 5 q 9 5 J R S t q  .iX+XK Z 5 J 0 W Y Y q J I T T W 5 Y I t Z _.jX` 9 J 8 9 0 K y y Y ",
"D.5XV.0.W.Y.G.G.H.m.1XW.~.U.D.D. X4XaXE.T.J.^.Y.<XN.m.v.{.K.V.'.'.S.V.{.<XY.U.pX3XN.^.<X^.1./.^./.Y.v.D.-.].Q.OX^.f.~.Y.eXvX:XoX",
"V V ^ -.8.n v 0.0.t.-.d.-.t.D.r.v b aX. w.0.V # M U 0.9.V w.j h v V 8.r.9.b -.I.k m &.%.,.-.%.m d.-.-., V 3.V 8.V V 0.t..X7XG M ",
"v F.0.v $ 9.q.m.v -.a.V 9.4.v & n -.vXr.N 3.V n ^ r.v e.N v M ~ v t.8.M V t.8.5Xl %.y.<.,.9.-., b 8.b b $ b b O -.-.d.g w.3Xb U ",
"a.-.-.N v b e.; 9.9.t.-.b v b ,.j b hXh N N U 0.# U 8.8.v U j r.V V B w.B j 0.qX% 1.f.q.- J.L.-.@ 9.N 9.-.- 9.-.*.v k.d y.8Xj._ ",
"-.D.v r.r.t.V -.V v 4.b V -.< m.V 4.bX~ N V B V w.M n n > v r.M j g.j v n 8.w.[._ f 1.,.d p.d -.$ -.d.8.-.- V b o m.V 9.q.9Xt.B ",
"V v r.c n a 0.a 0.0.o G t.V V w.8.w.gXB.w.v _ M 0.F w.m v.j v j j ^ U h B M z %X2 9.q.& s m 0.8.#.V d ,.V V 0.f %.f ,.V v.=Xl V ",
"*.3.5.N e.N $ e.*.F.Q.d.;.N 8.9.4.4.xX: 3., N e.e.4.5.*.N 5.3.M e.5.3.k.U N w.'.j 4.4.5.-.4.- m :.9.4.;.Q.f.f.5.-.3.e.4.V.3Xj *.",
"R J ! J K 0 J q ! W J J Y K 0 P q X.iXX.W 0 R Z Y K u R Y R R 0 q K K Y Z R P uX-XK J q 0 Q 0 R Y E q Z Y u q R R R 0 R +XkX..Z ",
"K.r.S.V.5XpXE.W.<X|.XXS.'.'.'.{.'.'.'.qXr.t.L.}.'.[.pX4X}.'.'.oXK.V.oXV. X'.K.c.V.B.S.(.|.V.L.eXvXc.oXV.r.|.oX.X2X~./.G. X0. Xx.",
"9.f 1.b H.cX( j v & ,.-.3.& ^ n - V 9.b -.d ,.1.m D xX+ ,.f #.#.* -.%.9.m.& b N 9.V G -.; 8.9.x.S i.%.1.9.-.m q.m g ,.G <.f.1.B ",
"V t.n d.$.iX, x.t.w.- -.-.a.- -.- 9.-.9.b V b n V 0.mX-.b j v ;.& 8.1.V w.G t.;.9.k.< 9.n N + H.| N d., O 8.e.9.b b - a.s 0.p V ",
"# v n b d.zX= q.-.-., d.-.N 8.V , d.v w.e.-.< V 0.^ nXt., ^ N -.V b w.n 8.& b d.N < j.9.b i.v.J.E e.b & #.3.8.9.t.8.8.4.v % V & ",
"w.n V $ M.kXw.n m w.9.b 8.O V t.n - 3.d.-.b b v q.G cX> U & -.3.V D.-.n n - V e.- -.N -.-.9.v.8.E e.8.9., d.D.0.8.v V , 0.% + 0.",
"-.d D.3.i.kXM s 9., 3.9.b b V V n ^ -., b 9.N w.8.a mX_ w.4.N ^ + N ;.0.- *.9.8.G 0.t.# d.9.a ^.Z N 3.3.N 9.8.8.v n V ,.B r.8.3.",
"& r.# j.9.lXw.w.i.3.3.3.w.d.V r.8.U w., j.8.V n + F nXh N d.N M w.0.e.U e.h.9.e.V V w.0.g.V n t.p M b M V 8.3.D.V n 8.V v s N b ",
"Q q 8 Y +XzXO.q Z Y Z t K u u Y 7 8 y w L e y u 6 X.zXO.0 R Z 8 ! R Y 5 w 0 i i r u 8 q q 7 R wXgX} q u 0 q 7 } P P 8 q 8 ! Y 7 ",
"t.G.oXV.R.}.<XN. XM.G.<XqX7X/.G.|.L.D.J.K.6XK.^.}.n.Z.P.[.c.S.G.J.<XxX3X}.H.H.^./.W.G.Y. XH.W.N.^.R.R.K.>XG. X5XhX{.G.R.K.V.K.T.",
"D.9.-.b ; &.%.m m ; v f Y.[ m 8.9.4.F V 0.j ^ f 1.,.%.,.G & b m -.-.3Xk q.g D n q.m %.%.Q.%.i.1.&.;.9.t.0.m %.N.=XN -.b 0., *.3.",
"e.V e.$ m.- w.F m F./ d.}.r B a V j - b -.;.V V H H - ^ ( X ^ w.B v ;Xp 9.< b -.3.-.-.& 0.m G ^ v ^ V n n v ;.F +X0.,.F B & D.,.",
"a.d.e., N -.*.=.6.3.U 5.L.6 N a.M e.9.a.e.3.b a.3.3.j.N N 9.b e.V G qXn * , J.e.j.y.b -.-.9.9.s.a.9.*.4.4.j.1.m.].=.D.f F.9.b m ",
"V 0.d V d 9.V V m -.v m T.[ 8.n ( ,.8.0.v D.w.V V D.- 8.n J.m V 0.<.9Xk r.m v n 0.9.1.<.0.n 0.H.0.D s ,.f q.q.<.o.g.r.d.m v ,.G.",
"a.#.9.-.*.s.;.-.b >.a.y.v.S - f.n a.9.;.;.;.1.-.< 9.-.f 9.*.b -.&.2.1Xl 9.9.a.9.-.2.9.%.p.<.i.%.f f f 1.f 1.i.a.$Xe.V 4.;.,.i.v ",
": U 8.e.r.N V N M a.-.e.S.R t.J.~ M M M V w.M v U M 8.r.8.3.-.D.-.8.rX6 8.3.8.t.w.-.8.U ^ v v F t.w.G.t.8.^ M k.wXU V.w.M r.U M ",
" .W R ! Y Y q q x Z 7 T uXyX!   K u ! { R R Q Y Y R q x x Y Y W 0  .zXwXT W x ! W Y 8 R [ { 6 E 5 E 8 Z q x y wXjXO.u W q Q K 3 "
};
