/* XPM */
static char *result[] = {
/* columns rows colors chars-per-pixel */
"144 48 238 2 ",
"   c black",
".  c #010101",
"X  c #020202",
"o  c gray1",
"O  c #040404",
"+  c gray2",
"@  c #060606",
"#  c #070707",
"$  c gray3",
"%  c #090909",
"&  c gray4",
"*  c #0B0B0B",
"=  c #0C0C0C",
"-  c gray5",
";  c #0E0E0E",
":  c gray6",
">  c #101010",
",  c #111111",
"<  c gray7",
"1  c #131313",
"2  c gray8",
"3  c #151515",
"4  c #161616",
"5  c gray9",
"6  c #181818",
"7  c #191919",
"8  c gray10",
"9  c #1B1B1B",
"0  c gray11",
"q  c #1D1D1D",
"w  c #1E1E1E",
"e  c gray12",
"r  c #202020",
"t  c gray13",
"y  c #222222",
"u  c #232323",
"i  c gray14",
"p  c gray15",
"a  c #272727",
"s  c gray16",
"d  c #2A2A2A",
"f  c gray17",
"g  c #2C2C2C",
"h  c #2D2D2D",
"j  c gray18",
"k  c #2F2F2F",
"l  c gray19",
"z  c #313131",
"x  c #323232",
"c  c gray20",
"v  c #343434",
"b  c #353535",
"n  c gray21",
"m  c #373737",
"M  c gray22",
"N  c #393939",
"B  c #3A3A3A",
"V  c gray23",
"C  c #3C3C3C",
"Z  c gray24",
"A  c #3E3E3E",
"S  c #3F3F3F",
"D  c #414141",
"F  c #434343",
"G  c #444444",
"H  c gray27",
"J  c #464646",
"K  c gray28",
"L  c #484848",
"P  c #494949",
"I  c gray29",
"U  c gray30",
"Y  c #4E4E4E",
"T  c gray31",
"R  c #505050",
"E  c #515151",
"W  c gray32",
"Q  c #535353",
"!  c gray33",
"~  c #555555",
"^  c #565656",
"/  c gray34",
"(  c #585858",
")  c gray35",
"_  c #5A5A5A",
"`  c #5B5B5B",
"'  c gray36",
"]  c gray37",
"[  c #5F5F5F",
"{  c #606060",
"}  c gray38",
"|  c #626262",
" . c gray39",
".. c #646464",
"X. c #656565",
"o. c gray40",
"O. c #676767",
"+. c #686868",
"@. c DimGray",
"#. c #6A6A6A",
"$. c gray42",
"%. c #6C6C6C",
"&. c #6D6D6D",
"*. c gray43",
"=. c #6F6F6F",
"-. c gray44",
";. c #717171",
":. c #727272",
">. c #747474",
",. c gray46",
"<. c #767676",
"1. c #777777",
"2. c gray47",
"3. c #797979",
"4. c gray48",
"5. c #7B7B7B",
"6. c #7C7C7C",
"7. c gray49",
"8. c #7E7E7E",
"9. c gray50",
"0. c #808080",
"q. c #818181",
"w. c gray51",
"e. c #838383",
"r. c #848484",
"t. c gray52",
"y. c #868686",
"u. c gray53",
"i. c #888888",
"p. c #898989",
"a. c gray54",
"s. c #8B8B8B",
"d. c gray55",
"f. c #8D8D8D",
"g. c #8E8E8E",
"h. c gray56",
"j. c #909090",
"k. c gray57",
"l. c #929292",
"z. c #939393",
"x. c gray58",
"c. c gray59",
"v. c #979797",
"b. c #989898",
"n. c gray60",
"m. c #9A9A9A",
"M. c gray61",
"N. c #9D9D9D",
"B. c gray62",
"V. c #9F9F9F",
"C. c #A0A0A0",
"Z. c gray63",
"A. c #A2A2A2",
"S. c gray64",
"D. c #A5A5A5",
"F. c gray65",
"G. c #A7A7A7",
"H. c gray66",
"J. c #A9A9A9",
"K. c #AAAAAA",
"L. c gray67",
"P. c #ACACAC",
"I. c gray68",
"U. c #AEAEAE",
"Y. c #AFAFAF",
"T. c gray69",
"R. c #B1B1B1",
"E. c #B2B2B2",
"W. c #B4B4B4",
"Q. c gray71",
"!. c #B6B6B6",
"~. c #B7B7B7",
"^. c gray72",
"/. c #B9B9B9",
"(. c gray73",
"). c #BBBBBB",
"_. c #BCBCBC",
"`. c gray",
"'. c gray75",
"]. c #C0C0C0",
"[. c #C1C1C1",
"{. c gray77",
"}. c #C5C5C5",
"|. c #C6C6C6",
" X c gray78",
".X c #C8C8C8",
"XX c gray79",
"oX c #CACACA",
"OX c #CBCBCB",
"+X c #CDCDCD",
"@X c #CECECE",
"#X c gray81",
"$X c #D0D0D0",
"%X c gray82",
"&X c #D2D2D2",
"*X c LightGray",
"=X c #D5D5D5",
"-X c gray84",
";X c #D7D7D7",
":X c #D8D8D8",
">X c gray85",
",X c gray86",
"<X c gainsboro",
"1X c #DDDDDD",
"2X c gray87",
"3X c #DFDFDF",
"4X c gray88",
"5X c #E1E1E1",
"6X c #E2E2E2",
"7X c gray89",
"8X c #E4E4E4",
"9X c gray90",
"0X c #E6E6E6",
"qX c #E7E7E7",
"wX c gray91",
"eX c #E9E9E9",
"rX c #EAEAEA",
"tX c gray92",
"yX c #ECECEC",
"uX c gray93",
"iX c #EEEEEE",
"pX c #EFEFEF",
"aX c gray94",
"sX c #F1F1F1",
"dX c gray95",
"fX c #F3F3F3",
"gX c #F4F4F4",
"hX c gray96",
"jX c #F6F6F6",
"kX c gray97",
"lX c #F8F8F8",
"zX c #F9F9F9",
"xX c gray98",
"cX c #FBFBFB",
"vX c gray99",
"bX c #FDFDFD",
"nX c #FEFEFE",
"mX c white",
/* pixels */
"k.p                                                                                                                                                                                                                                                                                         p k.",
"p                                                                                                                                                                                                                                                                                             p ",
"                                                                                                                                                                                                                                                                                                ",
"                                                                                                                                                                                                                                                                                                ",
"                                                                                                                                                                                                                                                                                                ",
"                                                                                                                                                                                                                                                                                                ",
"                                                                                                                                                                                                                                                                                                ",
"                                                                                                                                                                                                                                                                                                ",
"                      e y 0                   O y y >             8 T 7.' a .               7 y 1                 $ y y .               @ y y O             4 y q               w y ;             @ b #.<.D ;               + y y *                 4 y ,       < y 8                           ",
"                      p.mXcXh                 4.mXhXy         { 8XmXmXmXmXmXaXf.+           /.mXg.                B mXmX-               : vXmXG             @XmXlX%           $ lXmXF         5 Q.zXmXmXmXmXnX$Xv           p mXmXY.                G.mX0.      i.mX'.                          ",
"                      $ >XmX XX             t jXmX;.      # m.mXmX,XZ.=.z.+XvXmX{.8         /.mXg.                B mXmX-                 oXmX0.          3 nXmXmXH           A mXjX$       V 9XmXgX`.r.1.T.rXmXlXo.        p mXmXmX~               G.mX0.      i.mX'.                          ",
"                        C nXmX$.            Q.mXXXX       I.mXxX]           c wXmX5X%       /.mXg.                B mXmX-                 p.mX_.          ( mXpXmXp.          7.mX(.      x cXmX}.1         o b.mXmX#.      p mXmXmXeX<             G.mX0.      i.mX'.                          ",
"                          l.mXsX8         W mXxXg       V mXbXG               r 8XmX2.      /.mXg.                B mXmX-                 K mXgXO         N.mX,.mX+X          ).mX<.      (.mX/.$               r.mXrX-     p mXmX XmXA.            G.mX0.      i.mX'.                          ",
"                          = 3XmXI.      = 7XmXq.        {.mXL.                  &.mXpX<     /.mXg.                B mXmX-                 * xXmXb         6XjX% eXnX1       + gXmXx     H mXnXg                 # 0XmXw.    p mXmXd lXmXL           G.mXq.      i.mX'.                          ",
"                            H mXmXY     f.mX=X@       u mXmXv                   & yXmX}     /.mXg.                B mXmX-                   {.mX;.      a mX~.  D.mX~       M mXtX.     S.mXW.                    1.mX5X    p mXmXX 4.mX5X-         G.mXq.      0.mX~.                          ",
"                              M.mX6X= k cXbXM         I mXdX                      W.mXi.    /.mXg.                B mXmX-                   w.mXU.      %.mX;.  { mXn.      <.mXJ.      oXmX:.                    v mXnX%   p mXmXX O #XmXx.        G.mXq.      %.mXS.                          ",
"                              > 9XmXl.|.mXj.          :.mX$X                      z.mXY.    /.mXg.                B mXmX-                   D mXeX      R.mXf   9 mX1X      Q.mX..      sXmXR                     1 mXmXk   p mXmXX   z cXnXC       G.mXq.      / mXh.                          ",
"                                Y mXmXmX3X*           d.mX/.                      6.mXXX    /.mXg.                B mXmX-                   $ kXmXp   O sX8X      =XmXy   o aXmXr     = mXmXN                       cXmXI   p mXmXX     y.mX:X$     G.mXq.      F mX4.                          ",
"                                  F.mXmXH             %.mX=X                      v.mXK.    /.mXg.                B mXmX-                     `.mX .  V mXB.      h.mXo.  x mX,X        yXmX~                     5 mXmXd   p mXmXX     # ;XmXu.    G.mXq.      j mXX.                          ",
"                                  Q mXfX              H mXhX                      /.mXw.    ^.mXh.                V mXmX=                     6.mXV.  0.mX/       I mXK.  -.mXv.        }.mX<.                    N mXvX@   p mXmXX       V bXcXz   G.mXq.      8 mXE                           ",
"                                  Q mXfX              0 mXmXG                   < gXmX)     N.mXJ.                Q mXsX                      V mX,X  }.bX1       * zXyX. Y.mXW         M.mX{.                    y.mX>X    p mXmXX         l.mX@XO G.mXq.      @ mXC                           ",
"                                  Q mXfX                E.mX).                  7.mX9X&     ,.mX%X                3.mXOX                      + gXmXp cXOX          '.mXc yXbX,         c nXmXV                 - aXmX=.    p mXmXX         = 3XmX3.G.mXq.        x.8                           ",
"                                  Q mXfX                f vXmX|               b pXmXX.      I mXmXK             $ 2XmXB.                        ~.mXS.mXr.          3.mXA.mXoX            H.mX+X3             O C.mX2X@     p mXmXX           J mXlX@XmXq.                                      ",
"                                  Q mXfX                  z.mXmXq.@       . W hXmX+Xo       X [.mX8XH         , H.mXhXy                         <.mXbXmXA           v mXbXmXt.            u aXmX,Xf         < !.mXbXQ       p mXmXX             B.mXmXmXq.      5.K.V.                          ",
"                                  Q mXfX                  . <.vXmXlX{.l.!.iXmXmXD.*           t uXmXmXOXZ.g.E.yXmXnX%.                          v mXmXdX+           X yXmXmXD               u #XmXmX5XG.m.*XbXmXtXH         p mXmXX             , qXmXmXq.      /.mXaX                          ",
"                                  Q mXfX                      S `.sXmXmXmXzXOX+.                , p.jXmXmXmXmXmX Xb                             o aXmXR.              J.mXhX@                 % h.>XnXmXmXmX9XK.0           p mXmXX               E mXmXq.      /.mXaX                          ",
"                                                                  . a ! v @                         + i J / n <                                                                                     : D U 7                                                                                     ",
"                                                                                                                                                                                                                                                                                                ",
"                                                                                                                                                                                                                                                                                                ",
"                                                                                                                                                                                                                                                                                                ",
"                                                                                                                                                                                                                                                                                                ",
"                                                                                                                                                                                                                                                                                                ",
"                                                                                                                                                                                                                                                                                                ",
"                                                                                                                                          @ i 9 .           = i #                                                                                                                               ",
"                                                    > mXjXhXkX/.R                                                       X.bXhXhXhXhX9.   .9XOXpX$Xp     s .X0X;XdX6.          3 %.                                                  -Xj   #.5                                                   ",
"                                                    > mX1   $ R aX&                                                     X.`.          r fX9   X c.].  5 eXQ     r eXO.        f >X                                                  d %   -Xk                                                   ",
"                                                    > mX1       rXB q.E Z.m.  ;.5X1X*.  # Z.fXyXe.  # Z.fXyXe.          X.`.          v jX4     > U   p.A.        v K       l 1XzX-X< > G.uX;X[             ;.5X1X*.  { E..   a.3.  W.a '.zX2X_                                                 ",
"                                                    > mX1   O _ pX+ n.=Xp.h ~ oXe s ;XL | {., i 7Xv | {., i 7Xv         X.=X` ` ` ` , O ].rXz.Y &     W.+.                  % T 4Xf o Y.G.3 A yXZ         ~ oXe s ;XL @ &Xo.C 6X:   -Xj p 1XW <                                                 ",
"                                                    > mX9X7XdX4XO.  n.T.    (.Y @ @ | F.( 1Xm . e : ( 1Xm . e :         X.uX~.~.~.~.u   o / F.wXsX|   .X`                     f >X  1 xX>     8.C.        (.Y @ @ | F.  v rX:XP     -Xj   -Xk                                                   ",
"                                                    > mXS l f .     n.2.    <XvXcXcXcX}.+ y.eXeXl.& + y.eXeXl.&         X.`.          @ @     X ] vXe P.<.        f o.        f >X  x 5X      Q ].        <XvXcXcXcX}.    (.3Xo     -Xj   -Xk                                                   ",
"                                                    > mX1           n.$.    |.Z     # > = # . m *X9.= # . m *X9.        X.`.          >.A.        3XK 1.|.        e.V.        f >X  w hXo     #.P.        |.Z     # >   D 1X{.,.    -Xj   -Xk                                                   ",
"                                                    > mX1           n.$.    6.D.X   m.@.0.b.    g.s.0.b.    g.s.        X.`.          x sXn     l kX6 , sX,.    h iXZ         s 3X  . %X&.  - %X{         6.D.X   m.@.& 1XL s sXp   -Xj   *Xv                                                   ",
"                                                    > mX1           n.$.    = L.2X-XI.+ 5 oX;X@X$Xy 5 oX;X@X$Xy         X.bXhXhXhXhXi.  } wX*X@X6X^     k &XrX$XrXO.          & >XeX2 j *X&X8Xx.o         = L.2X-XI.+ j.H.    e.{.X -Xj   k.pX{                                                 ",
"                                                                                % %         1 3         1 3                               o r t o           , y o                         < +                 % %                                                                               ",
"                                                                                                                                                                                                                                                                                                ",
"                                                                                                                                                                                                                                                                                                ",
"p                                                                                                                                                                                                                                                                                             p ",
"k.p                                                                                                                                                                                                                                                                                         p k."
};
